SplineFontDB: 3.2
FontName: NXBaskerville-Italic
FullName: NX Baskerville Italic
FamilyName: NX Baskerville
Weight: Regular
Copyright: Copyright (c) 2020, Daniel Benjamin Miller\nCopyright (c) 2012, Pablo Impallari (www.impallari.com|impallari@gmail.com), \nCopyright (c) 2012, Rodrigo Fuenzalida (www.rfuenzalida.com|hello :rfuenzalida.com), with Reserved Font Name Libre Baskerville.
Version: 1.00
ItalicAngle: -14.8
UnderlinePosition: -100
UnderlineWidth: 50
Ascent: 800
Descent: 200
InvalidEm: 0
sfntRevision: 0x00010000
LayerCount: 2
Layer: 0 0 "Back" 1
Layer: 1 0 "Fore" 0
XUID: [1021 572 -1837316912 4703824]
StyleMap: 0x0001
FSType: 0
OS2Version: 3
OS2_WeightWidthSlopeOnly: 0
OS2_UseTypoMetrics: 0
CreationTime: 1354221960
ModificationTime: 1586477685
PfmFamily: 17
TTFWeight: 400
TTFWidth: 5
LineGap: 0
VLineGap: 0
Panose: 2 0 0 0 0 0 0 0 0 0
OS2TypoAscent: 970
OS2TypoAOffset: 0
OS2TypoDescent: -270
OS2TypoDOffset: 0
OS2TypoLinegap: 0
OS2WinAscent: 970
OS2WinAOffset: 0
OS2WinDescent: 270
OS2WinDOffset: 0
HheadAscent: 970
HheadAOffset: 0
HheadDescent: -270
HheadDOffset: 0
OS2SubXSize: 700
OS2SubYSize: 650
OS2SubXOff: 0
OS2SubYOff: 140
OS2SupXSize: 700
OS2SupYSize: 650
OS2SupXOff: 0
OS2SupYOff: 477
OS2StrikeYSize: 50
OS2StrikeYPos: 250
OS2CapHeight: 770
OS2XHeight: 530
OS2Vendor: 'pyrs'
OS2CodePages: 00000093.00000000
OS2UnicodeRanges: a00000bf.5000005b.00000000.00000000
Lookup: 4 0 1 "'liga' Standard Ligatures in Latin lookup 0" { "'liga' Standard Ligatures in Latin lookup 0 subtable"  } ['liga' ('latn' <'dflt' > ) ]
Lookup: 4 0 0 "'dlig' Discretionary Ligatures in Latin lookup 1" { "'dlig' Discretionary Ligatures in Latin lookup 1 subtable"  } ['dlig' ('latn' <'dflt' > ) ]
Lookup: 4 0 0 "'frac' Diagonal Fractions in Latin lookup 2" { "'frac' Diagonal Fractions in Latin lookup 2 subtable"  } ['frac' ('latn' <'dflt' > ) ]

StartChar: .notdef
Encoding: 65536 -1 0
Width: 756
Flags: MW
HStem: -260 61<240 515 240 626> 911 59<240 515 240 240>
VStem: 130 110<-199 -199 -199 911> 515 111<-199 911 911 911>
LayerCount: 2
Fore
SplineSet
130 970 m 1
 626 970 l 1
 626 -260 l 1
 130 -260 l 1
 130 970 l 1
240 -199 m 1
 515 -199 l 1
 515 911 l 1
 240 911 l 1
 240 -199 l 1
EndSplineSet
EndChar

StartChar: exclam
Encoding: 33 33 2
Width: 317
GlyphClass: 2
Flags: MW
HStem: -10 126 760 20G<240.333 273.299>
VStem: 57 126<34.7959 68.856> 129 35<207 207>
LayerCount: 2
Fore
SplineSet
252 780 m 0xd0
 294.598632812 780 307 751.620117188 307 704.999023438 c 0
 307 673.509765625 301.163085938 652.643554688 292.5 625.499023438 c 0
 271.651367188 560.173828125 239.173828125 490.743164062 216.5 420 c 0
 195.197265625 353.536132812 174.895507812 280.543945312 164 207 c 1
 129 207 l 1
 177 662 l 2
 181.666992188 704.666992188 189.5 735 200.5 753 c 0
 211.5 771 228.666992188 780 252 780 c 0xd0
183 51.9990234375 m 0xe0
 183 17.5927734375 153.352539062 -10.0009765625 119 -10.0009765625 c 0
 84.900390625 -10.0009765625 57 16.2255859375 57 50.9990234375 c 0
 57 86.712890625 84.2353515625 115.999023438 120 115.999023438 c 0
 155.2421875 115.999023438 183 86.892578125 183 51.9990234375 c 0xe0
EndSplineSet
EndChar

StartChar: quotedbl
Encoding: 34 34 3
Width: 359
GlyphClass: 2
Flags: MW
HStem: 564 266<153.999 250.045 153.999 250.045 216.75 305.999 216.75 334.999>
VStem: 174.5 100.5 326.5 100.5
LayerCount: 2
Fore
SplineSet
239 830 m 0
 261.08984375 830 275 816.771484375 275 795 c 0
 275 791 272 781.333007812 266 766 c 0
 241.400390625 703.135742188 208.149414062 628.671875 182.999023438 564 c 1
 153.999023438 564 l 1
 163.009765625 631.578125 163.515625 697.85546875 174.5 757 c 0
 182.0234375 797.510742188 194.499023438 830 239 830 c 0
391 830 m 0
 413.08984375 830 427 816.771484375 427 795 c 0
 427 791 424 781.333007812 418 766 c 0
 393.400390625 703.135742188 360.149414062 628.671875 334.999023438 564 c 1
 305.999023438 564 l 1
 315.009765625 631.578125 315.515625 697.85546875 326.5 757 c 0
 334.0234375 797.510742188 346.499023438 830 391 830 c 0
EndSplineSet
EndChar

StartChar: numbersign
Encoding: 35 35 4
Width: 670
GlyphClass: 2
Flags: MW
HStem: 0 21G<163 223 163 163 377 436 377 377> 255 50<69 201 61 211 271 412 483 612> 475 50<100 235 92 244 304 445 515 641> 750 20G<279 339 339 339 489 549 549 549>
LayerCount: 2
Fore
SplineSet
612 255 m 1
 473 255 l 1
 436 0 l 1
 377 0 l 1
 412 255 l 1
 261 255 l 1
 223 0 l 1
 163 0 l 1
 201 255 l 1
 61 255 l 1
 69 305 l 1
 211 305 l 1
 235 475 l 1
 92 475 l 1
 100 525 l 1
 244 525 l 1
 279 770 l 1
 339 770 l 1
 304 525 l 1
 455 525 l 1
 489 770 l 1
 549 770 l 1
 515 525 l 1
 649 525 l 1
 641 475 l 1
 506 475 l 1
 483 305 l 1
 620 305 l 1
 612 255 l 1
295 475 m 1
 271 305 l 1
 422 305 l 1
 445 475 l 1
 295 475 l 1
EndSplineSet
EndChar

StartChar: dollar
Encoding: 36 36 5
Width: 584
GlyphClass: 2
Flags: MW
HStem: -10 53 -3 52 544 21<454.574 494.378> 727 53
VStem: 22 85 132 98 414 89 480 81
LayerCount: 2
Fore
SplineSet
425 565 m 1x7d
 455.293945312 574.219726562 479.999023438 610.372070312 479.999023438 649.999023438 c 0x7d
 479.999023438 691.33203125 456.33203125 716.665039062 408.999023438 725.998046875 c 1
 344.999023438 460.998046875 l 1
 402.25 420.104492188 458.825195312 378.055664062 488.499023438 309.498046875 c 0
 498.166015625 287.165039062 502.999023438 261.665039062 502.999023438 232.998046875 c 0
 502.999023438 157.935546875 465.783203125 100.227539062 423.499023438 61.998046875 c 0
 379.502929688 22.220703125 314.799804688 -10.001953125 234.999023438 -10.001953125 c 2
 230.999023438 -10.001953125 l 1xbe
 197.999023438 -146.001953125 l 1
 140.999023438 -146.001953125 l 1
 174.999023438 -3.001953125 l 1
 110.706054688 12.583984375 57.4951171875 51.2021484375 33.4990234375 106.498046875 c 0
 25.83203125 124.165039062 21.9990234375 142.665039062 21.9990234375 161.998046875 c 0
 21.9990234375 212.14453125 49.451171875 251.55859375 82.4990234375 269.499023438 c 0
 94.166015625 275.83203125 106.333007812 278.999023438 119 278.999023438 c 0
 139 278.999023438 155.333007812 270.999023438 168 254.999023438 c 1
 132.528320312 241.063476562 107 202.384765625 107 153.999023438 c 0
 107 96.619140625 141.56640625 62.4404296875 188 48.9990234375 c 1
 267 373.999023438 l 1
 217.080078125 410.478515625 168.35546875 450.48046875 143.5 510.999023438 c 0
 135.833007812 529.666015625 132 550.666015625 132 573.999023438 c 0
 132 637.344726562 163.197265625 685.661132812 199 717.999023438 c 0
 238.124023438 753.336914062 295.227539062 777.208007812 365 779.999023438 c 1
 386 864.999023438 l 1
 443 864.999023438 l 1
 421 775.999023438 l 1
 493.006835938 763.426757812 561 719.630859375 561 641 c 0
 561 583.622070312 522.756835938 544 466 544 c 0
 443.1484375 544 433.073242188 550.19921875 425 565 c 1x7d
413.999023438 184.999023438 m 0xbe
 413.999023438 216.999023438 404.331054688 244.998046875 384.998046875 268.998046875 c 0
 365.665039062 292.998046875 342.33203125 315.665039062 314.999023438 336.998046875 c 1
 243.999023438 42.998046875 l 1
 317.91796875 45.0517578125 375.241210938 78.974609375 400.999023438 129.499023438 c 0
 409.666015625 146.499023438 413.999023438 164.999023438 413.999023438 184.999023438 c 0xbe
351.998046875 726.998046875 m 1
 285.475585938 720.950195312 229.998046875 682.3828125 229.998046875 612.998046875 c 0
 229.998046875 588.998046875 236.331054688 567.998046875 248.998046875 549.998046875 c 0
 261.665039062 531.998046875 277.665039062 514.665039062 296.998046875 497.998046875 c 1
 351.998046875 726.998046875 l 1
EndSplineSet
EndChar

StartChar: percent
Encoding: 37 37 6
Width: 683
GlyphClass: 2
Flags: MW
HStem: -10 26 0 21G<13 80 13 13> 280 26 465 26 750 20G<636 694 694 694> 755 26
VStem: 121 54<543.045 558.335 527.668 615.251> 310 55<664.338 707.562 650.473 720.335> 363 54<68.0479 83.3384 52.6714 140.254> 552 55<189.341 232.565 175.476 245.338>
LayerCount: 2
Fore
SplineSet
80 0 m 1x7a40
 13 0 l 1
 636 770 l 1
 694 770 l 1
 80 0 l 1x7a40
278 781 m 0x3740
 333.154296875 781 365 736.122070312 365 679.001953125 c 0
 365 621.944335938 340.399414062 568.609375 314.5 533.500976562 c 0
 291.67578125 502.561523438 253.791015625 465.000976562 207 465.000976562 c 0
 151.791015625 465.000976562 121 514.088867188 121 572.000976562 c 0
 121 658.500976562 167.474609375 728.590820312 221 763 c 0
 239.666992188 775 258.666992188 781 278 781 c 0x3740
274 755.001953125 m 0
 262.666992188 755.001953125 251 748.669921875 239 736.002929688 c 0
 212.913085938 708.466796875 194.969726562 665.098632812 184 620.002929688 c 0
 178 595.3359375 175 570.668945312 175 546.001953125 c 0
 175 509.334960938 187.666992188 491.001953125 213 491.001953125 c 0
 224.333007812 491.001953125 235.833007812 497.334960938 247.5 510.001953125 c 0
 284.85546875 550.559570312 310 625.673828125 310 703.001953125 c 0
 310 737.668945312 298 755.001953125 274 755.001953125 c 0
520 306.002929688 m 0
 575.154296875 306.002929688 607 261.125 607 204.004882812 c 0
 607 146.947265625 582.399414062 93.6123046875 556.5 58.50390625 c 0
 533.67578125 27.564453125 495.791015625 -9.99609375 449 -9.99609375 c 0
 393.791015625 -9.99609375 363 39.091796875 363 97.00390625 c 0xb2c0
 363 183.50390625 409.474609375 253.59375 463 288.002929688 c 0
 481.666992188 300.002929688 500.666992188 306.002929688 520 306.002929688 c 0
516 280.004882812 m 0
 504.666992188 280.004882812 493 273.672851562 481 261.005859375 c 0
 454.913085938 233.469726562 436.969726562 190.1015625 426 145.005859375 c 0
 420 120.338867188 417 95.671875 417 71.0048828125 c 0
 417 34.337890625 429.666992188 16.0048828125 455 16.0048828125 c 0
 466.333007812 16.0048828125 477.833007812 22.337890625 489.5 35.0048828125 c 0
 526.85546875 75.5625 552 150.676757812 552 228.004882812 c 0
 552 262.671875 540 280.004882812 516 280.004882812 c 0
EndSplineSet
EndChar

StartChar: ampersand
Encoding: 38 38 7
Width: 898
GlyphClass: 2
Flags: MW
HStem: -10 105 256 53 263 141 406 111 450 97<717.001 717.001> 470 77 688 92 704 54<783.735 799.946 740.342 809.683>
VStem: 59 87<302.765 349.896> 211 60<598.208 610.292 561.999 654.418> 416 49 542 88 673 94 714 60 847 63
LayerCount: 2
Fore
SplineSet
228 520 m 1x89f6
 217.9140625 541.431640625 211 582.415039062 211 614 c 0
 211 694.8359375 256.469726562 745.833984375 316.5 767.999023438 c 0
 338.166992188 775.999023438 362 779.999023438 388 779.999023438 c 0
 463.27734375 779.999023438 524 739.49609375 524 666.999023438 c 0
 524 638.75 513.217773438 611.442382812 491 606.999023438 c 1
 471.599609375 650.365234375 433.993164062 687.999023438 376 687.999023438 c 0
 313.97265625 687.999023438 271 641.584960938 271 578.999023438 c 0
 271 544.999023438 282.333007812 524.33203125 305 516.999023438 c 0
 341.984375 504.670898438 386 497.892578125 386 451.998046875 c 0
 386 422.2109375 368.0859375 405.998046875 338 405.998046875 c 0x92f6
 309.610351562 405.998046875 294.567382812 420.592773438 280 434.498046875 c 0
 266.493164062 447.390625 252.358398438 462.998046875 227 462.998046875 c 0
 173.244140625 462.998046875 146 400.2109375 146 341.998046875 c 0
 146 263.53125 184.815429688 205.243164062 230.5 166.498046875 c 0
 279.202148438 125.193359375 350.25390625 94.998046875 437 94.998046875 c 0
 517.369140625 94.998046875 585.840820312 124.341796875 632.000976562 161.999023438 c 0
 674.7734375 196.892578125 714.000976562 249.893554688 714.000976562 320.999023438 c 0
 714.000976562 388.717773438 676.920898438 437.11328125 629.500976562 458.499023438 c 0
 612.500976562 466.166015625 594.000976562 469.999023438 574.000976562 469.999023438 c 0
 513.517578125 469.999023438 465.000976562 438.264648438 465.000976562 379.999023438 c 0
 465.000976562 344.486328125 485.233398438 308.999023438 519.000976562 308.999023438 c 0xc4f6
 534.333984375 308.999023438 542.000976562 316.999023438 542.000976562 332.999023438 c 0
 542.000976562 342.015625 540.000976562 354.984375 540.000976562 363.999023438 c 0
 540.000976562 386.509765625 556.46484375 403.999023438 579.000976562 403.999023438 c 0
 609.1796875 403.999023438 630.000976562 373.493164062 630.000976562 341.999023438 c 0
 630.000976562 299.530273438 599.057617188 274.809570312 567.000976562 262.999023438 c 0xa0f6
 554.333984375 258.33203125 541.000976562 255.999023438 527.000976562 255.999023438 c 0
 471.836914062 255.999023438 439.521484375 290.97265625 424.500976562 332.499023438 c 0
 418.833984375 348.166015625 416.000976562 365.333007812 416.000976562 384 c 0
 416.000976562 465.53515625 469.037109375 513.885742188 531.500976562 535 c 0
 555.16796875 543 581.334960938 547 610.001953125 547 c 2
 715.001953125 547 l 2
 783.7578125 547 847.001953125 575.30078125 847.001953125 639 c 0
 847.001953125 669.751953125 824.364257812 704 795.001953125 704 c 0
 772.467773438 704 771.186523438 686.938476562 767.000976562 669.5 c 0
 761.897460938 648.235351562 753.82421875 635 724.000976562 635 c 0
 692.079101562 635 673.000976562 654.078125 673.000976562 686 c 0xc5fa
 673.000976562 734.489257812 714.68359375 758 766.000976562 758 c 0
 833.891601562 758 878.747070312 720.29296875 899.000976562 671.5 c 0
 906.333984375 653.833007812 910.000976562 634.666015625 910.000976562 613.999023438 c 0
 910.000976562 561.840820312 885.421875 523.813476562 855.500976562 497.999023438 c 0
 823.004882812 469.962890625 774.97265625 451.379882812 717.000976562 450 c 1
 715.000976562 446 l 1
 752.017578125 423.220703125 774.000976562 359.266601562 774.000976562 297 c 0
 774.000976562 200.272460938 724.401367188 127.267578125 668.000976562 79.5 c 0
 607.590820312 28.3369140625 516.74609375 -10 409 -10 c 0
 303.663085938 -10 217.629882812 26.1025390625 159 76 c 0
 103.833007812 122.951171875 59 193.440429688 59 289 c 0
 59 410.79296875 128.944335938 494.6015625 228 520 c 1x89f6
EndSplineSet
EndChar

StartChar: quotesingle
Encoding: 39 39 8
Width: 207
GlyphClass: 2
Flags: MW
HStem: 564 266<153.999 250.045 153.999 250.045>
VStem: 174.5 100.5
LayerCount: 2
Fore
SplineSet
239 830 m 0
 261.08984375 830 275 816.771484375 275 795 c 0
 275 791 272 781.333007812 266 766 c 0
 241.400390625 703.135742188 208.149414062 628.671875 182.999023438 564 c 1
 153.999023438 564 l 1
 163.009765625 631.578125 163.515625 697.85546875 174.5 757 c 0
 182.0234375 797.510742188 194.499023438 830 239 830 c 0
EndSplineSet
EndChar

StartChar: parenleft
Encoding: 40 40 9
Width: 337
GlyphClass: 2
Flags: MW
HStem: 811 20G
VStem: 32 90
LayerCount: 2
Fore
SplineSet
122 101 m 0
 122 -12.3505859375 150.747070312 -92.0888671875 198.000976562 -166 c 1
 160.000976562 -194 l 1
 74.66796875 -82.6669921875 32.0009765625 37.666015625 32.0009765625 166.999023438 c 0
 32.0009765625 284.33203125 65.16796875 399.499023438 131.500976562 512.499023438 c 0
 197.833984375 625.499023438 293.666992188 731.666015625 419 830.999023438 c 1
 443 802.999023438 l 1
 342.447265625 701.25 258.971679688 601.33203125 198.5 473.5 c 0
 148.473632812 367.749023438 122 251.434570312 122 101 c 0
EndSplineSet
EndChar

StartChar: parenright
Encoding: 41 41 10
Width: 335
GlyphClass: 2
Flags: MW
HStem: 811 20G<192 192>
VStem: 224 86<461.168 555.301 411.516 558.668>
LayerCount: 2
Fore
SplineSet
192 831 m 1
 260.7578125 738.176757812 310 628.6015625 310 482.000976562 c 0
 310 341.030273438 262.90625 226.534179688 204.5 129.001953125 c 0
 129.629882812 3.9755859375 26.146484375 -102.926757812 -92 -193.998046875 c 1
 -115 -165.998046875 l 1
 -20.23046875 -84.7666015625 65.400390625 25.951171875 125 144.501953125 c 0
 179.34765625 252.607421875 224 385.333984375 224 537.001953125 c 0
 224 580.334960938 218.166992188 622.66796875 206.5 664.000976562 c 0
 194.833007812 705.333984375 177 751.666992188 153 803 c 1
 192 831 l 1
EndSplineSet
EndChar

StartChar: asterisk
Encoding: 42 42 11
Width: 532
GlyphClass: 2
Flags: MW
HStem: 491 79 560 80 750 20G
VStem: 172 93 222 91 339 92 387 97
LayerCount: 2
Fore
SplineSet
484 435 m 0x62
 484 406.78515625 464.573242188 390.000976562 438 390.000976562 c 0
 403.122070312 390.000976562 393.895507812 418.418945312 387 446.000976562 c 0
 379.885742188 474.458984375 351.921875 516.080078125 332.000976562 536.000976562 c 1
 320.627929688 499.987304688 313.000976562 467.173828125 313.000976562 421.000976562 c 0
 311.66796875 380.333984375 296.66796875 360.000976562 268.000976562 360.000976562 c 0
 238.870117188 360.000976562 222.000976562 380.849609375 222.000976562 408.000976562 c 0x6a
 222.000976562 416.66796875 224.000976562 423.834960938 228.000976562 429.501953125 c 0
 238.0703125 443.766601562 265.025390625 466.954101562 275.500976562 486.000976562 c 0
 285.947265625 504.995117188 293.05078125 521.677734375 303.000976562 546.000976562 c 1
 246.76953125 536.400390625 212.478515625 521.69140625 177.500976562 497.000976562 c 0
 171.833984375 493.000976562 165.000976562 491.000976562 157.000976562 491.000976562 c 0
 132.3671875 491.000976562 112.000976562 513.734375 112.000976562 538.000976562 c 0
 112.000976562 563.60546875 133.633789062 583.000976562 161.000976562 583.000976562 c 0
 172.333984375 583.000976562 184.333984375 580.833984375 197.000976562 576.500976562 c 0
 209.66796875 572.16796875 224.66796875 570.000976562 242.000976562 570.000976562 c 0
 257.333984375 570.000976562 276.000976562 572.000976562 298.000976562 576.000976562 c 1
 267.014648438 611.260742188 241.80078125 629.74609375 206.5 649.000976562 c 0
 187.45703125 659.387695312 172 666.244140625 172 693.000976562 c 0
 172 723.4140625 191.573242188 740.000976562 219 740.000976562 c 0
 247.517578125 740.000976562 256.030273438 719.427734375 265.000976562 697.000976562 c 0
 280.100585938 659.252929688 294.271484375 628.27734375 322.000976562 595.000976562 c 1
 336.122070312 636.186523438 339.000976562 664.032226562 339.000976562 713.000976562 c 0
 339.000976562 744.923828125 354.133789062 770.000976562 384.000976562 770.000976562 c 0
 409.208984375 770.000976562 431.000976562 748.806640625 431.000976562 725.000976562 c 0xb4
 431.000976562 716.333984375 428.16796875 707.666992188 422.500976562 699 c 0
 398.352539062 662.067382812 367.866210938 631.099609375 350.000976562 583.999023438 c 1
 390.801757812 591.932617188 420.184570312 603.137695312 447.500976562 618.999023438 c 0
 463.185546875 628.106445312 476.486328125 639.999023438 496.000976562 639.999023438 c 0
 518.927734375 639.999023438 540.000976562 616.15234375 540.000976562 592.999023438 c 0
 540.000976562 569.112304688 520.979492188 548.999023438 494.000976562 548.999023438 c 0
 483.333984375 548.999023438 472.666992188 550.83203125 462 554.499023438 c 0
 451.333007812 558.166015625 437 559.999023438 419 559.999023438 c 0
 398.571289062 559.999023438 375.674804688 557.278320312 356 553.999023438 c 1
 382.092773438 523.368164062 411.194335938 505.051757812 443 486.499023438 c 0
 462.979492188 474.844726562 484 463.5859375 484 435 c 0x62
EndSplineSet
EndChar

StartChar: plus
Encoding: 43 43 12
Width: 578
GlyphClass: 2
Flags: MW
HStem: 313 50<55 263 55 263 315 523>
VStem: 263 52<104 313 104 313 363 572>
LayerCount: 2
Fore
SplineSet
263 104 m 1
 263 313 l 1
 55 313 l 1
 55 363 l 1
 263 363 l 1
 263 572 l 1
 315 572 l 1
 315 363 l 1
 523 363 l 1
 523 313 l 1
 315 313 l 1
 315 104 l 1
 263 104 l 1
EndSplineSet
EndChar

StartChar: comma
Encoding: 44 44 13
Width: 265
GlyphClass: 2
Flags: MW
HStem: 0 130<48.5498 53>
VStem: 71 68<-6.6665 78.7002>
LayerCount: 2
Fore
SplineSet
68 130 m 0
 108.047851562 130 139 98.3994140625 139 59.0009765625 c 0
 139 21.66796875 125.666992188 -17.6650390625 99 -58.998046875 c 0
 72.3330078125 -100.331054688 34 -138.998046875 -16 -174.998046875 c 1
 -39 -142.998046875 l 1
 -3 -117.665039062 24.3330078125 -91.83203125 43 -65.4990234375 c 0
 61.6669921875 -39.166015625 71 -16.3330078125 71 3 c 1
 63 1 56 0 50 0 c 0
 15.3076171875 0 -1 23.490234375 -1 58 c 0
 -1 97.1455078125 29.099609375 130 68 130 c 0
EndSplineSet
EndChar

StartChar: hyphen
Encoding: 45 45 14
Width: 465
GlyphClass: 2
Flags: MW
HStem: 248 83<60 392 83 369>
VStem: 60 332<248 331>
LayerCount: 2
Fore
SplineSet
60 248 m 1
 83 331 l 1
 392 331 l 1
 369 248 l 1
 60 248 l 1
EndSplineSet
EndChar

StartChar: period
Encoding: 46 46 15
Width: 262
GlyphClass: 2
Flags: MW
HStem: -10 140<48.9644 87.1636>
VStem: -1 140<39.8101 77.5728>
LayerCount: 2
Fore
SplineSet
139 59 m 0
 139 20.6201171875 106.327148438 -10 68 -10 c 0
 29.9287109375 -10 -1 19.2548828125 -1 58 c 0
 -1 97.1455078125 29.099609375 130 68 130 c 0
 108.047851562 130 139 98.3984375 139 59 c 0
EndSplineSet
EndChar

StartChar: slash
Encoding: 47 47 16
Width: 390
GlyphClass: 2
Flags: MW
HStem: 0 21G<-29 40 -29 -29> 750 20G<395 457 457 457>
LayerCount: 2
Fore
SplineSet
40 0 m 1
 -29 0 l 1
 395 770 l 1
 457 770 l 1
 40 0 l 1
EndSplineSet
EndChar

StartChar: zero
Encoding: 48 48 17
Width: 656
GlyphClass: 2
Flags: MW
HStem: -10 53 728 52
VStem: 69 111 517 112
LayerCount: 2
Fore
SplineSet
260 -10 m 0
 195.260742188 -10 151.01953125 23.369140625 121.997070312 64.0009765625 c 0
 88.8447265625 110.415039062 68.9970703125 178.297851562 68.9970703125 258.001953125 c 0
 68.9970703125 399.22265625 123.533203125 527.663085938 185.497070312 615.001953125 c 0
 220.497070312 664.334960938 259.830078125 704.16796875 303.497070312 734.500976562 c 0
 347.1640625 764.833984375 391.6640625 780.000976562 436.997070312 780.000976562 c 0
 537.611328125 780.000976562 591.180664062 708.95703125 614.997070312 629.000976562 c 0
 624.330078125 597.66796875 628.997070312 563.000976562 628.997070312 525.000976562 c 0
 628.997070312 430.321289062 603.720703125 343.606445312 572.497070312 273.500976562 c 0
 538.439453125 197.03125 489.040039062 125.125976562 432.998046875 72.5009765625 c 0
 405.665039062 46.833984375 377.33203125 26.6669921875 347.999023438 12 c 0
 318.666015625 -2.6669921875 289.333007812 -10 260 -10 c 0
516.997070312 598.000976562 m 0
 516.997070312 670.526367188 493.754882812 728.000976562 426.997070312 728.000976562 c 0
 407.6640625 728.000976562 388.1640625 720.333984375 368.497070312 705.000976562 c 0
 322.231445312 668.9296875 287.65625 611.158203125 259.997070312 549.501953125 c 0
 228.358398438 478.974609375 204.559570312 396.227539062 190.497070312 308.501953125 c 0
 183.497070312 264.834960938 179.997070312 221.66796875 179.997070312 179.000976562 c 0
 179.997070312 104.560546875 204.537109375 43.0009765625 272.997070312 43.0009765625 c 0
 292.330078125 43.0009765625 311.663085938 50.66796875 330.99609375 66.0009765625 c 0
 376.608398438 102.17578125 410.481445312 161.165039062 437.997070312 222.500976562 c 0
 483.627929688 324.219726562 516.997070312 454.104492188 516.997070312 598.000976562 c 0
EndSplineSet
Substitution2: "'sups' Superscript in Latin lookup 4 subtable" uni2070
Substitution2: "'sinf' Scientific Inferiors in Latin lookup 3 subtable" uni2080
EndChar

StartChar: one
Encoding: 49 49 18
Width: 474
GlyphClass: 2
Flags: MW
HStem: 0 40<7.00098 44.6831 343.41 366.001 -3.99902 44.6831> 603 42<121 134.333> 760 20G<389 426 426 426>
LayerCount: 2
Fore
SplineSet
270 127 m 0
 270 61.37109375 309.818359375 40 377.000976562 40 c 1
 366.000976562 0 l 1
 -3.9990234375 0 l 1
 7.0009765625 40 l 1
 82.365234375 40 121.90625 60.6748046875 148.000976562 111 c 0
 157.333984375 129 165.333984375 151.666992188 172.000976562 179 c 2
 274.000976562 590 l 2
 275.0859375 595.426757812 276.000976562 600.446289062 276.000976562 606 c 0
 276.000976562 614.666992188 271.000976562 619 261.000976562 619 c 0
 249.66796875 619 232.16796875 616.333007812 208.500976562 611 c 0
 184.833984375 605.666992188 153.666992188 603 115 603 c 1
 121 645 l 1
 215.090820312 645 280.166992188 685.276367188 333 729 c 0
 352.333007812 745 371 762 389 780 c 1
 426 780 l 1
 297 268 l 2
 285.994140625 223.977539062 270 175.122070312 270 127 c 0
EndSplineSet
Substitution2: "'sups' Superscript in Latin lookup 4 subtable" uni00B9
Substitution2: "'sinf' Scientific Inferiors in Latin lookup 3 subtable" uni2081
EndChar

StartChar: two
Encoding: 50 50 19
Width: 625
GlyphClass: 2
Flags: MW
HStem: 0 98 443 53<193.997 314> 728 53
VStem: 119 101 472 118
LayerCount: 2
Fore
SplineSet
228 443 m 0
 159.994140625 443 118.998046875 496.344726562 118.998046875 566.000976562 c 0
 118.998046875 634.352539062 154.8359375 684.784179688 195.498046875 718.000976562 c 0
 239.2265625 753.72265625 303.353515625 781.000976562 379.998046875 781.000976562 c 0
 476.819335938 781.000976562 545.244140625 740.443359375 574.998046875 673.000976562 c 0
 584.998046875 650.333984375 589.998046875 625.000976562 589.998046875 597.000976562 c 0
 589.998046875 563.000976562 582.165039062 528.333984375 566.498046875 493.000976562 c 0
 550.831054688 457.66796875 525.998046875 420.334960938 491.998046875 381.001953125 c 0
 457.998046875 341.668945312 414.165039062 299.168945312 360.498046875 253.501953125 c 0
 306.831054688 207.834960938 241.6640625 157.66796875 164.997070312 103.000976562 c 1
 164.997070312 98.0009765625 l 1
 368.997070312 98.0009765625 l 2
 443.236328125 98.0009765625 471.57421875 126.764648438 500.997070312 173.000976562 c 1
 537.997070312 173.000976562 l 1
 474.997070312 0.0009765625 l 1
 10.9970703125 0.0009765625 l 1
 19.9970703125 53.0009765625 l 1
 103.330078125 119.66796875 173.830078125 179.16796875 231.497070312 231.500976562 c 0
 289.1640625 283.833984375 335.831054688 331.500976562 371.498046875 374.500976562 c 0
 407.165039062 417.500976562 432.83203125 457.16796875 448.499023438 493.500976562 c 0
 464.166015625 529.833984375 471.999023438 565.333984375 471.999023438 600.000976562 c 0
 471.999023438 674.25390625 431.9296875 728.000976562 358.999023438 728.000976562 c 0
 295.13671875 728.000976562 249.747070312 689.827148438 230.5 644.000976562 c 0
 223.5 627.333984375 220 609.666992188 220 591 c 0
 220 531.129882812 254.104492188 496 314 496 c 1
 302.491210938 464.032226562 270.6640625 443 228 443 c 0
EndSplineSet
Substitution2: "'sups' Superscript in Latin lookup 4 subtable" uni00B2
Substitution2: "'sinf' Scientific Inferiors in Latin lookup 3 subtable" uni2082
EndChar

StartChar: three
Encoding: 51 51 20
Width: 617
GlyphClass: 2
Flags: MW
HStem: -10 52 240 44 367 44.5 523 38 729 51
VStem: 24 100 155 91 411 118 455 110
LayerCount: 2
Fore
SplineSet
124 134 m 0xff
 124 70.3056640625 172.069335938 42.0009765625 238.998046875 42.0009765625 c 0
 322.9765625 42.0009765625 374.875 85.080078125 398.498046875 146.500976562 c 0
 406.831054688 168.16796875 410.998046875 192.334960938 410.998046875 219.001953125 c 0xff
 410.998046875 285.458007812 385.373046875 338.490234375 343.498046875 363.001953125 c 0
 329.831054688 371.001953125 314.998046875 375.001953125 298.998046875 375.001953125 c 0
 277.493164062 375.001953125 241.497070312 367.001953125 219.998046875 367.001953125 c 0
 198.665039062 367.001953125 187.998046875 373.668945312 187.998046875 387.001953125 c 0
 187.998046875 398.334960938 194.665039062 406.501953125 207.998046875 411.501953125 c 0
 240.77734375 423.793945312 282.651367188 429.868164062 321.498046875 440.001953125 c 0
 372.259765625 453.244140625 410.475585938 481.0859375 434.999023438 524.001953125 c 0
 448.33203125 547.334960938 454.999023438 578.66796875 454.999023438 618.000976562 c 0
 454.999023438 688.502929688 432.34765625 729.000976562 364.999023438 729.000976562 c 0
 299.147460938 729.000976562 245.999023438 689.598632812 245.999023438 626.000976562 c 0
 245.999023438 585.801757812 268.41796875 561.000976562 307.999023438 561.000976562 c 1
 297.791015625 539.30859375 271.446289062 523.000976562 239.999023438 523.000976562 c 0
 187.560546875 523.000976562 154.999023438 562.424804688 154.999023438 616.000976562 c 0
 154.999023438 669.506835938 183.978515625 707.950195312 216.999023438 733.000976562 c 0
 254.170898438 761.200195312 308.625976562 780.000976562 372.999023438 780.000976562 c 0
 480.139648438 780.000976562 564.999023438 728.305664062 564.999023438 626.000976562 c 0xfe80
 564.999023438 571.552734375 540.090820312 527.59765625 512.499023438 495.500976562 c 0
 481.557617188 459.508789062 436.811523438 429.509765625 383.998046875 417.000976562 c 1
 383.998046875 411.000976562 l 1
 465.5625 389.723632812 528.998046875 331.611328125 528.998046875 235.000976562 c 0
 528.998046875 157.396484375 487.758789062 99.6953125 441.498046875 62.0009765625 c 0
 391.848632812 21.5458984375 317.805664062 -9.9990234375 230.998046875 -9.9990234375 c 0
 141.341796875 -9.9990234375 69.783203125 23.0087890625 38.998046875 81.5009765625 c 0
 28.998046875 100.500976562 23.998046875 121.66796875 23.998046875 145.000976562 c 0
 23.998046875 206.263671875 57.6591796875 252.545898438 99.498046875 273.000976562 c 0
 114.498046875 280.333984375 130.331054688 284.000976562 146.998046875 284.000976562 c 0
 180.315429688 284.000976562 209.532226562 267.333007812 214.999023438 240.000976562 c 1
 171.758789062 240.000976562 144.15234375 207.0546875 131.5 175.000976562 c 0
 126.5 162.333984375 124 148.666992188 124 134 c 0xff
EndSplineSet
Substitution2: "'sups' Superscript in Latin lookup 4 subtable" uni00B3
Substitution2: "'sinf' Scientific Inferiors in Latin lookup 3 subtable" uni2083
EndChar

StartChar: four
Encoding: 52 52 21
Width: 578
GlyphClass: 2
Flags: MW
HStem: 0 21G<236 340 236 236> 285 61<117 308 424 532> 760 20G<491 535 535 535>
LayerCount: 2
Fore
SplineSet
424 346 m 1
 547 346 l 1
 532 285 l 1
 409 285 l 1
 340 0 l 1
 236 0 l 1
 308 285 l 1
 13 285 l 1
 26 336 l 1
 491 780 l 1
 535 780 l 1
 424 346 l 1
325 346 m 1
 397 608 l 1
 394 609 l 1
 117 346 l 1
 325 346 l 1
EndSplineSet
Substitution2: "'sups' Superscript in Latin lookup 4 subtable" uni2074
Substitution2: "'sinf' Scientific Inferiors in Latin lookup 3 subtable" uni2084
EndChar

StartChar: five
Encoding: 53 53 22
Width: 610
GlyphClass: 2
Flags: MW
HStem: -10 52 240 44<129.667 202> 441 50 661 101<392.553 449.154 388.196 461> 760 20G<255 255 591 591>
VStem: 31 95 435 118
LayerCount: 2
Fore
SplineSet
417 661 m 0xf6
 368.10546875 661 318.903320312 668.772460938 277.999023438 678.999023438 c 1
 210.999023438 481.999023438 l 1
 214.999023438 475.999023438 l 1
 241.413085938 487.319335938 281.739257812 490.999023438 317.999023438 490.999023438 c 0
 427.748046875 490.999023438 502.256835938 434.881835938 535.499023438 356.999023438 c 0
 547.166015625 329.666015625 552.999023438 299.999023438 552.999023438 267.999023438 c 0
 552.999023438 181.845703125 509.49609375 114.665039062 459.999023438 71.4990234375 c 0
 407.752929688 25.935546875 330.616210938 -10.0009765625 236.999023438 -10.0009765625 c 0
 145.815429688 -10.0009765625 75.3837890625 22.6982421875 45.4990234375 83.4990234375 c 0
 35.83203125 103.166015625 30.9990234375 124.999023438 30.9990234375 148.999023438 c 0
 30.9990234375 206.770507812 59.0283203125 251.595703125 95.9990234375 273 c 0
 108.666015625 280.333007812 122.333007812 284 137 284 c 0
 168.18359375 284 196.625 265.530273438 202 240 c 1
 155.271484375 240 126 194.041992188 126 145 c 0
 126 78.2548828125 174.559570312 42 243 42 c 0
 305.559570312 42 350.603515625 72.568359375 380.5 109.5 c 0
 413.086914062 149.754882812 435 208.454101562 435 280 c 0
 435 379.78515625 391.755859375 441 295 441 c 0
 233.45703125 441 196.67578125 416.963867188 163.5 391 c 0
 155.833007812 385 149 382 143 382 c 0
 134.041015625 382 128 389.453125 128 399 c 0
 128 403.666992188 128.666992188 408 130 412 c 2
 255 780 l 1xee
 295.600585938 766.466796875 358.392578125 762 418 762 c 0xf6
 480.307617188 762 542.452148438 766.271484375 585 781 c 1
 591 780 l 1xee
 563 700.666992188 505 661 417 661 c 0xf6
EndSplineSet
Substitution2: "'sups' Superscript in Latin lookup 4 subtable" uni2075
Substitution2: "'sinf' Scientific Inferiors in Latin lookup 3 subtable" uni2085
EndChar

StartChar: six
Encoding: 54 54 23
Width: 635
GlyphClass: 2
Flags: MW
HStem: -10 45 439 49<326 368.002> 735 45
VStem: 71 101 440 119 521 103<656 680.667 656 692.054>
LayerCount: 2
Fore
SplineSet
521 671 m 0xf4
 521 713.107421875 510.017578125 735.000976562 468.001953125 735.000976562 c 0
 401.55859375 735.000976562 351.7578125 694.935546875 315.500976562 655.000976562 c 0
 268.103515625 602.794921875 230.561523438 530.959960938 210 450 c 1
 213 448 l 1
 256.333007812 474.666992188 302 488 350 488 c 0
 450.326171875 488 515.540039062 437.547851562 544 364.5 c 0
 554 338.833007812 559 310.333007812 559 279 c 0xf8
 559 193.15625 520.69921875 122.96484375 476 76.5009765625 c 0
 432.182617188 30.9541015625 367.0390625 -9.9990234375 284 -9.9990234375 c 0
 171.279296875 -9.9990234375 112.123046875 63.8134765625 86 153.500976562 c 0
 76 187.833984375 71 226.666992188 71 270 c 0
 71 414.094726562 126.057617188 539.001953125 192.5 624.000976562 c 0
 229.5 671.333984375 271.833007812 709.166992188 319.5 737.5 c 0
 367.166992188 765.833007812 416.666992188 780 468 780 c 0
 533.955078125 780 586.958984375 756.19140625 612 715.5 c 0
 620 702.5 624 688.333007812 624 673 c 0
 624 638.999023438 603.737304688 616 570 616 c 0
 538.602539062 616 521 637.361328125 521 671 c 0xf4
172.001953125 202.000976562 m 0
 172.001953125 112.033203125 196.915039062 34.9990234375 278.001953125 34.9990234375 c 0
 332.209960938 34.9990234375 370.118164062 70.0205078125 393.501953125 106.999023438 c 0
 421.454101562 151.203125 440.001953125 213.404296875 440.001953125 285 c 0
 440.001953125 387.666992188 404.001953125 439 332.001953125 439 c 0
 277.076171875 439 240.0625 409.518554688 216.001953125 374 c 0
 187.950195312 332.590820312 172.001953125 271.860351562 172.001953125 202.000976562 c 0
EndSplineSet
Substitution2: "'sups' Superscript in Latin lookup 4 subtable" uni2076
Substitution2: "'sinf' Scientific Inferiors in Latin lookup 3 subtable" uni2086
EndChar

StartChar: seven
Encoding: 55 55 24
Width: 524
GlyphClass: 2
Flags: MW
HStem: -10 21G<96.644 123.488> 680 90
LayerCount: 2
Fore
SplineSet
110 -10 m 0
 83.2880859375 -10 62.001953125 4.7802734375 62.001953125 30.9990234375 c 0
 62.001953125 37.666015625 63.8349609375 45.3330078125 67.501953125 54 c 0
 71.1689453125 62.6669921875 78.501953125 75.6669921875 89.501953125 93 c 0
 128.970703125 155.193359375 165.321289062 205.627929688 218.001953125 280.000976562 c 2
 499.001953125 680.000976562 l 1
 313.001953125 680.000976562 l 2
 253.840820312 680.000976562 214.33203125 679.239257812 189.001953125 647.000976562 c 0
 181.668945312 637.66796875 173.668945312 624.66796875 165.001953125 608.000976562 c 2
 144.001953125 569.000976562 l 1
 101.001953125 569.000976562 l 1
 194.001953125 806.000976562 l 1
 224.001953125 806.000976562 l 2
 224.001953125 802.724609375 223.001953125 801.78515625 223.001953125 798.000976562 c 0
 223.001953125 770.780273438 259.676757812 770.000976562 296.001953125 770.000976562 c 2
 599.001953125 770.000976562 l 1
 596.001953125 750.000976562 l 1
 510.9453125 625.251953125 437.278320312 488.309570312 358.000976562 345.000976562 c 0
 323.333984375 282.333984375 284.666992188 212.666992188 242 136 c 0
 216.310546875 89.9736328125 196.206054688 51.626953125 167 19.5 c 0
 151.342773438 2.27734375 136.975585938 -10 110 -10 c 0
EndSplineSet
Substitution2: "'sups' Superscript in Latin lookup 4 subtable" uni2077
Substitution2: "'sinf' Scientific Inferiors in Latin lookup 3 subtable" uni2087
EndChar

StartChar: eight
Encoding: 56 56 25
Width: 639
GlyphClass: 2
Flags: MW
HStem: -10 53<229.518 286> 728 52
VStem: 43 101<132.213 222.333 132.213 236> 146 104<599.667 608.99> 439 104<181 208.333> 502 95
LayerCount: 2
Fore
SplineSet
253 404 m 1xf8
 197.83984375 441.126953125 146 496.075195312 146 577 c 0
 146 640.98046875 181.448242188 689.263671875 219.5 720.5 c 0
 260.416992188 754.088867188 320.454101562 780 392 780 c 0
 481.627929688 780 550.471679688 741.5546875 581.5 682.5 c 0
 591.833007812 662.833007812 597 641.666015625 597 618.999023438 c 0xf4
 597 567.684570312 572.013671875 526.135742188 544.5 497.499023438 c 0
 513.396484375 465.125976562 468.491210938 438.668945312 416 429 c 1
 460.666992188 401 493 369.666992188 513 335 c 0
 533 300.333007812 543 262.666015625 543 221.999023438 c 0
 543 105.047851562 466.362304688 38.1630859375 377 7.5 c 0
 343 -4.1669921875 306 -10 266 -10 c 0
 134.103515625 -10 43 54.173828125 43 182 c 0
 43 290 113 364 253 404 c 1xf8
144 175 m 0
 144 89.4267578125 187.036132812 43 271.999023438 43 c 0
 349.227539062 43 401.912109375 78.890625 426.5 132 c 0
 434.833007812 150 439 170 439 192 c 0xf8
 439 224.666992188 430.833007812 253.5 414.5 278.5 c 0
 398.166992188 303.5 374 327 342 349 c 2
 290 383 l 1
 192.666992188 339 144 269.666992188 144 175 c 0
501.999023438 615 m 0xf4
 501.999023438 684.083007812 455.684570312 727.999023438 384 727.999023438 c 0
 323.541015625 727.999023438 280.5703125 699.595703125 260.5 658.499023438 c 0
 253.5 644.166015625 250 628.333007812 250 611 c 0
 250 588.333007812 257.166992188 565 271.5 541 c 0
 285.833007812 517 307.666015625 495.333007812 336.999023438 476 c 2
 377.999023438 450 l 1
 417.999023438 471.333007812 448.666015625 495.5 469.999023438 522.5 c 0
 491.33203125 549.5 501.999023438 580.333007812 501.999023438 615 c 0xf4
EndSplineSet
Substitution2: "'sups' Superscript in Latin lookup 4 subtable" uni2078
Substitution2: "'sinf' Scientific Inferiors in Latin lookup 3 subtable" uni2088
EndChar

StartChar: nine
Encoding: 57 57 26
Width: 634
GlyphClass: 2
Flags: MW
HStem: -10 45 292 49 735 45
VStem: 48 103<89.3335 114> 113 119 500 101
LayerCount: 2
Fore
SplineSet
151 99 m 0xf4
 151 56.892578125 161.985351562 35.0009765625 204.000976562 35.0009765625 c 0
 270.594726562 35.0009765625 320.54296875 77.353515625 356.5 118.000976562 c 0
 404.346679688 172.087890625 440.362304688 247.26953125 462 330.000976562 c 1
 459 332.000976562 l 1
 415.666992188 305.333984375 370 292.000976562 322 292.000976562 c 0
 221.673828125 292.000976562 156.459960938 342.453125 128 415.500976562 c 0
 118 441.16796875 113 469.66796875 113 501.000976562 c 0xec
 113 584.561523438 151.674804688 651.591796875 196 696.500976562 c 0
 240.10546875 741.1875 305.260742188 780.000976562 388 780.000976562 c 0
 500.920898438 780.000976562 560.004882812 706.118164062 586 616.000976562 c 0
 596 581.333984375 601 542.666992188 601 500 c 0
 601 355.905273438 545.942382812 230.998046875 479.5 145.999023438 c 0
 442.5 98.666015625 400.166992188 60.8330078125 352.5 32.5 c 0
 304.833007812 4.1669921875 255.333007812 -10 204 -10 c 0
 138.044921875 -10 85.041015625 13.80859375 60 54.5 c 0
 52 67.5 48 81.6669921875 48 97 c 0
 48 131.000976562 68.2626953125 154 102 154 c 0
 133.397460938 154 151 132.638671875 151 99 c 0xf4
500.000976562 568.000976562 m 0
 500.000976562 657.96875 475.087890625 735.001953125 394.000976562 735.001953125 c 0
 339.466796875 735.001953125 302.39453125 701.620117188 278.500976562 665.501953125 c 0
 250.659179688 623.415039062 232.000976562 564.211914062 232.000976562 495.000976562 c 0
 232.000976562 392.333984375 268.000976562 341.000976562 340.000976562 341.000976562 c 0
 394.30078125 341.000976562 431.685546875 369.342773438 456.000976562 403.500976562 c 0
 483.963867188 442.782226562 500.000976562 500.508789062 500.000976562 568.000976562 c 0
EndSplineSet
Substitution2: "'sups' Superscript in Latin lookup 4 subtable" uni2079
Substitution2: "'sinf' Scientific Inferiors in Latin lookup 3 subtable" uni2089
EndChar

StartChar: colon
Encoding: 58 58 27
Width: 304
GlyphClass: 2
Flags: MW
HStem: -10 140<64.9644 103.164> 300 140<146.964 185.164>
VStem: 15 140<39.8101 77.5728> 97 140<349.81 387.573>
LayerCount: 2
Fore
SplineSet
155 59 m 0xe0
 155 20.6201171875 122.327148438 -10 84 -10 c 0
 45.9287109375 -10 15 19.2548828125 15 58 c 0
 15 97.1455078125 45.099609375 130 84 130 c 0
 124.047851562 130 155 98.3984375 155 59 c 0xe0
237 369 m 0xd0
 237 330.620117188 204.327148438 300 166 300 c 0
 127.928710938 300 97 329.254882812 97 368 c 0
 97 407.145507812 127.099609375 440 166 440 c 0
 206.047851562 440 237 408.3984375 237 369 c 0xd0
EndSplineSet
EndChar

StartChar: semicolon
Encoding: 59 59 28
Width: 306
GlyphClass: 2
Flags: MW
HStem: 0 130<64.5498 69> 300 140<146.964 185.164>
VStem: 87 68<-6.6665 78.7002> 97 140<349.81 387.573>
LayerCount: 2
Fore
SplineSet
237 369 m 0xd0
 237 330.620117188 204.327148438 300 166 300 c 0
 127.928710938 300 97 329.254882812 97 368 c 0
 97 407.145507812 127.099609375 440 166 440 c 0
 206.047851562 440 237 408.3984375 237 369 c 0xd0
84 130 m 0
 124.047851562 130 155 98.3994140625 155 59.0009765625 c 0
 155 21.66796875 141.666992188 -17.6650390625 115 -58.998046875 c 0
 88.3330078125 -100.331054688 50 -138.998046875 0 -174.998046875 c 1
 -23 -142.998046875 l 1
 13 -117.665039062 40.3330078125 -91.83203125 59 -65.4990234375 c 0
 77.6669921875 -39.166015625 87 -16.3330078125 87 3 c 1xe0
 79 1 72 0 66 0 c 0
 31.3076171875 0 15 23.490234375 15 58 c 0
 15 97.1455078125 45.099609375 130 84 130 c 0
EndSplineSet
EndChar

StartChar: less
Encoding: 60 60 29
Width: 618
GlyphClass: 2
Flags: W
LayerCount: 2
Fore
SplineSet
514 126 m 1
 514 72 l 1
 56 304 l 1
 56 368 l 1
 514 600 l 1
 514 544 l 1
 101 336 l 1
 514 126 l 1
EndSplineSet
EndChar

StartChar: equal
Encoding: 61 61 30
Width: 637
GlyphClass: 2
Flags: MW
HStem: 252 50<84 524 70 538> 422 50<134 574 120 588>
LayerCount: 2
Fore
SplineSet
524 252 m 1
 70 252 l 1
 84 302 l 1
 538 302 l 1
 524 252 l 1
574 422 m 1
 120 422 l 1
 134 472 l 1
 588 472 l 1
 574 422 l 1
EndSplineSet
EndChar

StartChar: greater
Encoding: 62 62 31
Width: 621
GlyphClass: 2
Flags: W
LayerCount: 2
Fore
SplineSet
535 336 m 1
 122 544 l 1
 122 600 l 1
 580 368 l 1
 580 304 l 1
 122 72 l 1
 122 126 l 1
 535 336 l 1
EndSplineSet
EndChar

StartChar: question
Encoding: 63 63 32
Width: 468
GlyphClass: 2
Flags: MW
HStem: -10 126<178.545 212.599> 191 43<226.666 256.333> 533 89.5 733 48
VStem: 133 126<34.7974 69.1763 34.5356 69.603> 134 81 142 54 422 64
LayerCount: 2
Fore
SplineSet
259 52 m 0xf9
 259 17.0712890625 230.198242188 -10 195 -10 c 0
 160.59375 -10 133 17.5947265625 133 52 c 0xf9
 133 87.2060546875 161.090820312 116 196 116 c 0xf3
 230.379882812 116 259 86.3525390625 259 52 c 0xf9
232 191 m 0
 171.421875 191 141.999023438 228.23828125 141.999023438 289.999023438 c 0xf3
 141.999023438 358.489257812 175.994140625 400.994140625 214.499023438 433.999023438 c 0
 272.830078125 483.997070312 354.635742188 518.5625 401.499023438 577.999023438 c 0
 415.166015625 595.33203125 421.999023438 615.33203125 421.999023438 637.999023438 c 0
 421.999023438 696.669921875 374.333007812 732.999023438 313.999023438 732.999023438 c 0
 264.459960938 732.999023438 214.999023438 707.033203125 214.999023438 659.999023438 c 0
 214.999023438 633.865234375 231.44140625 628.922851562 249.999023438 622.499023438 c 0
 269.576171875 615.72265625 284.999023438 610.15234375 284.999023438 582 c 0
 284.999023438 549.940429688 262.943359375 533 229.999023438 533 c 0
 174.666015625 533 133.999023438 578.147460938 133.999023438 634 c 0xf5
 133.999023438 680.341796875 159.916992188 715.53515625 187.999023438 738 c 0
 218.872070312 762.69921875 265.250976562 781 318.998046875 781 c 0
 398.8359375 781 450.737304688 743.682617188 473.998046875 686.5 c 0
 481.998046875 666.833007812 485.998046875 645 485.998046875 621 c 0
 485.998046875 548.541992188 450.250976562 501.686523438 410.998046875 465.5 c 0
 353.482421875 412.477539062 270.064453125 378.510742188 217.499023438 323.5 c 0
 203.166015625 308.5 195.999023438 292 195.999023438 274 c 0xf3
 195.999023438 247.333007812 211.33203125 234 241.999023438 234 c 0
 272.666015625 234 297.333007812 251 316 285 c 1
 343 269 l 1
 317.666992188 217 280.666992188 191 232 191 c 0
EndSplineSet
EndChar

StartChar: at
Encoding: 64 64 33
Width: 1030
GlyphClass: 2
Flags: MW
HStem: -134 48 77 45<440.665 473.665 440.665 485.983> 498 42<544.514 598.847> 735 45
VStem: 66 91 298 98 935 45
LayerCount: 2
Fore
SplineSet
616 192 m 1
 583.881835938 138.125 523.967773438 77 447.999023438 77 c 0
 374.888671875 77 329.573242188 124.51171875 309.498046875 179.5 c 0
 301.831054688 200.5 297.998046875 223.333007812 297.998046875 248 c 0
 297.998046875 331.29296875 338.646484375 402.1484375 381.498046875 449 c 0
 422.786132812 494.141601562 485.591796875 540 563.998046875 540 c 0
 634.690429688 540 664.516601562 502.040039062 680.998046875 442 c 1
 683.998046875 441 l 1
 706.998046875 530 l 1
 802.998046875 530 l 1
 735.998046875 293 l 2
 728.665039062 266.333007812 722.498046875 241.166015625 717.498046875 217.499023438 c 0
 712.498046875 193.83203125 709.998046875 176.999023438 709.998046875 166.999023438 c 0
 709.998046875 141.224609375 727.984375 126.999023438 753.998046875 126.999023438 c 0
 775.998046875 126.999023438 797.831054688 135.499023438 819.498046875 152.499023438 c 0
 865.548828125 188.630859375 899.1171875 248.265625 918.998046875 313.499023438 c 0
 929.665039062 348.499023438 934.998046875 383.999023438 934.998046875 419.999023438 c 0
 934.998046875 519.801757812 890.959960938 594.904296875 835.498046875 644.999023438 c 0
 777.512695312 697.373046875 691.975585938 734.999023438 584.998046875 734.999023438 c 0
 453.389648438 734.999023438 349.276367188 679.473632812 280.498046875 609.499023438 c 0
 211.05859375 538.852539062 156.998046875 432.505859375 156.998046875 299 c 0
 156.998046875 176.125976562 203.721679688 82.587890625 269.498046875 20.5 c 0
 336.813476562 -43.041015625 436.6875 -86 563.998046875 -86 c 0
 676.665039062 -86 781.33203125 -52.6669921875 877.999023438 14 c 1
 898.999023438 -17 l 1
 840.33203125 -57.6669921875 783.33203125 -87.333984375 727.999023438 -106.000976562 c 0
 672.666015625 -124.66796875 613.666015625 -134.000976562 550.999023438 -134.000976562 c 0
 401.754882812 -134.000976562 282.661132812 -84.970703125 201.999023438 -12.5009765625 c 0
 125.025390625 56.6552734375 65.9990234375 161.303710938 65.9990234375 299.998046875 c 0
 65.9990234375 449.338867188 132.284179688 565.198242188 214.499023438 641.499023438 c 0
 299.0234375 719.943359375 423.1953125 779.999023438 578.999023438 779.999023438 c 0
 703.587890625 779.999023438 801.536132812 740.82421875 868.999023438 680.999023438 c 0
 933.442382812 623.8515625 979.999023438 537.918945312 979.999023438 422 c 0
 979.999023438 324.129882812 947.014648438 238.87890625 903.999023438 180.5 c 0
 865.892578125 128.783203125 806.8203125 77 726 77 c 0
 660.666992188 77 625 115 619 191 c 1
 616 192 l 1
647.999023438 394 m 0
 647.999023438 451.493164062 625.697265625 498 571.997070312 498 c 0
 517.03125 498 476.165039062 451.25390625 450.998046875 413 c 0
 420.708007812 366.958984375 395.998046875 300.186523438 395.998046875 227 c 0
 395.998046875 157 418.331054688 122 462.998046875 122 c 0
 484.331054688 122 505.998046875 130.166992188 527.998046875 146.5 c 0
 574.05078125 180.690429688 609.590820312 236.424804688 630.999023438 297.5 c 0
 642.33203125 329.833007812 647.999023438 362 647.999023438 394 c 0
EndSplineSet
EndChar

StartChar: A
Encoding: 65 65 34
Width: 763
GlyphClass: 2
Flags: MW
HStem: 0 40<-98 -76.3369 140.407 151 -108 -76.3369 336.001 366.647 613.667 622.001> 290 50<310 482 267 491> 760 20G<606 690 690 690>
LayerCount: 2
Fore
SplineSet
86 74 m 0
 86 41.302734375 119.813476562 40 161 40 c 1
 151 0 l 1
 -108 0 l 1
 -98 40 l 1
 -54.673828125 40 -28.3388671875 57.966796875 1.5 81 c 0
 20.5 95.6669921875 41.5 115.166992188 64.5 139.5 c 0
 87.5 163.833007812 114.333007812 194.333007812 145 231 c 2
 606 780 l 1
 690 780 l 1
 551 166 l 2
 543 130.666992188 539 105 539 89 c 0
 539 69.6669921875 545.333007812 56.6669921875 558 50 c 0
 570.666992188 43.3330078125 595.333984375 40 632.000976562 40 c 1
 622.000976562 0 l 1
 326.000976562 0 l 1
 336.000976562 40 l 1
 397.293945312 40 420.499023438 55.1630859375 437 101 c 0
 443 117.666992188 449 139.666992188 455 167 c 2
 482 290 l 1
 267 290 l 1
 204 224 l 2
 161.783203125 179.723632812 133.4453125 151.260742188 104 112 c 0
 92.8984375 97.197265625 86 90.2451171875 86 74 c 0
491 340 m 1
 573 650 l 1
 569 650 l 1
 310 340 l 1
 491 340 l 1
EndSplineSet
Substitution2: "Single Substitution lookup 7 subtable" ordfeminine
Substitution2: "'ss01' Style Set 1 in Latin lookup 6 subtable" A.ss01
EndChar

StartChar: B
Encoding: 66 66 35
Width: 736
GlyphClass: 2
Flags: MW
HStem: 0 45<279.328 337.003> 385 51<293.004 337.001 280.001 367.004> 725 45<397.107 433.001 433.001 472.068>
VStem: 537 117 580 106
LayerCount: 2
Fore
SplineSet
537 239 m 0xf0
 537 351.697265625 458.020507812 385 337.000976562 385 c 2
 280.000976562 385 l 1
 231.000976562 207 l 2
 223.334960938 184.001953125 217.153320312 154.052734375 212.500976562 128 c 0
 210.833984375 118.666992188 210.000976562 111 210.000976562 105 c 0
 210.000976562 55.1552734375 254.654296875 45 304.000976562 45 c 0
 411.298828125 45 489.108398438 87.3115234375 521.5 161.5 c 0
 531.833007812 185.166992188 537 211 537 239 c 0xf0
474.000976562 407 m 1
 574.857421875 386.370117188 654.002929688 332.598632812 654.002929688 221 c 0xf0
 654.002929688 144.59375 612.834960938 92.63671875 564.002929688 59.5 c 0
 508.791015625 22.0341796875 429.409179688 0 337.002929688 0 c 2
 -28.9970703125 0 l 1
 -17.9970703125 40 l 1
 45.087890625 40 74.5986328125 52.91015625 95.001953125 96.5 c 0
 102.334960938 112.166992188 109.66796875 133 117.000976562 159 c 2
 235.000976562 600 l 2
 242.333984375 629.333007812 246.000976562 652.333007812 246.000976562 669 c 0
 246.000976562 720.916015625 211.432617188 730 154.000976562 730 c 1
 165.000976562 770 l 1
 433.000976562 770 l 2
 535.732421875 770 619.354492188 744.006835938 662.500976562 682.5 c 0
 678.16796875 660.166992188 686.000976562 631.666992188 686.000976562 597 c 0xe8
 686.000976562 530.04296875 655.025390625 488.258789062 615.000976562 460.5 c 0
 577.825195312 434.716796875 526.247070312 418.463867188 474.000976562 411 c 1
 474.000976562 407 l 1
580.002929688 602 m 0xe8
 580.002929688 698.5703125 524.1328125 725 420.00390625 725 c 0
 374.2109375 725 360.23828125 688.91796875 349.00390625 645 c 2
 293.00390625 436 l 1
 367.00390625 436 l 2
 461.56640625 436 532.717773438 471.954101562 564.502929688 534.5 c 0
 574.8359375 554.833007812 580.002929688 577.333007812 580.002929688 602 c 0xe8
EndSplineSet
EndChar

StartChar: C
Encoding: 67 67 36
Width: 728
GlyphClass: 2
Flags: MW
HStem: -10 62<322.666 399.215> 728 52<454.849 536.541 433.438 565.621> 750 20G<715 752 752 752>
VStem: 73 121 668 38<519 519>
LayerCount: 2
Fore
SplineSet
668 519 m 1xb8
 658.948242188 642.33203125 625.243164062 728 505.999023438 728 c 0
 403.69921875 728 331.053710938 668.98046875 283.999023438 604 c 0
 230.6875 530.379882812 193.999023438 424.360351562 193.999023438 300 c 0
 193.999023438 134.666992188 258.33203125 52 386.999023438 52 c 0
 434.999023438 52 478.499023438 65 517.499023438 91 c 0
 556.499023438 117 593.666015625 157.666992188 628.999023438 213 c 1
 664.999023438 189 l 1
 624.139648438 127.127929688 583.6484375 73.7666015625 526.999023438 36 c 0
 483.284179688 6.8564453125 433.430664062 -10 365 -10 c 0
 219.471679688 -10 132.211914062 62.9169921875 93.5 171.5 c 0
 79.8330078125 209.833007812 73 253 73 301 c 0
 73 440.55078125 132.1640625 556.775390625 201.5 635 c 0
 267.495117188 709.456054688 368.876953125 780 498 780 c 0xd8
 575.081054688 780 626.8046875 755.267578125 678 720 c 1
 715 770 l 1
 752 770 l 1
 706 519 l 1
 668 519 l 1xb8
EndSplineSet
EndChar

StartChar: D
Encoding: 68 68 37
Width: 836
GlyphClass: 2
Flags: MW
HStem: 0 44 720 50 730 40
VStem: 681 116
LayerCount: 2
Fore
SplineSet
254 688 m 0xd0
 254 725.762695312 208.806640625 729.999023438 171 729.999023438 c 2
 152 729.999023438 l 1
 165 769.999023438 l 1xb0
 436 769.999023438 l 2
 602.045898438 769.999023438 722.6640625 701.41015625 771.000976562 581.499023438 c 0
 788.333984375 538.499023438 797.000976562 493.666015625 797.000976562 446.999023438 c 0
 797.000976562 341.05859375 758.017578125 253.963867188 713.500976562 188.499023438 c 0
 632.078125 68.759765625 511.162109375 -0.0009765625 321.000976562 -0.0009765625 c 2
 -28.9990234375 -0.0009765625 l 1
 -17.9990234375 39.9990234375 l 1
 46.513671875 39.9990234375 76.2041015625 51.5400390625 96.5 95.9990234375 c 0
 103.5 111.33203125 110.333007812 131.999023438 117 157.999023438 c 2
 232 599.999023438 l 2
 239.383789062 625.84375 254 656.421875 254 688 c 0xd0
681 456.999023438 m 0
 681 620.510742188 588.983398438 719.999023438 427.998046875 719.999023438 c 0xd0
 382.146484375 719.999023438 365.731445312 709.544921875 354.999023438 668.999023438 c 2
 236.999023438 230.999023438 l 2
 226.838867188 192.896484375 218.177734375 166.244140625 213 129.999023438 c 0
 212.333007812 125.33203125 212 121.33203125 212 117.999023438 c 0
 212 60.8447265625 256.646484375 43.9990234375 312 43.9990234375 c 0
 490.137695312 43.9990234375 590.421875 145.788085938 643.5 270.999023438 c 0
 666.186523438 324.514648438 681 386.826171875 681 456.999023438 c 0
EndSplineSet
EndChar

StartChar: E
Encoding: 69 69 38
Width: 740
GlyphClass: 2
Flags: MW
HStem: 0 43 385 44 726 44<370 500 370 370>
VStem: 431 40<247 247> 668 38<568 770>
LayerCount: 2
Fore
SplineSet
434 299 m 0
 434 359.62890625 415.170898438 385.000976562 354 385.000976562 c 2
 279 385.000976562 l 1
 222 170.000976562 l 2
 216 148.000976562 213 129.333984375 213 114.000976562 c 0
 213 90.0009765625 223.666992188 72.16796875 245 60.5009765625 c 0
 266.333007812 48.833984375 303 43.0009765625 355 43.0009765625 c 0
 465.845703125 43.0009765625 536.756835938 68.3505859375 583.5 132.000976562 c 0
 599.166992188 153.333984375 614 179.666992188 628 211 c 1
 675 211 l 1
 597 0 l 1
 -26 0 l 1
 -15 40 l 1
 49.8759765625 40 80.0986328125 54.72265625 100 99.5 c 0
 106.666992188 114.5 113 134 119 158 c 2
 235 599 l 2
 242.34765625 626.29296875 249 648.986328125 249 677 c 0
 249 699 241.333007812 713.333007812 226 720 c 0
 210.666992188 726.666992188 185 730 149 730 c 1
 160 770 l 1
 706 770 l 1
 706 568 l 1
 668 568 l 1
 643.528320312 658.356445312 610.28515625 726 500 726 c 2
 370 726 l 1
 292 429 l 1
 355 429 l 2
 443.532226562 429 465.08984375 479.758789062 494 543 c 1
 531 543 l 1
 471 247 l 1
 431 247 l 1
 433 267 434 284.333007812 434 299 c 0
EndSplineSet
EndChar

StartChar: F
Encoding: 70 70 39
Width: 659
GlyphClass: 2
Flags: MW
HStem: 0 43<299.174 324> 385 44<292 359 279 360> 726 44<370 500 370 370>
VStem: 426 40<227 227> 499 37<543 543> 668 38<568 770>
LayerCount: 2
Fore
SplineSet
213 114 m 0
 213 53.724609375 263.348632812 43 335 43 c 1
 324 0 l 1
 -26 0 l 1
 -15 40 l 1
 49.8759765625 40 80.0986328125 54.72265625 100 99.5 c 0
 106.666992188 114.5 113 134 119 158 c 2
 235 599 l 2
 242.34765625 626.29296875 249 648.986328125 249 677 c 0
 249 699 241.333007812 713.333007812 226 720 c 0
 210.666992188 726.666992188 185 730 149 730 c 1
 160 770 l 1
 706 770 l 1
 706 568 l 1
 668 568 l 1
 643.528320312 658.356445312 610.28515625 726 500 726 c 2
 370 726 l 1
 292 429 l 1
 360 429 l 2
 448.532226562 429 470.08984375 479.758789062 499 543 c 1
 536 543 l 1
 466 227 l 1
 426 227 l 1
 428 251 429 271.666992188 429 289 c 0
 429 350.012695312 416.741210938 385 359 385 c 2
 279 385 l 1
 222 170 l 2
 216 148 213 129.333007812 213 114 c 0
EndSplineSet
EndChar

StartChar: G
Encoding: 71 71 40
Width: 809
GlyphClass: 2
Flags: MW
HStem: -10 54<322.668 398.774> 300 39<506.002 528.036 754.905 770.002> 728 52<472.301 560.274 450.908 589.428> 750 20G<755 792 792 792>
VStem: 73 121 582 61 718 38<550 550>
LayerCount: 2
Fore
SplineSet
718 550 m 1xde
 705.225585938 667.520507812 652.85546875 728 526.000976562 728 c 0
 418.600585938 728 341.048828125 669.793945312 290.001953125 604 c 0
 233.530273438 531.213867188 194.001953125 425.813476562 194.001953125 300 c 0
 194.001953125 129.333007812 258.334960938 44 387.001953125 44 c 0
 476.538085938 44 539.848632812 82.0654296875 567.501953125 145 c 0
 577.168945312 167 582.001953125 192.666992188 582.001953125 222 c 0
 582.001953125 280.2890625 559.069335938 300 497.001953125 300 c 1
 506.001953125 339 l 1
 780.001953125 339 l 1
 770.001953125 300 l 1
 739.80859375 300 723.171875 297.889648438 709.001953125 280.5 c 0
 701.668945312 271.5 694.668945312 258 688.001953125 240 c 0
 676.498046875 208.938476562 660.58984375 147.904296875 651.001953125 107.5 c 0
 646.334960938 87.8330078125 643.66796875 68.3330078125 643.000976562 49 c 1
 605.67578125 42.5087890625 574.0859375 27.564453125 536.500976562 16 c 0
 487.708007812 0.986328125 432.547851562 -10 365.000976562 -10 c 0
 219.47265625 -10 132.212890625 62.9169921875 93.5009765625 171.5 c 0
 79.833984375 209.833007812 73.0009765625 253 73.0009765625 301 c 0
 73.0009765625 441.836914062 135.272460938 557.486328125 207.500976562 635 c 0
 277.55078125 710.17578125 383.815429688 780 518 780 c 0xee
 602.547851562 780 660.93359375 756.103515625 718 720 c 1
 755 770 l 1
 792 770 l 1
 756 550 l 1
 718 550 l 1xde
EndSplineSet
EndChar

StartChar: H
Encoding: 72 72 41
Width: 911
GlyphClass: 2
Flags: MW
HStem: 0 40 367 51 730 40
LayerCount: 2
Fore
SplineSet
212 98 m 0
 212 46.69921875 247.604492188 39.99609375 304.00390625 39.99609375 c 1
 291.00390625 -0.00390625 l 1
 -27.99609375 -0.00390625 l 1
 -16.99609375 39.99609375 l 1
 45.7451171875 39.99609375 76.4443359375 55.0087890625 97.0029296875 97.99609375 c 0
 104.3359375 113.329101562 111.3359375 133.329101562 118.002929688 157.99609375 c 2
 235.002929688 599.99609375 l 2
 245.002929688 636.663085938 250.002929688 663.99609375 250.002929688 681.99609375 c 0
 250.002929688 702.663085938 242.502929688 715.830078125 227.502929688 721.497070312 c 0
 212.502929688 727.1640625 187.002929688 729.997070312 151.002929688 729.997070312 c 1
 162.002929688 769.997070312 l 1
 487.002929688 769.997070312 l 1
 476.002929688 729.997070312 l 1
 402.21875 729.997070312 375.862304688 703.678710938 354.501953125 648.997070312 c 0
 346.168945312 627.6640625 337.668945312 599.997070312 329.001953125 565.997070312 c 2
 290.001953125 417.997070312 l 1
 678.001953125 417.997070312 l 1
 726.001953125 599.997070312 l 2
 736.001953125 636.6640625 741.001953125 663.997070312 741.001953125 681.997070312 c 0
 741.001953125 702.6640625 733.501953125 715.831054688 718.501953125 721.498046875 c 0
 703.501953125 727.165039062 678.001953125 729.998046875 642.001953125 729.998046875 c 1
 653.001953125 769.998046875 l 1
 978.001953125 769.998046875 l 1
 967.001953125 729.998046875 l 1
 893.217773438 729.998046875 866.861328125 703.6796875 845.500976562 648.998046875 c 0
 837.16796875 627.665039062 828.66796875 599.998046875 820.000976562 565.998046875 c 2
 715.000976562 167.998046875 l 2
 707.000976562 138.665039062 703.000976562 115.33203125 703.000976562 97.9990234375 c 0
 703.000976562 47.052734375 738.348632812 39.9990234375 794.000976562 39.9990234375 c 1
 782.000976562 -0.0009765625 l 1
 463.000976562 -0.0009765625 l 1
 474.000976562 39.9990234375 l 1
 536.7421875 39.9990234375 567.44140625 55.01171875 588 97.9990234375 c 0
 595.333007812 113.33203125 602.333007812 133.33203125 609 157.999023438 c 2
 664 366.999023438 l 1
 276 366.999023438 l 1
 224 167.999023438 l 2
 216 138.666015625 212 115.333007812 212 98 c 0
EndSplineSet
EndChar

StartChar: I
Encoding: 73 73 42
Width: 420
GlyphClass: 2
Flags: MW
HStem: 0 40 730 40
LayerCount: 2
Fore
SplineSet
212 98 m 0
 212 47.0537109375 247.349609375 39.998046875 303.001953125 39.998046875 c 1
 291.001953125 -0.001953125 l 1
 -27.998046875 -0.001953125 l 1
 -16.998046875 39.998046875 l 1
 45.7431640625 39.998046875 76.4423828125 55.0107421875 97.0009765625 97.998046875 c 0
 104.333984375 113.331054688 111.333984375 133.331054688 118.000976562 157.998046875 c 2
 235.000976562 599.998046875 l 2
 245.000976562 636.665039062 250.000976562 663.998046875 250.000976562 681.998046875 c 0
 250.000976562 702.665039062 242.500976562 715.83203125 227.500976562 721.499023438 c 0
 212.500976562 727.166015625 187.000976562 729.999023438 151.000976562 729.999023438 c 1
 162.000976562 769.999023438 l 1
 487.000976562 769.999023438 l 1
 476.000976562 729.999023438 l 1
 402.216796875 729.999023438 375.860351562 703.680664062 354.5 648.999023438 c 0
 346.166992188 627.666015625 337.666992188 599.999023438 329 565.999023438 c 2
 224 167.999023438 l 2
 216 138.666015625 212 115.333007812 212 98 c 0
EndSplineSet
EndChar

StartChar: J
Encoding: 74 74 43
Width: 543
GlyphClass: 2
Flags: MW
HStem: -10 53<118.564 150.336 118.564 201.825> 730.034 39.9657
VStem: -23 98<75.998 91.3335 72.3506 149.9>
LayerCount: 2
Fore
SplineSet
75 87 m 0
 75 57.701171875 103.125 43 134.002929688 43 c 0
 166.669921875 43 195.669921875 58.6669921875 221.002929688 90 c 0
 246.3359375 121.333007812 266.668945312 165.333007812 282.001953125 222 c 2
 381.001953125 600 l 2
 391.001953125 636.666992188 396.001953125 664 396.001953125 682 c 0
 396.001953125 727.609375 352.0625 730.034179688 304.19140625 730.034179688 c 0
 298.494140625 730.034179688 292.741210938 730 287 730 c 1
 298 770 l 1
 623 770 l 1
 612 730 l 1
 570.431640625 730 545.478515625 723.559570312 526.5 700 c 0
 499.682617188 666.708984375 488.8828125 621.532226562 475 566 c 2
 375 186 l 2
 345.338867188 73.2880859375 268.649414062 -10 135 -10 c 0
 41.1142578125 -10 -23 30.99609375 -23 121 c 0
 -23 178.80078125 9.796875 231 65 231 c 0
 100.248046875 231 127 208.018554688 127 173 c 0
 127 137.5546875 100.6015625 125.6015625 83 108 c 0
 77.6669921875 102.666992188 75 95.6669921875 75 87 c 0
EndSplineSet
EndChar

StartChar: K
Encoding: 75 75 44
Width: 825
GlyphClass: 2
Flags: MW
HStem: 0 40 730 40<161.001 168.001 438.109 475.001 562 574.333 830.667 836>
LayerCount: 2
Fore
SplineSet
211 98 m 0
 211 44.85546875 252.590820312 39.9990234375 313 39.9990234375 c 1
 300 -0.0009765625 l 1
 -19 -0.0009765625 l 1
 -8 39.9990234375 l 1
 51.158203125 39.9990234375 78.7412109375 56.0029296875 97 97.9990234375 c 0
 103.666992188 113.33203125 110.333984375 133.33203125 117.000976562 157.999023438 c 2
 234.000976562 599.999023438 l 2
 244.000976562 636.666015625 249.000976562 663.999023438 249.000976562 681.999023438 c 0
 249.000976562 702.666015625 241.500976562 715.833007812 226.500976562 721.5 c 0
 211.500976562 727.166992188 186.000976562 730 150.000976562 730 c 1
 161.000976562 770 l 1
 486.000976562 770 l 1
 475.000976562 730 l 1
 401.216796875 730 374.860351562 703.681640625 353.5 649 c 0
 345.166992188 627.666992188 336.666992188 600 328 566 c 2
 291 427 l 1
 498 575 l 2
 540 605 570.666992188 630.5 590 651.5 c 0
 609.333007812 672.5 619 689.333007812 619 702 c 0
 619 720.666992188 596.666992188 730 552 730 c 1
 562 770 l 1
 846 770 l 1
 836 730 l 1
 825.333007812 730 814.333007812 727.666992188 803 723 c 0
 791.666992188 718.333007812 776.166992188 709.666015625 756.5 696.999023438 c 0
 736.833007812 684.33203125 711 666.33203125 679 642.999023438 c 0
 647 619.666015625 604.666992188 589.666015625 552 552.999023438 c 2
 398 444.999023438 l 1
 594 186.999023438 l 2
 620.666992188 151.666015625 642.166992188 123.999023438 658.5 103.999023438 c 0
 674.833007812 83.9990234375 688.833007812 69.33203125 700.5 59.9990234375 c 0
 721.34375 43.32421875 734.965820312 39.9990234375 767.999023438 39.9990234375 c 1
 756.999023438 -0.0009765625 l 1
 442.999023438 -0.0009765625 l 1
 453.999023438 39.9990234375 l 1
 487.563476562 39.9990234375 527.999023438 40.380859375 527.999023438 67.9990234375 c 0
 527.999023438 77.33203125 523.33203125 90.4990234375 513.999023438 107.499023438 c 0
 504.666015625 124.499023438 490.333007812 146.33203125 471 172.999023438 c 2
 313 384.999023438 l 1
 273 356.999023438 l 1
 223 167.999023438 l 2
 215 138.666015625 211 115.333007812 211 98 c 0
EndSplineSet
EndChar

StartChar: L
Encoding: 76 76 45
Width: 702
GlyphClass: 2
Flags: MW
HStem: 0 43 730 40<160.001 171.001 149.001 485.001 437.109 474.001>
LayerCount: 2
Fore
SplineSet
214 114 m 0
 214 55.0634765625 257.612304688 42.998046875 326.000976562 42.998046875 c 0
 444.571289062 42.998046875 515.1328125 73.4140625 563.500976562 143.498046875 c 0
 579.833984375 167.165039062 595.000976562 196.33203125 609.000976562 230.999023438 c 1
 656.000976562 230.999023438 l 1
 568.000976562 -0.0009765625 l 1
 -24.9990234375 -0.0009765625 l 1
 -13.9990234375 39.9990234375 l 1
 50.876953125 39.9990234375 81.099609375 54.7216796875 101.000976562 99.4990234375 c 0
 107.66796875 114.499023438 114.000976562 133.999023438 120.000976562 157.999023438 c 2
 233.000976562 599.999023438 l 2
 240.248046875 628.987304688 248.000976562 653.221679688 248.000976562 682 c 0
 248.000976562 723.936523438 218.138671875 730 171.000976562 730 c 2
 149.000976562 730 l 1
 160.000976562 770 l 1
 485.000976562 770 l 1
 474.000976562 730 l 1
 400.216796875 730 373.860351562 703.681640625 352.5 649 c 0
 344.166992188 627.666992188 335.666992188 600 327 566 c 2
 223 170 l 2
 217 148 214 129.333007812 214 114 c 0
EndSplineSet
EndChar

StartChar: M
Encoding: 77 77 46
Width: 1020
GlyphClass: 2
Flags: MW
HStem: 0 40 730 40
LayerCount: 2
Fore
SplineSet
811 98 m 0
 811 45.1796875 852.3203125 39.998046875 912.000976562 39.998046875 c 1
 900.000976562 -0.001953125 l 1
 581.000976562 -0.001953125 l 1
 592.000976562 39.998046875 l 1
 650.74609375 39.998046875 677.70703125 56.8310546875 696.5 97.998046875 c 0
 703.5 113.331054688 710.333007812 133.331054688 717 157.998046875 c 2
 849 654.998046875 l 1
 845 654.998046875 l 1
 435 -0.001953125 l 1
 392 -0.001953125 l 1
 314 654.998046875 l 1
 310 654.998046875 l 1
 182 167.998046875 l 2
 178.5234375 154.091796875 175 139.771484375 175 123.998046875 c 0
 175 68.927734375 208.143554688 41.353515625 261 39.998046875 c 1
 249 -0.001953125 l 1
 -27 -0.001953125 l 1
 -16 39.998046875 l 1
 54.2412109375 39.998046875 102.907226562 99.3759765625 119 157.998046875 c 2
 236 599.998046875 l 2
 246 636.665039062 251 663.998046875 251 681.998046875 c 0
 251 702.665039062 243.5 715.83203125 228.5 721.499023438 c 0
 213.5 727.166015625 188 729.999023438 152 729.999023438 c 1
 163 769.999023438 l 1
 403 769.999023438 l 1
 474 173.999023438 l 1
 478 173.999023438 l 1
 855 769.999023438 l 1
 1066 769.999023438 l 1
 1055 729.999023438 l 1
 988.647460938 729.999023438 969.71875 700.54296875 952 648.999023438 c 0
 944.666992188 627.666015625 936.666992188 599.999023438 928 565.999023438 c 2
 823 167.999023438 l 2
 815 138.666015625 811 115.333007812 811 98 c 0
EndSplineSet
EndChar

StartChar: N
Encoding: 78 78 47
Width: 842
GlyphClass: 2
Flags: MW
HStem: 0 40 730 40<112 359>
LayerCount: 2
Fore
SplineSet
724 639 m 0
 724 692.610351562 689.901367188 728.573242188 640 729.999023438 c 1
 652 769.999023438 l 1
 908 769.999023438 l 1
 897 729.999023438 l 1
 866.892578125 729.999023438 843.448242188 713.49609375 827 696.499023438 c 0
 806.796875 675.622070312 791.083984375 644.440429688 782 611.999023438 c 2
 620 -0.0009765625 l 1
 580 -0.0009765625 l 1
 318 601.999023438 l 1
 314 601.999023438 l 1
 200 167.999023438 l 2
 196 151.999023438 194 137.666015625 194 124.999023438 c 0
 194 67.0888671875 231.318359375 41.28125 289 39.9990234375 c 1
 277 -0.0009765625 l 1
 -9 -0.0009765625 l 1
 2 39.9990234375 l 1
 72.2412109375 39.9990234375 120.907226562 99.376953125 137 157.999023438 c 2
 255 601.999023438 l 2
 257.666992188 611.999023438 259 622.33203125 259 632.999023438 c 0
 259 704.65234375 187.71875 728.852539062 112 730 c 1
 124 770 l 1
 359 770 l 1
 609 197 l 1
 613 197 l 1
 719 602 l 2
 722.333007812 616.666992188 724 629 724 639 c 0
EndSplineSet
EndChar

StartChar: O
Encoding: 79 79 48
Width: 820
GlyphClass: 2
Flags: MW
HStem: -10 54 728 52<454.351 567.216>
VStem: 74 121 663 121
LayerCount: 2
Fore
SplineSet
505 780 m 0
 644.303710938 780 728.627929688 703.278320312 764.500976562 597.5 c 0
 777.500976562 559.166992188 784.000976562 516.333984375 784.000976562 469.000976562 c 0
 784.000976562 328.180664062 726.193359375 211.521484375 656.000976562 133.000976562 c 0
 588.750976562 57.7724609375 487.448242188 -9.9990234375 356 -9.9990234375 c 0
 216.075195312 -9.9990234375 130.734375 68.8896484375 94 174.500976562 c 0
 80.6669921875 212.833984375 74 255.666992188 74 303 c 0
 74 443.518554688 132.739257812 559.499023438 203 637.5 c 0
 270.28515625 712.198242188 373.759765625 780 505 780 c 0
663.000976562 496 m 0
 663.000976562 633.171875 629.431640625 728 505.000976562 728 c 0
 403.700195312 728 331.764648438 668.579101562 285.000976562 604 c 0
 231.689453125 530.379882812 195.000976562 424.360351562 195.000976562 300 c 0
 195.000976562 154.34375 237.557617188 44 370.000976562 44 c 0
 468.995117188 44 536.005859375 105.930664062 579.500976562 172 c 0
 631.5078125 250.998046875 663.000976562 365.163085938 663.000976562 496 c 0
EndSplineSet
Substitution2: "Single Substitution lookup 7 subtable" ordmasculine
EndChar

StartChar: P
Encoding: 80 80 49
Width: 667
GlyphClass: 2
Flags: MW
HStem: 0 40<-6 32.3115 -6 315 -17 32.3115> 358 51<288 288 288 347 275 288> 725 45<406.82 435 435 490.333>
VStem: 597 111<589.667 644.333>
LayerCount: 2
Fore
SplineSet
435 770 m 2
 576.706054688 770 708 725.428710938 708 598 c 0
 708 516.96875 659.470703125 461.646484375 606 426 c 0
 543.096679688 384.064453125 451.499023438 358 347 358 c 2
 275 358 l 1
 233 207 l 2
 223.4375 173.53125 212 137.772460938 212 105 c 0
 212 65 250 45 326 45 c 1
 315 0 l 1
 -17 0 l 1
 -6 40 l 1
 70.623046875 40 100.345703125 90.9677734375 119 159 c 2
 237 600 l 2
 245.666992188 632 250 657 250 675 c 0
 250 727.001953125 198.653320312 728.245117188 146 730 c 1
 157 770 l 1
 435 770 l 2
288 409 m 1
 337 408.999023438 l 2
 450.53515625 408.999023438 537.358398438 452.419921875 577.5 525.499023438 c 0
 590.5 549.166015625 597 575.333007812 597 604 c 0
 597 684.666992188 543.666992188 725 437 725 c 0
 376.640625 725 363.341796875 694.3671875 351 645 c 2
 288 409 l 1
EndSplineSet
EndChar

StartChar: Q
Encoding: 81 81 50
Width: 834
GlyphClass: 2
Flags: MW
HStem: -260 92<526.302 651.832> -10 62 728 52
VStem: 74 121 677 121 758 33
LayerCount: 2
Fore
SplineSet
113 -226 m 0xf4
 81.6005859375 -226 62.001953125 -207.080078125 62.001953125 -176 c 0
 62.001953125 -159.333007812 68.6689453125 -144.833007812 82.001953125 -132.5 c 0
 95.3349609375 -120.166992188 119.66796875 -106.333984375 155.000976562 -91.0009765625 c 2
 347.000976562 -10.0009765625 l 1
 212.241210938 -3.48046875 130.025390625 71.2353515625 93.5009765625 177.999023438 c 0
 80.5009765625 215.999023438 74.0009765625 257.999023438 74.0009765625 303.999023438 c 0
 74.0009765625 444.291015625 134.081054688 560.17578125 205.500976562 637.499023438 c 0
 274.84375 712.572265625 379.270507812 779.999023438 513.000976562 779.999023438 c 0
 655.0390625 779.999023438 740.780273438 703.510742188 778.001953125 596.499023438 c 0
 791.334960938 558.166015625 798.001953125 514.999023438 798.001953125 466.999023438 c 0xf8
 798.001953125 367.16796875 769.594726562 283.43359375 731.001953125 216.499023438 c 0
 690.044921875 145.463867188 630.447265625 82.4697265625 559.002929688 44 c 2
 342.002929688 -74 l 1
 344.002929688 -77 l 1
 402.598632812 -77 442.859375 -100.249023438 481.002929688 -122.5 c 0
 518.400390625 -144.315429688 557.28125 -168 614.001953125 -168 c 0
 689.662109375 -168 740.015625 -126.353515625 758.001953125 -64 c 1
 791.001953125 -79 l 1
 772.670898438 -162.508789062 719.323242188 -220.536132812 644.001953125 -247 c 0
 619.334960938 -255.666992188 593.001953125 -260 565.001953125 -260 c 0
 487.602539062 -260 432.752929688 -226.419921875 386.501953125 -194.5 c 0
 362.834960938 -178.166992188 340.66796875 -163.166992188 320.000976562 -149.5 c 0
 299.333984375 -135.833007812 278.666992188 -129 258 -129 c 0
 220.102539062 -129 202.0390625 -154.834960938 185.5 -177.5 c 0
 168.951171875 -200.178710938 150.90625 -226 113 -226 c 0xf4
677.001953125 494 m 0
 677.001953125 634.49609375 641.745117188 727.999023438 513.002929688 727.999023438 c 0
 409.571289062 727.999023438 335.349609375 669.149414062 287.001953125 604.499023438 c 0
 232.541015625 531.673828125 195.001953125 425.586914062 195.001953125 300.999023438 c 0
 195.001953125 158.413085938 242.8359375 51.9990234375 375.001953125 51.9990234375 c 0
 476.038085938 51.9990234375 545.321289062 112.180664062 590.501953125 177.999023438 c 0
 643.147460938 254.692382812 677.001953125 365.662109375 677.001953125 494 c 0
EndSplineSet
EndChar

StartChar: R
Encoding: 82 82 51
Width: 763
GlyphClass: 2
Flags: MW
HStem: 0 40<-6 32.3115 -6 315 -17 32.3115 677.755 705> 375 51 725 45
VStem: 582 111<589.666 646.564>
LayerCount: 2
Fore
SplineSet
435 770 m 2
 570.602539062 770 693 722.276367188 693 597.999023438 c 0
 693 536.560546875 667.151367188 493.794921875 633 461.999023438 c 0
 593.680664062 425.391601562 537.79296875 400.018554688 474 387 c 1
 548 204 l 2
 562 170 574.5 142.333007812 585.5 121 c 0
 612.671875 68.3037109375 639.509765625 40 716 40 c 1
 705 0 l 1
 515 0 l 1
 368 375 l 1
 280 375 l 1
 233 207 l 2
 223.4375 173.53125 212 137.772460938 212 105 c 0
 212 65 250 45 326 45 c 1
 315 0 l 1
 -17 0 l 1
 -6 40 l 1
 70.623046875 40 100.345703125 90.9677734375 119 159 c 2
 237 600 l 2
 245.666992188 632 250 657 250 675 c 0
 250 727.001953125 198.653320312 728.245117188 146 730 c 1
 157 770 l 1
 435 770 l 2
582 603.999023438 m 0
 582 689.12890625 525.43359375 724.999023438 437 724.999023438 c 0
 376.640625 724.999023438 363.341796875 694.366210938 351 644.999023438 c 2
 293 425.999023438 l 1
 342 425.999023438 l 2
 446.297851562 425.999023438 527.29296875 460.703125 564 527.999023438 c 0
 576 549.999023438 582 575.33203125 582 603.999023438 c 0
EndSplineSet
EndChar

StartChar: S
Encoding: 83 83 52
Width: 598
GlyphClass: 2
Flags: MW
HStem: -10 53<226.667 301.213 205.081 301.604> 0 21G<16 51 16 16> 729 51
VStem: 16 35<0 0> 58 33<254 254> 146 98 428 89 512 34
LayerCount: 2
Fore
SplineSet
382 780 m 0xbe
 455.263671875 780 497.474609375 753.525390625 538.000976562 712.999023438 c 1
 558.000976562 754.999023438 l 1
 588.000976562 754.999023438 l 1
 546.000976562 557.999023438 l 1
 512.000976562 557.999023438 l 1xbd
 508.549804688 662.685546875 483.068359375 728.999023438 385.000976562 728.999023438 c 0
 320.610351562 728.999023438 275.678710938 701.86328125 254.500976562 658.499023438 c 0
 247.500976562 644.166015625 244.000976562 628.666015625 244.000976562 611.999023438 c 0
 244.000976562 587.999023438 250.66796875 566.666015625 264.000976562 547.999023438 c 0
 293.1640625 507.170898438 337.358398438 476.380859375 380.500976562 445.999023438 c 0
 426.915039062 413.313476562 469.951171875 374.39453125 497.000976562 323 c 0
 510.333984375 297.666992188 517.000976562 268 517.000976562 234 c 0
 517.000976562 158.725585938 483.314453125 100.0390625 442.500976562 61 c 0
 400.974609375 21.279296875 340.208007812 -10 263.000976562 -10 c 0xbe
 190.333984375 -10 126.666992188 18.6669921875 72 76 c 1
 51 0 l 1
 16 0 l 1x7e
 58 254 l 1
 91 254 l 1
 99.1162109375 134.58203125 146.16015625 43 264.000976562 43 c 0
 338.42578125 43 390.891601562 76.296875 415.500976562 126.5 c 0
 423.833984375 143.5 428.000976562 162 428.000976562 182 c 0
 428.000976562 210 421.000976562 234.666992188 407.000976562 256 c 0
 377.107421875 301.551757812 332.965820312 337.700195312 287 370 c 0
 239.833984375 403.143554688 196.168945312 441.190429688 167 490.499023438 c 0
 153 514.166015625 146 541.333007812 146 572 c 0
 146 636.716796875 177.958984375 686.588867188 215 719 c 0
 254.018554688 753.140625 311.80859375 780 382 780 c 0xbe
EndSplineSet
EndChar

StartChar: T
Encoding: 84 84 53
Width: 780
GlyphClass: 2
Flags: MW
HStem: 0 40<157.001 188.829 473.762 494.001 146.001 188.829> 728 42<348.667 397.373 601.123 694.778>
VStem: 783 38<557 614.357>
LayerCount: 2
Fore
SplineSet
783 557 m 1
 783 671.71484375 747.5546875 728 642.001953125 728 c 0
 560.243164062 728 541.911132812 677.638671875 525.000976562 610 c 2
 407.000976562 168 l 2
 400.53515625 143.21484375 391.000976562 123.4140625 391.000976562 98 c 0
 391.000976562 44.6728515625 441.5234375 40 506.000976562 40 c 1
 494.000976562 0 l 1
 146.000976562 0 l 1
 157.000976562 40 l 1
 220.65625 40 255.94140625 53.0869140625 278.500976562 95.5 c 0
 286.833984375 111.166992188 294.666992188 132 302 158 c 2
 424 614 l 2
 430 638 433 658 433 674 c 0
 433 712.770507812 416.745117188 728 378 728 c 0
 319.333007812 728 268.5 713 225.5 683 c 0
 182.5 653 146.666992188 611 118 557 c 1
 78 557 l 1
 173 770 l 1
 841 770 l 1
 821 557 l 1
 783 557 l 1
EndSplineSet
EndChar

StartChar: U
Encoding: 85 85 54
Width: 808
GlyphClass: 2
Flags: MW
HStem: -10 56 730 40
VStem: 114 100
LayerCount: 2
Fore
SplineSet
367 -10 m 0
 205.844726562 -10 114.001953125 63.673828125 114.001953125 219.001953125 c 0
 114.001953125 269.438476562 122.216796875 309.397460938 134.001953125 353.001953125 c 2
 200.001953125 599.001953125 l 2
 205.255859375 620.016601562 213.001953125 652.619140625 213.001953125 676.001953125 c 0
 213.001953125 724.295898438 175.020507812 730.001953125 119.001953125 730.001953125 c 1
 132.001953125 770.001953125 l 1
 451.001953125 770.001953125 l 1
 440.001953125 730.001953125 l 1
 393.502929688 730.001953125 366.251953125 725.856445312 344.501953125 702.001953125 c 0
 334.168945312 690.668945312 325.168945312 674.001953125 317.501953125 652.001953125 c 0
 309.834960938 630.001953125 301.334960938 601.001953125 292.001953125 565.001953125 c 2
 227.001953125 314.001953125 l 2
 218.963867188 284.146484375 214.001953125 254.206054688 214.001953125 220.000976562 c 0
 214.001953125 114.240234375 269.251953125 46.0009765625 375.001953125 46.0009765625 c 0
 446.39453125 46.0009765625 494.796875 76.279296875 531.001953125 115.500976562 c 0
 595.104492188 184.9453125 624.665039062 287.801757812 651.501953125 397.001953125 c 0
 668.278320312 465.263671875 685.297851562 541.2109375 695.501953125 609.501953125 c 0
 699.834960938 638.501953125 702.001953125 658.668945312 702.001953125 670.001953125 c 0
 702.001953125 716.797851562 650.219726562 727.864257812 600.001953125 730.000976562 c 1
 612.001953125 770.000976562 l 1
 875.001953125 770.000976562 l 1
 863.001953125 730.000976562 l 1
 805.271484375 730.000976562 787.025390625 709.071289062 772.001953125 664.000976562 c 0
 766.001953125 646.000976562 759.668945312 622.000976562 753.001953125 592.000976562 c 2
 710.001953125 392.000976562 l 2
 681.334960938 259.333984375 638.66796875 159.166992188 582.000976562 91.5 c 0
 525.333984375 23.8330078125 453.666992188 -10 367 -10 c 0
EndSplineSet
EndChar

StartChar: V
Encoding: 86 86 55
Width: 752
GlyphClass: 2
Flags: MW
HStem: -10 21G 730 40<178.001 186.334 433.664 464.001>
LayerCount: 2
Fore
SplineSet
698 705 m 0
 698 729.65234375 663.397460938 729.999023438 631.75 729.999023438 c 2
 629.002929688 729.999023438 l 1
 639.002929688 769.999023438 l 1
 898.002929688 769.999023438 l 1
 888.002929688 729.999023438 l 1
 844.4375 729.999023438 818.487304688 713.145507812 788.501953125 689.999023438 c 0
 735.568359375 649.137695312 693.909179688 598.774414062 645.001953125 538.999023438 c 2
 194.001953125 -10.0009765625 l 1
 110.001953125 -10.0009765625 l 1
 249.001953125 603.999023438 l 2
 257.001953125 638.666015625 261.001953125 664.333007812 261.001953125 681 c 0
 261.001953125 700.333007812 254.668945312 713.333007812 242.001953125 720 c 0
 229.334960938 726.666992188 204.66796875 730 168.000976562 730 c 1
 178.000976562 770 l 1
 474.000976562 770 l 1
 464.000976562 730 l 1
 403.326171875 730 378.147460938 715.021484375 362.5 669 c 0
 356.833007812 652.333007812 351 630.333007812 345 603 c 2
 244 142 l 1
 248 142 l 1
 586 546 l 2
 624 591.333007812 652.166992188 625.833007812 670.5 649.5 c 0
 688.833007812 673.166992188 698 691.666992188 698 705 c 0
EndSplineSet
Substitution2: "'ss01' Style Set 1 in Latin lookup 6 subtable" V.ss01
EndChar

StartChar: W
Encoding: 87 87 56
Width: 1064
GlyphClass: 2
Flags: MW
HStem: -10 21G 730.001 39.9991
LayerCount: 2
Fore
SplineSet
601 681 m 0
 601 727.14453125 571.873046875 730 518.000976562 730 c 1
 528.000976562 770 l 1
 814.000976562 770 l 1
 804.000976562 730 l 1
 743.326171875 730 718.147460938 715.021484375 702.5 669 c 0
 696.833007812 652.333007812 691 630.333007812 685 603 c 2
 584 152 l 1
 588 152 l 1
 896 546 l 2
 932 592 958.666992188 627.5 976 652.5 c 0
 993.333007812 677.5 1002 695.666992188 1002 707 c 0
 1002 729.536132812 971.4921875 730 942.700195312 730 c 0
 941.462890625 730 940.228515625 729.999023438 939 729.999023438 c 2
 949 769.999023438 l 1
 1208 769.999023438 l 1
 1198 729.999023438 l 1
 1154.26757812 729.999023438 1126.62597656 714.224609375 1096.50097656 691.499023438 c 0
 1043.29785156 651.36328125 1001.58203125 600.74609375 955.000976562 538.999023438 c 2
 534.000976562 -10.0009765625 l 1
 450.000976562 -10.0009765625 l 1
 558.000976562 466.999023438 l 1
 192.000976562 -10.0009765625 l 1
 108.000976562 -10.0009765625 l 1
 247.000976562 603.999023438 l 2
 255.000976562 638.666015625 259.000976562 664.333007812 259.000976562 681 c 0
 259.000976562 700.333007812 252.66796875 713.333007812 240.000976562 720 c 0
 227.333984375 726.666992188 202.666992188 730 166 730 c 1
 176 770 l 1
 452 770 l 1
 442 730 l 1
 391.142578125 730 374.068359375 707.90625 360.5 668 c 0
 354.833007812 651.333007812 349 629.666015625 343 602.999023438 c 2
 242 151.999023438 l 1
 246 151.999023438 l 1
 585 586.999023438 l 1
 589 603.999023438 l 2
 597 638.666015625 601 664.333007812 601 681 c 0
EndSplineSet
Substitution2: "'ss01' Style Set 1 in Latin lookup 6 subtable" W.ss01
EndChar

StartChar: X
Encoding: 88 88 57
Width: 781
GlyphClass: 2
Flags: MW
HStem: 0 40<392 420 674.971 713 383 420> 730 40<119 125.443 396.667 419 560 567.333 789.449 807>
LayerCount: 2
Fore
SplineSet
181 76 m 0
 181 43.4599609375 218.837890625 40.0009765625 259 40.0009765625 c 1
 250 0.0009765625 l 1
 -39 0.0009765625 l 1
 -29 40.0009765625 l 1
 5.5595703125 43.7041015625 26.3330078125 44.4013671875 49 58.0009765625 c 0
 59 64.0009765625 69.5 72.5009765625 80.5 83.5009765625 c 0
 91.5 94.5009765625 105.333007812 109.66796875 122 129.000976562 c 2
 353 395.000976562 l 1
 245 622.000976562 l 2
 227.393554688 658.313476562 212.23046875 688.305664062 185.5 709 c 0
 165.326171875 724.618164062 142.88671875 730 108 730 c 1
 119 770 l 1
 430 770 l 1
 419 730 l 1
 374.333007812 730 352 713.333007812 352 680 c 0
 352 658.666992188 362.333007812 625 383 579 c 2
 432 471 l 1
 518 567 l 2
 548.666992188 601 571 628.666992188 585 650 c 0
 599 671.333007812 606 688 606 700 c 0
 606 720 586.666992188 730 548 730 c 1
 560 770 l 1
 818 770 l 1
 807 730 l 1
 771.897460938 730 750.188476562 720.099609375 726.5 704.5 c 0
 689.849609375 680.364257812 662.206054688 650.526367188 629 614 c 2
 454 422 l 1
 571 167 l 2
 601.469726562 98.8916015625 627.94140625 40 722 40 c 1
 713 0 l 1
 383 0 l 1
 392 40 l 1
 448 40 476 56.6669921875 476 90 c 0
 476 113.504882812 466.18359375 139.564453125 458 159 c 2
 377 338 l 1
 294 246 l 2
 254 202 225.166992188 166.333007812 207.5 139 c 0
 189.833007812 111.666992188 181 90.6669921875 181 76 c 0
EndSplineSet
EndChar

StartChar: Y
Encoding: 89 89 58
Width: 689
GlyphClass: 2
Flags: MW
HStem: 0 40<141.999 174.804 452.159 469.999 130.999 174.804> 730 40<101 106.563 351.423 371 532 539.774 745.304 768>
LayerCount: 2
Fore
SplineSet
595 687 m 0
 595 720.369140625 558.548828125 730 521 730 c 1
 532 770 l 1
 779 770 l 1
 768 730 l 1
 722.607421875 730 704.124023438 716.833007812 683.999023438 690 c 0
 675.999023438 679.333007812 665.999023438 665.666015625 653.999023438 648.999023438 c 2
 439.999023438 347.999023438 l 1
 392.999023438 167.999023438 l 2
 384.999023438 138.666015625 380.999023438 115.333007812 380.999023438 98 c 0
 380.999023438 45.1796875 422.318359375 40 481.999023438 40 c 1
 469.999023438 0 l 1
 130.999023438 0 l 1
 141.999023438 40 l 1
 207.609375 40 243.46484375 53.931640625 265.499023438 98 c 0
 273.166015625 113.333007812 280.333007812 133.333007812 287 158 c 2
 333 336 l 1
 213 624 l 2
 197.217773438 661.876953125 185.586914062 692.1953125 161 713 c 0
 143.125 728.125 123.126953125 730 90 730 c 1
 101 770 l 1
 382 770 l 1
 371 730 l 1
 331.846679688 730 300 727.712890625 300 695 c 0
 300 681.08203125 302.733398438 670.5859375 308 659 c 2
 415 401 l 1
 554 604 l 2
 568.666992188 624.666992188 579.166992188 640.666992188 585.5 652 c 0
 591.833007812 663.333007812 595 675 595 687 c 0
EndSplineSet
EndChar

StartChar: Z
Encoding: 90 90 59
Width: 672
GlyphClass: 2
Flags: MW
HStem: 0 50<158 283 283 356.662> 722 48<397.979 435.001 435.001 536.001>
LayerCount: 2
Fore
SplineSet
283 50 m 2
 430.32421875 50 513.59765625 111.18359375 565.000976562 221 c 1
 608.000976562 221 l 1
 524.000976562 0 l 1
 -6.9990234375 0 l 1
 -6.9990234375 21 l 1
 536.000976562 722 l 1
 435.000976562 722 l 2
 360.95703125 722 309.123046875 719.048828125 263.000976562 694.5 c 0
 242.333984375 683.5 223.666992188 668.166992188 207 648.5 c 0
 190.333007812 628.833007812 172.333007812 603.333007812 153 572 c 1
 110 572 l 1
 211 770 l 1
 696 770 l 1
 696 751 l 1
 158 50 l 1
 283 50 l 2
EndSplineSet
EndChar

StartChar: bracketleft
Encoding: 91 91 60
Width: 369
GlyphClass: 2
Flags: MW
HStem: -150 47<82 220> 773 47<319 319 319 470>
LayerCount: 2
Fore
SplineSet
319 773 m 1
 82 -103 l 1
 233 -103 l 1
 220 -150 l 1
 -20 -150 l 1
 242 820 l 1
 483 820 l 1
 470 773 l 1
 319 773 l 1
EndSplineSet
EndChar

StartChar: backslash
Encoding: 92 92 61
Width: 463
GlyphClass: 2
Flags: MW
HStem: 0 21G<287 351 287 287> 750 20G<150 205 205 205>
VStem: 150 201
LayerCount: 2
Fore
SplineSet
150 770 m 1
 205 770 l 1
 351 0 l 1
 287 0 l 1
 150 770 l 1
EndSplineSet
EndChar

StartChar: bracketright
Encoding: 93 93 62
Width: 369
GlyphClass: 2
Flags: MW
HStem: -150 47<-89 61 -89 138 -102 61> 773 47<160 298 147 401>
LayerCount: 2
Fore
SplineSet
61 -103 m 1
 298 773 l 1
 147 773 l 1
 160 820 l 1
 401 820 l 1
 138 -150 l 1
 -102 -150 l 1
 -89 -103 l 1
 61 -103 l 1
EndSplineSet
EndChar

StartChar: asciicircum
Encoding: 94 94 63
Width: 481
GlyphClass: 2
Flags: MW
HStem: 230 179<60 315 60 315 225 387 225 342>
VStem: 60 327<230 230>
LayerCount: 2
Fore
SplineSet
315 409 m 1
 387 230 l 1
 342 230 l 1
 254 348 l 1
 104 230 l 1
 60 230 l 1
 225 409 l 1
 315 409 l 1
EndSplineSet
EndChar

StartChar: underscore
Encoding: 95 95 64
Width: 731
GlyphClass: 2
Flags: MW
HStem: -143 68<-45 548 -22 525>
LayerCount: 2
Fore
SplineSet
-45 -143 m 1
 -22 -75 l 1
 548 -75 l 1
 525 -143 l 1
 -45 -143 l 1
EndSplineSet
EndChar

StartChar: grave
Encoding: 96 96 65
Width: 275
GlyphClass: 2
Flags: MW
HStem: 651 152<65.5879 234 65.5879 187>
VStem: 29 205<651 772.81>
LayerCount: 2
Fore
SplineSet
29 760 m 0
 29 785.620117188 53.17578125 803 78 803 c 0
 98.6669921875 803 118 792 136 770 c 2
 234 651 l 1
 187 651 l 1
 68 716 l 2
 50.6923828125 725.615234375 29 737.87890625 29 760 c 0
EndSplineSet
EndChar

StartChar: a
Encoding: 97 97 66
Width: 570
GlyphClass: 2
Flags: MW
HStem: -10 71 488 52
VStem: 10 95<119.11 157.334 119.11 188.411> 300 87
LayerCount: 2
Fore
SplineSet
373 432 m 0
 373 462.412109375 360.405273438 488.000976562 332 488.000976562 c 0
 306.666992188 488.000976562 280.5 476.333984375 253.5 453.000976562 c 0
 198.387695312 405.373046875 152.911132812 330.029296875 126 252.500976562 c 0
 112 212.16796875 105 174.66796875 105 140.000976562 c 0
 105 98.21875 122.0234375 61.0009765625 161 61.0009765625 c 0
 176.333007812 61.0009765625 192.333007812 67.16796875 209 79.5009765625 c 0
 267.65234375 122.903320312 310.090820312 203.517578125 339 278.500976562 c 0
 356.28515625 323.333984375 373 377.524414062 373 432 c 0
326 540.000976562 m 0
 376.66015625 540.000976562 398.938476562 514.548828125 413.999023438 474.001953125 c 1
 434.999023438 530.001953125 l 1
 517.999023438 530.001953125 l 1
 460.999023438 377.001953125 l 2
 434.659179688 305.5078125 407.588867188 220.24609375 392.999023438 140.000976562 c 0
 388.999023438 118.000976562 386.999023438 101.66796875 386.999023438 91.0009765625 c 0
 386.999023438 71.66796875 393.33203125 62.0009765625 405.999023438 62.0009765625 c 0
 415.33203125 62.0009765625 428.83203125 71.66796875 446.499023438 91.0009765625 c 0
 464.166015625 110.333984375 483.999023438 135.333984375 505.999023438 166.000976562 c 1
 531.999023438 145.000976562 l 1
 503.999023438 95.66796875 473.83203125 57.5009765625 441.499023438 30.5009765625 c 0
 409.166015625 3.5009765625 377.999023438 -9.9990234375 347.999023438 -9.9990234375 c 0
 310.375976562 -9.9990234375 299.999023438 21.7294921875 299.999023438 65.0009765625 c 0
 299.999023438 84.08203125 300.8515625 96.5283203125 302.999023438 118.000976562 c 1
 298.999023438 119.000976562 l 1
 271.110351562 66.94140625 226.534179688 20.5234375 169 -0.4990234375 c 0
 151.666992188 -6.83203125 134.666992188 -9.9990234375 118 -9.9990234375 c 0
 42.50390625 -9.9990234375 10 54.5986328125 10 135.000976562 c 0
 10 241.8203125 62.7724609375 341.352539062 114 406.500976562 c 0
 144.666992188 445.500976562 178.666992188 477.500976562 216 502.500976562 c 0
 253.333007812 527.500976562 290 540.000976562 326 540.000976562 c 0
EndSplineSet
Substitution2: "Single Substitution lookup 7 subtable" ordfeminine
EndChar

StartChar: b
Encoding: 98 98 67
Width: 534
GlyphClass: 2
Flags: MW
HStem: -10 51 486 53 790 30<138.999 138.999 138.999 155.666> 809 20G<330.999 330.999>
VStem: 28 95 400 99
LayerCount: 2
Fore
SplineSet
158 -10 m 0xdc
 83.4921875 -10 27.9990234375 40.0029296875 27.9990234375 114 c 0
 27.9990234375 131.333007812 31.666015625 155.833007812 38.9990234375 187.5 c 0
 46.33203125 219.166992188 56.9990234375 257 70.9990234375 301 c 2
 191.999023438 691 l 2
 196.717773438 707.986328125 206.999023438 737.201171875 206.999023438 755 c 0
 206.999023438 778.333007812 181.33203125 790 129.999023438 790 c 1
 138.999023438 820 l 1xec
 330.999023438 829 l 1
 203.999023438 444 l 1
 206.999023438 442 l 1
 239.435546875 493.450195312 295.411132812 539 371.999023438 539 c 0
 455.643554688 539 498.999023438 481.990234375 498.999023438 397 c 0
 498.999023438 324.180664062 474.475585938 258.385742188 446.499023438 207 c 0
 414.533203125 148.288085938 368.848632812 93.1083984375 318.499023438 53.5 c 0
 277.725585938 21.4248046875 222.854492188 -10 158 -10 c 0xdc
399.999023438 405 m 0
 399.999023438 443.939453125 380.748046875 485.999023438 344.998046875 485.999023438 c 0
 330.331054688 485.999023438 314.498046875 480.499023438 297.498046875 469.499023438 c 0
 258.561523438 444.3046875 226.75390625 402.091796875 200.498046875 359.499023438 c 0
 172.331054688 313.805664062 147.046875 258.599609375 132.998046875 200.999023438 c 0
 126.331054688 173.666015625 122.998046875 147.666015625 122.998046875 122.999023438 c 0
 122.998046875 68.33203125 139.998046875 40.9990234375 173.998046875 40.9990234375 c 0
 189.331054688 40.9990234375 205.6640625 46.4990234375 222.997070312 57.4990234375 c 0
 262.89453125 82.818359375 295.107421875 123.741210938 321.998046875 166.999023438 c 0
 350.926757812 213.536132812 374.715820312 268.071289062 389.499023438 326.499023438 c 0
 396.499023438 354.166015625 399.999023438 380.333007812 399.999023438 405 c 0
EndSplineSet
EndChar

StartChar: c
Encoding: 99 99 68
Width: 441
GlyphClass: 2
Flags: MW
HStem: -10 59 493 47
VStem: 14 105 334 96<472.942 477 432.953 483.666>
LayerCount: 2
Fore
SplineSet
119 152 m 0
 119 97.3173828125 138.672851562 48.9970703125 189 48.9970703125 c 0
 220.568359375 48.9970703125 245.8515625 68.8671875 266 86.4970703125 c 0
 294.3203125 111.27734375 319.2734375 144.791015625 338.000976562 180.997070312 c 1
 373.000976562 160.997070312 l 1
 345.000976562 105.6640625 312.500976562 63.3310546875 275.500976562 33.998046875 c 0
 238.500976562 4.6650390625 199.000976562 -10.001953125 157.000976562 -10.001953125 c 0
 66.2666015625 -10.001953125 14.0009765625 59.7353515625 14.0009765625 152.998046875 c 0
 14.0009765625 221.096679688 36.8603515625 282.861328125 62.0009765625 331.999023438 c 0
 103.081054688 412.291992188 166.4765625 486.419921875 248.500976562 523.499023438 c 0
 272.833984375 534.499023438 296.666992188 539.999023438 320 539.999023438 c 0
 378.4765625 539.999023438 430 505.001953125 430 448.999023438 c 0
 430 416.90625 409.52734375 392.999023438 378 392.999023438 c 0
 348.557617188 392.999023438 326 414.162109375 326 442.999023438 c 0
 326 458.232421875 334 466.885742188 334 478.999023438 c 0
 334 488.33203125 326 492.999023438 310 492.999023438 c 0
 288 492.999023438 265.666992188 482.666015625 243 461.999023438 c 0
 194.544921875 417.819335938 158.09375 347.151367188 136.5 272.5 c 0
 124.833007812 232.166992188 119 192 119 152 c 0
EndSplineSet
EndChar

StartChar: d
Encoding: 100 100 69
Width: 598
GlyphClass: 2
Flags: MW
HStem: -10 65 487 53 790.017 39.9833
VStem: 11 97 328 85<86.1475 86.9917>
LayerCount: 2
Fore
SplineSet
328 79 m 0
 328 94.9833984375 331.397460938 111.80078125 334.998046875 125.002929688 c 1
 326.998046875 127.002929688 l 1
 301.665039062 83.0029296875 270.998046875 49.169921875 234.998046875 25.5029296875 c 0
 198.998046875 1.8359375 164.665039062 -9.9970703125 131.998046875 -9.9970703125 c 0
 70.44140625 -9.9970703125 36.4130859375 34.7607421875 20.4990234375 82.5029296875 c 0
 14.166015625 101.502929688 10.9990234375 122.669921875 10.9990234375 146.002929688 c 0
 10.9990234375 214.060546875 35.171875 276.76953125 61.4990234375 325.502929688 c 0
 92.0166015625 381.9921875 135.059570312 436.793945312 181.499023438 476.502929688 c 0
 217.811523438 507.552734375 265.467773438 540.002929688 323.999023438 540.002929688 c 0
 346.666015625 540.002929688 363.833007812 535.669921875 375.5 527.002929688 c 0
 387.166992188 518.3359375 398.666992188 504.668945312 410 486.001953125 c 1
 468 692.001953125 l 2
 475.487304688 717.271484375 484 739.768554688 484 763.000976562 c 0
 484 788.711914062 444.608398438 790.017578125 405.279296875 790.017578125 c 0
 400.833007812 790.017578125 396.387695312 790.000976562 392 790.000976562 c 1
 403 830.000976562 l 1
 596 830.000976562 l 1
 485 425.000976562 l 2
 462.294921875 340.66796875 444.286132812 273.557617188 427.5 199.5 c 0
 418.702148438 160.684570312 413 134.971679688 413 98 c 0
 413 74.294921875 418.44140625 57 438 57 c 0
 452.666992188 57 468.5 69.3330078125 485.5 94 c 0
 502.5 118.666992188 517.666992188 151 531 191 c 1
 569 182 l 1
 546.333007812 116 521.5 67.5 494.5 36.5 c 0
 467.5 5.5 437 -10 403 -10 c 0
 351.755859375 -10 328 25.65625 328 79 c 0
380.998046875 421.002929688 m 0
 380.998046875 459.297851562 367.918945312 487.001953125 330.997070312 487.001953125 c 0
 313.6640625 487.001953125 296.1640625 481.501953125 278.497070312 470.501953125 c 0
 217.052734375 432.244140625 172.515625 359.952148438 142.998046875 288.001953125 c 0
 125.041015625 244.232421875 107.998046875 189.844726562 107.998046875 134.001953125 c 0
 107.998046875 89.5791015625 131.279296875 55.001953125 173.998046875 55.001953125 c 0
 189.331054688 55.001953125 204.998046875 61.1689453125 220.998046875 73.501953125 c 0
 277.642578125 117.165039062 319.229492188 195.638671875 347.498046875 269.501953125 c 0
 364.3515625 313.538085938 380.998046875 367.28125 380.998046875 421.002929688 c 0
EndSplineSet
EndChar

StartChar: e
Encoding: 101 101 70
Width: 456
GlyphClass: 2
Flags: MW
HStem: -10 55<163.333 199.333> 493 47
VStem: 14 98<117.667 163.898 117.667 205.851> 349 94
LayerCount: 2
Fore
SplineSet
334 540 m 0
 391.8359375 540 443.000976562 508.205078125 443.000976562 453.000976562 c 0
 443.000976562 429.66796875 434.333984375 405.66796875 417.000976562 381.000976562 c 0
 377.595703125 324.923828125 312.696289062 282.853515625 242.500976562 251 c 0
 202.833984375 233 160.666992188 219 116 209 c 1
 113.448242188 191.137695312 112 173.796875 112 154 c 0
 112 81.3330078125 137.666992188 45 189 45 c 0
 213.666992188 45 239.166992188 54.6669921875 265.5 74 c 0
 291.833007812 93.3330078125 316.333007812 120 339 154 c 1
 371 133 l 1
 313 37.6669921875 241.666992188 -10 157 -10 c 0
 60.77734375 -10 14 54.13671875 14 153 c 0
 14 258.701171875 65.0859375 352.865234375 117 415.5 c 0
 147.666992188 452.5 182 482.5 220 505.5 c 0
 258 528.5 296 540 334 540 c 0
314.000976562 493.000976562 m 0
 296.66796875 493.000976562 278.668945312 486.333984375 260.001953125 473.000976562 c 0
 196.333984375 427.524414062 150.338867188 340.118164062 126.001953125 254.001953125 c 1
 213.287109375 277.641601562 292.333007812 322.665039062 332.000976562 391.500976562 c 0
 343.333984375 411.16796875 349.000976562 431.000976562 349.000976562 451.000976562 c 0
 349.000976562 479.000976562 337.333984375 493.000976562 314.000976562 493.000976562 c 0
EndSplineSet
EndChar

StartChar: f
Encoding: 102 102 71
Width: 334
GlyphClass: 2
Flags: MW
HStem: -260 60<-69.6665 -63.5278> 450 46<70 153 57 165 256.999 343.999> 785 45
VStem: -194 104 439.5 101.5
LayerCount: 2
Fore
SplineSet
541 744 m 0
 541 713.567382812 523.61328125 689 492.999023438 689 c 0
 458.422851562 689 445.288085938 709.2109375 439.499023438 736.999023438 c 0
 434.299804688 761.95703125 427.66015625 784.999023438 397 784.999023438 c 0
 383.666992188 784.999023438 370.5 777.83203125 357.5 763.499023438 c 0
 324.857421875 727.508789062 303.666015625 670.518554688 286 612 c 0
 275.333007812 576.666992188 265.666015625 538 256.999023438 496 c 1
 357.999023438 496 l 1
 343.999023438 450 l 1
 245.999023438 450 l 1
 151.999023438 73 l 2
 134.666015625 5 117.333007812 -50.5 100 -93.5 c 0
 82.6669921875 -136.5 64 -170.333007812 44 -195 c 0
 9.4912109375 -237.560546875 -29.0556640625 -260 -98 -260 c 0
 -147.845703125 -260 -194 -231.203125 -194 -184 c 0
 -194 -151.858398438 -176.581054688 -130 -145 -130 c 0
 -106.856445312 -130 -104.549804688 -166.135742188 -90 -189 c 0
 -85.3330078125 -196.333007812 -76.3330078125 -200 -63 -200 c 0
 -23.4072265625 -200 -1.5751953125 -150.34375 8 -113 c 2
 153 450 l 1
 57 450 l 1
 70 496 l 1
 165 496 l 1
 190.1171875 598.752929688 219.538085938 685.7265625 269 752.5 c 0
 301.170898438 795.930664062 340.564453125 830 406 830 c 0
 470.301757812 830 541 802.330078125 541 744 c 0
EndSplineSet
EndChar

StartChar: g
Encoding: 103 103 72
Width: 550
GlyphClass: 2
Flags: MW
HStem: -260 45 470 70<466.891 533.362> 501 40
VStem: -75 89 18 113 61 94 354 95 357 78
LayerCount: 2
Fore
SplineSet
440 454 m 1xd4
 446.905273438 434.6640625 449.002929688 422.051757812 449.002929688 396.002929688 c 0xd6
 449.002929688 247.176757812 359.732421875 157.450195312 220.002929688 147.002929688 c 0
 188.002929688 144.3359375 165.169921875 140.3359375 151.502929688 135.002929688 c 0
 137.8359375 129.669921875 131.002929688 121.669921875 131.002929688 111.002929688 c 0
 131.002929688 77.62109375 177.380859375 68.7197265625 210.002929688 62.0029296875 c 0
 285.327148438 46.4951171875 368.053710938 36.927734375 412.502929688 -9.4970703125 c 0
 427.502929688 -25.1640625 435.002929688 -46.3310546875 435.002929688 -72.998046875 c 0
 435.002929688 -137.466796875 403.9453125 -180.778320312 363.502929688 -209.499023438 c 0
 317.03125 -242.5 250.118164062 -259.999023438 170.002929688 -259.999023438 c 0
 69.615234375 -259.999023438 -17.3544921875 -234.991210938 -57.49609375 -176.499023438 c 0
 -69.1630859375 -159.499023438 -74.99609375 -140.33203125 -74.99609375 -118.999023438 c 0
 -74.99609375 -64.6708984375 -35.3486328125 -23.9990234375 19.00390625 -23.9990234375 c 0
 41.134765625 -23.9990234375 51.353515625 -29.22265625 70.0029296875 -37.9990234375 c 1
 32.669921875 -53.33203125 14.0029296875 -82.33203125 14.0029296875 -124.999023438 c 0
 14.0029296875 -193.133789062 95.478515625 -214.999023438 173.002929688 -214.999023438 c 0
 245.661132812 -214.999023438 312.358398438 -191.87109375 343.502929688 -151.499023438 c 0
 352.502929688 -139.83203125 357.002929688 -128.33203125 357.002929688 -116.999023438 c 0
 357.002929688 -98.33203125 345.8359375 -81.4990234375 323.502929688 -66.4990234375 c 0
 301.169921875 -51.4990234375 269.669921875 -40.33203125 229.002929688 -32.9990234375 c 0
 156.3359375 -20.33203125 103.002929688 -5.6650390625 69.0029296875 11.001953125 c 0
 35.0029296875 27.6689453125 18.0029296875 51.001953125 18.0029296875 81.001953125 c 0xd9
 18.0029296875 100.334960938 26.5029296875 116.66796875 43.5029296875 130.000976562 c 0
 60.5029296875 143.333984375 91.0029296875 156.666992188 135.002929688 170 c 1
 137.002929688 174 l 1
 86.3359375 210 61.0029296875 256.333007812 61.0029296875 313 c 0
 61.0029296875 382.143554688 93.8486328125 437.00390625 131.502929688 473.5 c 0
 169.87890625 510.6953125 227.834960938 541 299.001953125 541 c 0xb4
 348.334960938 541 389.66796875 523 423.000976562 487 c 1
 454.333984375 522.333007812 484.666992188 540 514 540 c 0
 552.723632812 540 594 512.228515625 594 475 c 0
 594 448.515625 573.483398438 428 547 428 c 0
 517.688476562 428 511.059570312 450.015625 495.5 463.5 c 0
 490.5 467.833007812 483.666992188 470 475 470 c 0
 458.782226562 470 455.53515625 464.680664062 440 454 c 1xd4
155.002929688 276.002929688 m 0
 155.002929688 229.001953125 179.642578125 191.002929688 225.001953125 191.002929688 c 0
 266.206054688 191.002929688 295.453125 229.770507812 313.502929688 260.502929688 c 0
 336.249023438 299.232421875 354.002929688 354.583007812 354.002929688 414.002929688 c 0
 354.002929688 460.672851562 332.553710938 501.002929688 289.002929688 501.002929688 c 0xb6
 273.669921875 501.002929688 258.002929688 494.169921875 242.002929688 480.502929688 c 0
 194.592773438 440.006835938 155.002929688 362.44921875 155.002929688 276.002929688 c 0
EndSplineSet
EndChar

StartChar: h
Encoding: 104 104 73
Width: 574
GlyphClass: 2
Flags: MW
HStem: -10 75<317.604 406.667> 0 21G<-7 77 -7 -7> 487 53 790 40
VStem: 286 95<32.6152 89.3335> 388 89<437.334 459.015>
LayerCount: 2
Fore
SplineSet
337 -10 m 0xbc
 298.208984375 -10 286 12.2294921875 286 53.0009765625 c 0
 286 85.3828125 291.2734375 105.241210938 299.5 136.500976562 c 0
 319.083007812 210.916992188 360.377929688 311.512695312 380.5 392.000976562 c 0
 385.5 412.000976562 388 429.66796875 388 445.000976562 c 0
 388 473.029296875 381.288085938 487.000976562 355 487.000976562 c 0
 334.333007812 487.000976562 314 479.000976562 294 463.000976562 c 0
 274 447.000976562 253.833007812 422.000976562 233.5 388.000976562 c 0
 179.680664062 298.006835938 140.83984375 190.416015625 100 69 c 2
 77 0 l 1
 -7 0 l 1x7c
 191 678 l 2
 197.8984375 702.637695312 206 727.478515625 206 752.000976562 c 0
 206 765.333984375 199.666992188 774.666992188 187 780 c 0
 174.333007812 785.333007812 151 788.666015625 117 789.999023438 c 1
 124 829.999023438 l 1
 328 829.999023438 l 1
 214 443.999023438 l 1
 217 441.999023438 l 1
 251.294921875 492.370117188 304.008789062 539.999023438 379 539.999023438 c 0
 445.387695312 539.999023438 477 498.875 477 430.999023438 c 0
 477 408.999023438 473.666992188 383.33203125 467 353.999023438 c 0
 448.451171875 272.385742188 401.23046875 172.922851562 382.5 98 c 0
 381.5 94 381 90.6669921875 381 88 c 0
 381 72.6669921875 387.333007812 65 400 65 c 0
 413.333007812 65 429.833007812 72.8330078125 449.5 88.5 c 0
 469.166992188 104.166992188 489 126 509 154 c 1
 537 133 l 1
 505.57421875 76.0400390625 452.75390625 26.6201171875 390.5 1.5 c 0
 371.5 -6.1669921875 353.666992188 -10 337 -10 c 0xbc
EndSplineSet
EndChar

StartChar: i
Encoding: 105 105 74
Width: 344
GlyphClass: 2
Flags: MW
HStem: -10 77<86.21 182.677> 454 86<133.307 239.556> 704 126
VStem: 49 100 157 113 216 126
LayerCount: 2
Fore
SplineSet
107 -10 m 0xf8
 65.419921875 -10 49.001953125 11.3779296875 49.001953125 55.0009765625 c 0
 49.001953125 74.333984375 52.1689453125 95.1669921875 58.501953125 117.5 c 0
 64.8349609375 139.833007812 74.001953125 168 86.001953125 202 c 2
 131.001953125 330 l 2
 140.334960938 356 147.001953125 377 151.001953125 393 c 0
 155.001953125 409 157.001953125 421.666992188 157.001953125 431 c 0
 157.001953125 444.649414062 153.487304688 454 143.001953125 454 c 0
 123.612304688 454 104.60546875 431.49609375 93.001953125 419 c 0
 79.814453125 404.798828125 63.90234375 384.802734375 56.0009765625 369 c 1
 27.0009765625 387 l 1
 56.7841796875 441.6015625 109.259765625 494.70703125 165.000976562 524.5 c 0
 184.333984375 534.833007812 202.666992188 540 220 540 c 0
 259.112304688 540 270 516.6953125 270 473 c 0
 270 453.666992188 264.166992188 427.666992188 252.5 395 c 0
 240.833007812 362.333007812 225.666015625 320.333007812 206.999023438 269 c 2
 169.999023438 168 l 2
 163.254882812 151.138671875 155.913085938 127.418945312 151.5 108 c 0
 149.833007812 100.666992188 149 94.6669921875 149 90 c 0
 149 77.0029296875 156.270507812 67 170 67 c 0
 195.354492188 67 217.80078125 92.9072265625 232 109 c 0
 247.612304688 126.694335938 265.959960938 152.600585938 277 171 c 1
 307 154 l 1
 277.637695312 95.275390625 229.362304688 37.5634765625 171 6.5 c 0
 150.333007812 -4.5 129 -10 107 -10 c 0xf8
342.001953125 766.000976562 m 0xf4
 342.001953125 731.594726562 312.354492188 704.000976562 278.001953125 704.000976562 c 0
 243.90234375 704.000976562 216.001953125 730.227539062 216.001953125 765.000976562 c 0
 216.001953125 800.170898438 243.076171875 830.000976562 278.001953125 830.000976562 c 0
 314.077148438 830.000976562 342.001953125 801.426757812 342.001953125 766.000976562 c 0xf4
EndSplineSet
EndChar

StartChar: j
Encoding: 106 106 75
Width: 299
GlyphClass: 2
Flags: MW
HStem: -260 60<-119.923 -39.7471> 454 86<118.344 222.667> 704 126<219.95 254.176>
VStem: 143 113 175 126<748.797 782.585>
LayerCount: 2
Fore
SplineSet
301 766 m 0xe8
 301 731.59375 271.352539062 704 237 704 c 0
 202.900390625 704 175 730.2265625 175 765 c 0
 175 800.169921875 202.07421875 830 237 830 c 0
 273.075195312 830 301 801.42578125 301 766 c 0xe8
-191 -184 m 0
 -191 -150.3984375 -174.484375 -125 -141.999023438 -125 c 0
 -101.765625 -125 -96.001953125 -163.853515625 -81 -188.5 c 0
 -76.3330078125 -196.166992188 -69.3330078125 -200 -60 -200 c 0
 -19.494140625 -200 1.2783203125 -150.913085938 11 -113 c 2
 122 331 l 2
 128.666992188 357 133.833984375 378.333007812 137.500976562 395 c 0
 141.16796875 411.666992188 143.000976562 424.666992188 143.000976562 434 c 0
 143.000976562 447.333007812 138.000976562 454 128.000976562 454 c 0
 108.686523438 454 89.7158203125 431.560546875 78.5009765625 419 c 0
 65.8125 404.7890625 49.791015625 384.580078125 42.0009765625 369 c 1
 13.0009765625 387 l 1
 42.7841796875 441.6015625 95.259765625 494.70703125 151.000976562 524.5 c 0
 170.333984375 534.833007812 188.666992188 540 206 540 c 0
 239.333007812 540 256 521.333007812 256 484 c 0xf0
 256 462 251.5 433 242.5 397 c 0
 233.5 361 222 317.666992188 208 267 c 2
 125 -34 l 2
 100.553710938 -121.599609375 45.962890625 -199.80078125 -25 -240.5 c 0
 -47.6669921875 -253.5 -71 -260 -95 -260 c 0
 -144.845703125 -260 -191 -231.203125 -191 -184 c 0
EndSplineSet
EndChar

StartChar: k
Encoding: 107 107 76
Width: 513
GlyphClass: 2
Flags: MW
HStem: -10 90 0 21G<-1 90 -1 -1> 473 68 790 30<115 115 115 123.667> 810 20G<314 314>
VStem: 362 100
LayerCount: 2
Fore
SplineSet
361 541 m 0x2c
 418.381835938 541 462.001953125 512.754882812 462.001953125 457.999023438 c 0
 462.001953125 426.666015625 446.501953125 395.333007812 415.501953125 364 c 0
 384.501953125 332.666992188 341.334960938 304.333984375 286.001953125 279.000976562 c 2
 260.001953125 267.000976562 l 1
 311.001953125 135.000976562 l 2
 324.334960938 98.333984375 339.66796875 80.0009765625 357.000976562 80.0009765625 c 0
 376.333984375 80.0009765625 403.666992188 105.000976562 439 155.000976562 c 1
 465 141.000976562 l 1
 417 40.333984375 367.333007812 -9.9990234375 316 -9.9990234375 c 0xac
 300 -9.9990234375 286.833007812 -4.33203125 276.5 7.0009765625 c 0
 266.166992188 18.333984375 254.666992188 38.6669921875 242 68 c 2
 175 228 l 1
 153 218 l 1
 90 0 l 1
 -1 0 l 1
 192 717 l 2
 196.666992188 735 199 747.333007812 199 754 c 0
 199 768 192.666992188 777.5 180 782.5 c 0
 167.333007812 787.5 142.333007812 790 105 790 c 1
 115 820 l 1x74
 314 830 l 1
 210 445 l 1
 214 444 l 1
 252.666992188 508.666992188 301.666992188 541 361 541 c 0x2c
162.001953125 267.999023438 m 1
 234.858398438 293.4140625 309.00390625 332.5 347.002929688 389.499023438 c 0
 357.002929688 404.499023438 362.002929688 418.666015625 362.002929688 431.999023438 c 0
 362.002929688 459.33203125 348.3359375 472.999023438 321.002929688 472.999023438 c 0
 307.002929688 472.999023438 292.3359375 467.499023438 277.002929688 456.499023438 c 0
 222.541015625 417.428710938 182.145507812 343.078125 162.001953125 267.999023438 c 1
EndSplineSet
EndChar

StartChar: l
Encoding: 108 108 77
Width: 313
GlyphClass: 2
Flags: MW
HStem: -10 77 790 30 809 20G
VStem: 23 95
LayerCount: 2
Fore
SplineSet
91 -10 m 0xb0
 44.28125 -10 22.998046875 8.201171875 22.998046875 54.9990234375 c 0
 22.998046875 68.33203125 24.998046875 86.33203125 28.998046875 108.999023438 c 0
 32.998046875 131.666015625 39.998046875 162.666015625 49.998046875 201.999023438 c 2
 182.998046875 690.999023438 l 2
 187.716796875 707.985351562 197.998046875 737.200195312 197.998046875 754.999023438 c 0
 197.998046875 778.33203125 172.665039062 789.999023438 121.998046875 789.999023438 c 1
 129.998046875 819.999023438 l 1xd0
 312.998046875 828.999023438 l 1
 133.998046875 171.999023438 l 2
 125.788085938 144.2890625 117.998046875 118.821289062 117.998046875 89.9990234375 c 0
 117.998046875 77.001953125 125.268554688 66.9990234375 138.998046875 66.9990234375 c 0
 166.439453125 66.9990234375 192.006835938 95.1298828125 207.498046875 112.499023438 c 0
 224.6171875 131.693359375 244.665039062 160.221679688 255.998046875 180.999023438 c 1
 285.998046875 163.999023438 l 1
 257.025390625 98.3271484375 202.576171875 36.7041015625 141.499023438 4.5 c 0
 123.166015625 -5.1669921875 106.333007812 -10 91 -10 c 0xb0
EndSplineSet
EndChar

StartChar: m
Encoding: 109 109 78
Width: 870
GlyphClass: 2
Flags: MW
HStem: -10 78<619.015 700.001> 0 21G 488 52
VStem: 174 80 439 81 584 101 701 84
LayerCount: 2
Fore
SplineSet
638 -10 m 0xbe
 600.030273438 -10 584.002929688 27.9384765625 584.002929688 69 c 0
 584.002929688 96.9072265625 588.670898438 109.90625 597.502929688 139 c 0
 623.180664062 223.583984375 665.240234375 333.490234375 695.002929688 426.499023438 c 0
 699.255859375 439.790039062 701.002929688 445.659179688 701.002929688 458.998046875 c 0
 701.002929688 478.331054688 694.3359375 487.998046875 681.002929688 487.998046875 c 0
 663.002929688 487.998046875 641.669921875 475.831054688 617.002929688 451.498046875 c 0
 568.603515625 403.752929688 512.893554688 314.098632812 481.002929688 236.499023438 c 0
 449.984375 161.01953125 428.162109375 94.1259765625 395.00390625 -0.001953125 c 1
 301.00390625 -0.001953125 l 1
 367.00390625 200.998046875 l 2
 394.456054688 284.662109375 418.977539062 346.727539062 435.50390625 426.999023438 c 0
 437.836914062 438.33203125 439.00390625 447.665039062 439.00390625 454.998046875 c 0
 439.00390625 476.998046875 430.670898438 487.998046875 414.00390625 487.998046875 c 0
 400.670898438 487.998046875 384.670898438 480.331054688 366.00390625 464.998046875 c 0
 322.72265625 429.446289062 284.302734375 375.54296875 253.502929688 321.498046875 c 0
 235.8359375 290.498046875 221.002929688 258.998046875 209.002929688 226.998046875 c 2
 125.002929688 -0.001953125 l 1
 37.0029296875 -0.001953125 l 1x7e
 111.002929688 228.998046875 l 2
 131.17578125 290.579101562 146.345703125 338.106445312 161.001953125 391.498046875 c 0
 168.075195312 417.265625 174.001953125 432.89453125 174.001953125 456.997070312 c 0
 174.001953125 475.6640625 168.334960938 484.997070312 157.001953125 484.997070312 c 0
 149.668945312 484.997070312 141.168945312 480.6640625 131.501953125 471.997070312 c 0
 108.026367188 450.950195312 88.7890625 417.571289062 72.501953125 384.997070312 c 0
 62.8349609375 365.6640625 54.3349609375 345.331054688 47.001953125 323.998046875 c 1
 17.001953125 338.998046875 l 1
 40.3349609375 407.665039062 66.501953125 458.33203125 95.501953125 490.999023438 c 0
 124.501953125 523.666015625 157.668945312 539.999023438 195.001953125 539.999023438 c 0
 242.131835938 539.999023438 254.001953125 512.53515625 254.001953125 461.999023438 c 0
 254.001953125 429.999023438 248.334960938 399.33203125 237.001953125 369.999023438 c 1
 240.001953125 366.999023438 l 1
 302.001953125 482.33203125 367.668945312 539.999023438 437.001953125 539.999023438 c 0
 490.375976562 539.999023438 520.001953125 505.256835938 520.001953125 450.999023438 c 0
 520.001953125 417.759765625 513.27734375 401.963867188 503.001953125 365.999023438 c 1
 505.001953125 362.999023438 l 1
 536.458984375 416.924804688 567.288085938 463.374023438 608.001953125 498.999023438 c 0
 634.279296875 521.9921875 663.891601562 539.999023438 707.001953125 539.999023438 c 0
 761.916992188 539.999023438 785.001953125 509.872070312 785.001953125 452.999023438 c 0
 785.001953125 427.116210938 779.541992188 408.025390625 773.001953125 383.5 c 0
 752.000976562 304.748046875 713.869140625 207.124023438 693.000976562 131.999023438 c 0
 687.553710938 112.389648438 685.000976562 105.98828125 685.000976562 87 c 0
 685.000976562 74.3330078125 688.333984375 68 695.000976562 68 c 0
 705.000976562 68 720.000976562 77.5 740.000976562 96.5 c 0
 760.000976562 115.5 786.000976562 145 818.000976562 185 c 1
 844.000976562 171 l 1
 820.911132812 126.1796875 781.733398438 79.7998046875 745 47.5 c 0
 725.666992188 30.5 706.5 16.6669921875 687.5 6 c 0
 668.5 -4.6669921875 652 -10 638 -10 c 0xbe
EndSplineSet
EndChar

StartChar: n
Encoding: 110 110 79
Width: 627
GlyphClass: 2
Flags: MW
HStem: -10 78 0 21G<37 125 37 37> 488 52
VStem: 174 80<445.481 466.999> 342 100<77.999 84.5532> 452 96
LayerCount: 2
Fore
SplineSet
396 -10 m 0xbc
 358.06640625 -10 342 29.0205078125 342 69.9990234375 c 0
 342 99.107421875 346.325195312 110.721679688 355 140 c 0
 376.3359375 212.009765625 408.07421875 293.224609375 435.999023438 377 c 0
 444.251953125 401.7578125 451.999023438 422.092773438 451.999023438 451 c 0
 451.999023438 475.666992188 442.999023438 488 424.999023438 488 c 0
 408.999023438 488 390.83203125 479.833007812 370.499023438 463.5 c 0
 322.712890625 425.114257812 281.405273438 365.901367188 247.999023438 306 c 0
 228.666015625 271.333007812 212.333007812 236 199 200 c 2
 125 0 l 1
 37 0 l 1x7c
 111 229 l 2
 130.458007812 288.453125 145.700195312 336.206054688 160.5 388.499023438 c 0
 167.977539062 414.919921875 174 432.962890625 174 457.999023438 c 0
 174 475.999023438 168.333007812 484.999023438 157 484.999023438 c 0
 149.666992188 484.999023438 141 480.33203125 131 470.999023438 c 0
 94.0732421875 436.534179688 65.208984375 378.625976562 47 323.999023438 c 1
 17 338.999023438 l 1
 40.3330078125 407.666015625 66.5 458.333007812 95.5 491 c 0
 124.5 523.666992188 157.666992188 540 195 540 c 0
 242.53515625 540 254 512.32421875 254 461 c 0
 254 427 248.333007812 396.666992188 237 370 c 1
 240 367 l 1
 274 427 308.5 470.833007812 343.5 498.5 c 0
 378.5 526.166992188 416.666992188 540 458 540 c 0
 513.919921875 540 548 513.381835938 548 459 c 0
 548 433.829101562 543.454101562 415.703125 537 391.5 c 0
 525.396484375 347.98828125 511.3125 310.9375 495 262 c 0
 479.666992188 216.666992188 467 178.666992188 457 148 c 0
 447 117.333007812 442 95.666015625 442 82.9990234375 c 0
 442 72.9990234375 445.333007812 67.9990234375 452 67.9990234375 c 0
 461.333007812 67.9990234375 475 75.666015625 493 90.9990234375 c 0
 511 106.33203125 535.333007812 130.999023438 566 164.999023438 c 1
 592 150.999023438 l 1
 570.184570312 110.094726562 532.274414062 70.0830078125 497.5 40.9990234375 c 0
 479.166992188 25.666015625 461 13.3330078125 443 4 c 0
 425 -5.3330078125 409.333007812 -10 396 -10 c 0xbc
EndSplineSet
EndChar

StartChar: o
Encoding: 111 111 80
Width: 523
GlyphClass: 2
Flags: MW
HStem: -10 50 493 47
VStem: 24 105 380 96<299.951 429.706>
LayerCount: 2
Fore
SplineSet
187 -10 m 0
 105.130859375 -10 58.826171875 43.5400390625 37 106.500976562 c 0
 28.3330078125 131.500976562 24 159.66796875 24 191.000976562 c 0
 24 287.969726562 66.5419921875 374.08984375 113 431.000976562 c 0
 156.422851562 484.193359375 223.959960938 540.000976562 311 540.000976562 c 0
 394.23046875 540.000976562 441.287109375 489.586914062 463.5 426.500976562 c 0
 471.833007812 402.833984375 476 376.666992188 476 348 c 0
 476 251.90234375 431.411132812 163.814453125 385.5 106 c 0
 358.5 72 327.666992188 44.1669921875 293 22.5 c 0
 258.333007812 0.8330078125 223 -10 187 -10 c 0
380 400.000976562 m 0
 380 459.41015625 363.084960938 493 310.999023438 493 c 0
 272.486328125 493 243.590820312 461.44921875 223.999023438 435 c 0
 182.551757812 379.045898438 150.28515625 302.155273438 135.999023438 219.5 c 0
 131.33203125 192.5 128.999023438 166.666992188 128.999023438 142 c 0
 128.999023438 104.666992188 134.999023438 78.333984375 146.999023438 63.0009765625 c 0
 158.999023438 47.66796875 174.33203125 40.0009765625 192.999023438 40.0009765625 c 0
 215.666015625 40.0009765625 238.166015625 51.66796875 260.499023438 75.0009765625 c 0
 307.48046875 124.0859375 342.928710938 201.45703125 363.5 280.000976562 c 0
 374.5 322.000976562 380 362.000976562 380 400.000976562 c 0
EndSplineSet
Substitution2: "Single Substitution lookup 7 subtable" ordmasculine
EndChar

StartChar: p
Encoding: 112 112 81
Width: 563
GlyphClass: 2
Flags: MW
HStem: -250 40<-89.001 -62.9238 -89.001 187.999 -95.001 -62.9238> 490 49
VStem: 421 104
LayerCount: 2
Fore
SplineSet
180 454 m 1
 128.254882812 426.765625 80.7470703125 388.330078125 42 347 c 1
 15 375 l 1
 62.2861328125 428.67578125 124.842773438 476.111328125 195 505 c 1
 242 665 l 1
 318 665 l 1
 283 532 l 1
 303.104492188 535.76953125 323.081054688 539 345.999023438 539 c 0
 458.052734375 539 524.999023438 475.458984375 524.999023438 364 c 0
 524.999023438 262.53515625 468.528320312 186.721679688 409.499023438 135 c 0
 344.328125 77.8984375 250.341796875 32.1005859375 145.999023438 18 c 1
 108.999023438 -121 l 2
 103.7109375 -136.865234375 100.999023438 -147.21484375 100.999023438 -164 c 0
 100.999023438 -206.48046875 142.204101562 -209.00390625 193.999023438 -210 c 1
 187.999023438 -250 l 1
 -95.0009765625 -250 l 1
 -89.0009765625 -210 l 1
 -36.8466796875 -210 -12.609375 -201.729492188 -1 -164 c 2
 180 454 l 1
421 358 m 0
 421 429.473632812 387.598632812 489.999023438 320 489.999023438 c 0
 302.177734375 489.999023438 285.53515625 487.587890625 270 484.999023438 c 1
 157 60.9990234375 l 1
 269.0546875 83.41015625 355.884765625 160.745117188 398.5 254.5 c 0
 413.5 287.5 421 322 421 358 c 0
EndSplineSet
EndChar

StartChar: q
Encoding: 113 113 82
Width: 535
GlyphClass: 2
Flags: MW
HStem: -250 40 -10 60 488 52
VStem: 15 104<114.001 164.334 114.001 204.613>
LayerCount: 2
Fore
SplineSet
323 -174 m 0
 323 -206.94140625 357.4609375 -209.053710938 400 -209.999023438 c 1
 394 -249.999023438 l 1
 136 -249.999023438 l 1
 142 -209.999023438 l 1
 194.154296875 -209.999023438 218.391601562 -201.728515625 230.000976562 -163.999023438 c 2
 303.000976562 85.0009765625 l 1
 300.000976562 87.0009765625 l 1
 269.826171875 33.357421875 221.750976562 -9.9990234375 146 -9.9990234375 c 0
 55.1279296875 -9.9990234375 15 57.724609375 15 153.000976562 c 0
 15 256.225585938 61.125 351.23828125 109 414.500976562 c 0
 137 451.500976562 168.333007812 481.66796875 203 505.000976562 c 0
 237.666992188 528.333984375 272.666992188 540.000976562 308 540.000976562 c 0
 364.96875 540.000976562 389.967773438 510.51171875 414 469.000976562 c 1
 438 540.000976562 l 1
 514 540.000976562 l 1
 330 -138.999023438 l 2
 325.333007812 -155.666015625 323 -167.333007812 323 -174 c 0
313 488.000976562 m 0
 291.666992188 488.000976562 269.500976562 477 246.500976562 455 c 0
 197.979492188 408.588867188 159.4765625 337.045898438 137 261.500976562 c 0
 125 221.16796875 119 182.66796875 119 146.000976562 c 0
 119 82.0009765625 138.333007812 50.0009765625 177 50.0009765625 c 0
 199 50.0009765625 221.5 60.16796875 244.5 80.5009765625 c 0
 293.237304688 123.587890625 330.643554688 192.842773438 353 265.500976562 c 0
 365 304.500976562 371 342.333984375 371 379.000976562 c 0
 371 451.66796875 351.666992188 488.000976562 313 488.000976562 c 0
EndSplineSet
EndChar

StartChar: r
Encoding: 114 114 83
Width: 463
GlyphClass: 2
Flags: MW
HStem: 0 21G 462 78 463 87
VStem: 160 90
LayerCount: 2
Fore
SplineSet
497 486 m 0xb0
 497 451.541992188 472.484375 426.001953125 438.000976562 426.001953125 c 0
 410.021484375 426.001953125 396.733398438 443.26953125 383.000976562 457.001953125 c 0
 379.000976562 461.001953125 374.000976562 463.001953125 368.000976562 463.001953125 c 0xb0
 355.333984375 463.001953125 340.666992188 454.501953125 324 437.501953125 c 0
 281.900390625 394.560546875 247.821289062 330.284179688 218.5 265.001953125 c 0
 200.833007812 225.668945312 184.666015625 183.3359375 169.999023438 138.002929688 c 2
 124.999023438 0.0029296875 l 1
 31.9990234375 0.0029296875 l 1
 96.9990234375 207.002929688 l 2
 117.283203125 271.059570312 133.421875 317.318359375 147.999023438 372.502929688 c 0
 155.237304688 399.90625 159.999023438 414.212890625 159.999023438 440.002929688 c 0
 159.999023438 454.669921875 154.999023438 462.002929688 144.999023438 462.002929688 c 0
 125.958007812 462.002929688 104.725585938 444.911132812 91.9990234375 434.002929688 c 0
 75.52734375 419.883789062 55.734375 398.3828125 47 378.001953125 c 1
 21 391.001953125 l 1
 37.2314453125 427.892578125 72.4970703125 465.348632812 103.5 490.501953125 c 0
 121.166992188 504.834960938 139 516.66796875 157 526.000976562 c 0
 175 535.333984375 190.666992188 540.000976562 204 540.000976562 c 0xd0
 242.266601562 540.000976562 250 507.592773438 250 464.000976562 c 0
 250 438.115234375 247.791992188 421.9609375 243 398.000976562 c 1
 246 395.000976562 l 1
 270.696289062 454.682617188 323.946289062 508.19921875 379.5 536.5 c 0
 397.166992188 545.5 413.666992188 550 429 550 c 0
 466.318359375 550 497 522.771484375 497 486 c 0xb0
EndSplineSet
EndChar

StartChar: s
Encoding: 115 115 84
Width: 381
GlyphClass: 2
Flags: MW
HStem: -10 44<109.294 143.548> 497 43<231.001 233.346>
VStem: -13 99 77 91 205 89 262 93
LayerCount: 2
Fore
SplineSet
127 34 m 0xe8
 175.866210938 34 205.000976562 65.5224609375 205.000976562 114.999023438 c 0xe8
 205.000976562 141.666015625 198.333984375 165.333007812 185.000976562 186 c 0
 157.930664062 227.958984375 123.280273438 265.638671875 97.0009765625 309 c 0
 83.66796875 331 77.0009765625 357 77.0009765625 387 c 0
 77.0009765625 460.774414062 121.749023438 507.85546875 176.500976562 528.5 c 0
 196.833984375 536.166992188 219.000976562 540 243.000976562 540 c 0
 300.615234375 540 355.000976562 509.109375 355.000976562 454 c 0
 355.000976562 426.608398438 339.099609375 409 312.000976562 409 c 0
 280.9296875 409 271.200195312 430.817382812 262.000976562 452.5 c 0
 253.73046875 471.995117188 246.69140625 497 220.000976562 497 c 0
 187.987304688 497 168.000976562 464.506835938 168.000976562 431 c 0xd4
 168.000976562 409 174.500976562 388.5 187.500976562 369.5 c 0
 215.23828125 328.9609375 250.051757812 288.391601562 274.500976562 242 c 0
 287.500976562 217.333007812 294.000976562 188.333007812 294.000976562 155 c 0
 294.000976562 104.069335938 268.9375 64.615234375 240.500976562 38.5 c 0
 212.004882812 12.330078125 169.096679688 -10 118 -10 c 0
 49.0673828125 -10 -13 20.166015625 -13 84 c 0
 -13 119.143554688 3.576171875 146 37 146 c 0
 65.6669921875 146 82 126.333007812 86 87 c 0
 89.435546875 50.3515625 91.5888671875 34 127 34 c 0xe8
EndSplineSet
EndChar

StartChar: t
Encoding: 116 116 85
Width: 365
GlyphClass: 2
Flags: MW
HStem: -10 77 447 46
VStem: 38 96
LayerCount: 2
Fore
SplineSet
104 -10 m 0
 57.2294921875 -10 38.0009765625 8.203125 38.0009765625 55.0009765625 c 0
 38.0009765625 68.333984375 40.333984375 86.333984375 45.0009765625 109.000976562 c 0
 49.66796875 131.66796875 57.66796875 162.66796875 69.0009765625 202.000976562 c 2
 143.000976562 447.000976562 l 1
 57.0009765625 447.000976562 l 1
 70.0009765625 493.000976562 l 1
 157.000976562 493.000976562 l 1
 209.000976562 665.000976562 l 1
 301.000976562 665.000976562 l 1
 249.000976562 493.000976562 l 1
 358.000976562 493.000976562 l 1
 344.000976562 447.000976562 l 1
 235.000976562 447.000976562 l 1
 152.000976562 172.000976562 l 2
 140.66796875 136.000976562 134.66796875 108.66796875 134.000976562 90.0009765625 c 0
 134.000976562 76.9775390625 140.208007812 67.0009765625 154.000976562 67.0009765625 c 0
 184.37109375 67.0009765625 212.568359375 94.568359375 230.500976562 112.500976562 c 0
 249.795898438 131.795898438 271.737304688 160.158203125 285.000976562 181 c 1
 314.000976562 164 l 1
 291.268554688 118.53515625 253.578125 74.0986328125 216.000976562 43 c 0
 187.486328125 19.40234375 147.318359375 -10 104 -10 c 0
EndSplineSet
EndChar

StartChar: u
Encoding: 117 117 86
Width: 593
GlyphClass: 2
Flags: MW
HStem: -10 72 462 78<146.668 230.667>
VStem: 45 103 160 104 319 85
LayerCount: 2
Fore
SplineSet
148 100 m 0
 148 79.2548828125 152.374023438 61.9990234375 169.00390625 61.9990234375 c 0
 179.670898438 61.9990234375 193.670898438 69.4990234375 211.00390625 84.4990234375 c 0
 252.890625 120.747070312 291.372070312 175.659179688 322.50390625 229.999023438 c 0
 340.836914062 261.999023438 356.336914062 295.33203125 369.00390625 329.999023438 c 2
 443.00390625 529.999023438 l 1
 536.00390625 529.999023438 l 1
 462.00390625 300.999023438 l 2
 444.610351562 246.643554688 430.620117188 203.15625 417.00390625 155.499023438 c 0
 410.09375 131.3125 404.00390625 113.84375 404.00390625 91 c 0
 404.00390625 73.6669921875 410.00390625 65 422.00390625 65 c 0
 442.37890625 65 461.9765625 86.2451171875 474.502929688 100.5 c 0
 494.177734375 122.887695312 513.079101562 151.274414062 526.002929688 181 c 1
 556.002929688 166 l 1
 538.36328125 121.22265625 507.828125 76.96484375 476.502929688 45 c 0
 451.377929688 19.3623046875 415.788085938 -10 372.002929688 -10 c 0
 326.685546875 -10 319.002929688 26.6962890625 319.002929688 75 c 0
 319.002929688 100.616210938 321.2734375 127.537109375 326.002929688 150 c 1
 323.002929688 153 l 1
 292.8125 99.328125 262.481445312 56.8369140625 221.002929688 24 c 0
 195.225585938 3.5927734375 168.239257812 -10 129.002929688 -10 c 0
 70.2998046875 -10 45.0029296875 24.5859375 45.0029296875 80 c 0
 45.0029296875 144.010742188 75.0546875 218.129882812 95.0029296875 268 c 0
 118.868164062 327.6640625 140.975585938 372.329101562 156.501953125 430 c 0
 158.834960938 438.666992188 160.001953125 445.666992188 160.001953125 451 c 0
 160.001953125 457.493164062 158.2578125 462 151.001953125 462 c 0
 142.334960938 462 129.834960938 454.333007812 113.501953125 439 c 0
 97.1689453125 423.666992188 75.001953125 399 47.001953125 365 c 1
 21.001953125 379 l 1
 41.58203125 418.7890625 75.2880859375 460.061523438 108.000976562 489 c 0
 134.150390625 512.131835938 172.1171875 540 214.000976562 540 c 0
 247.333984375 540 264.000976562 520.666992188 264.000976562 482 c 0
 264.000976562 458.666992188 257.500976562 428.5 244.500976562 391.5 c 0
 224.612304688 334.89453125 182.25390625 234.760742188 161 171 c 0
 152.333007812 145 148 121.333007812 148 100 c 0
EndSplineSet
EndChar

StartChar: v
Encoding: 118 118 87
Width: 578
GlyphClass: 2
Flags: MW
HStem: -10 69 479 61
VStem: 19 69 105 105 461 87
LayerCount: 2
Fore
SplineSet
210 178 m 0
 210 122.696289062 227.880859375 58.9990234375 275.998046875 58.9990234375 c 0
 294.665039062 58.9990234375 314.665039062 68.9990234375 335.998046875 88.9990234375 c 0
 380.482421875 130.703125 419.255859375 194.669921875 442.498046875 260 c 0
 454.831054688 294.666992188 460.998046875 327 460.998046875 357 c 0
 460.998046875 395.7265625 449.186523438 423.24609375 441.498046875 454 c 0
 439.165039062 463.333007812 437.998046875 473 437.998046875 483 c 0
 437.998046875 521 455.331054688 540 489.998046875 540 c 0
 539.1875 540 547.998046875 500.984375 547.998046875 445 c 0
 547.998046875 364.83203125 525.947265625 291.671875 498.998046875 232.5 c 0
 469.442382812 167.60546875 426.803710938 106.073242188 378.999023438 61 c 0
 342.328125 26.4248046875 293.799804688 -10 231.998046875 -10 c 0
 170.05078125 -10 131.471679688 28.5458984375 114.498046875 75 c 0
 108.165039062 92.3330078125 104.998046875 111 104.998046875 131 c 0
 104.998046875 169 115.331054688 213.666992188 135.998046875 265 c 0
 156.665039062 316.333007812 185.998046875 369.333007812 223.998046875 424 c 1
 221.998046875 427 l 1
 173.98046875 427 149.56640625 449.889648438 124.498046875 471 c 0
 118.165039062 476.333007812 111.665039062 479 104.998046875 479 c 0
 93.6650390625 479 87.998046875 473.333007812 87.998046875 462 c 0
 87.998046875 448.555664062 98.3486328125 439.69921875 105.498046875 432 c 0
 113.686523438 423.181640625 122.998046875 412.607421875 122.998046875 396 c 0
 122.998046875 370.225585938 99.8642578125 355 72.998046875 355 c 0
 36.92578125 355 18.998046875 379.05859375 18.998046875 416 c 0
 18.998046875 472.873046875 55.1923828125 512.086914062 95.498046875 530.000976562 c 0
 110.498046875 536.66796875 126.331054688 540.000976562 142.998046875 540.000976562 c 0
 182.32421875 540.000976562 201.405273438 517.68359375 226.498046875 503.500976562 c 0
 234.165039062 499.16796875 243.33203125 497.000976562 253.999023438 497.000976562 c 0
 266.666015625 497.000976562 277.999023438 502.000976562 287.999023438 512.000976562 c 0
 301.999023438 524.66796875 311.499023438 532.500976562 316.499023438 535.500976562 c 0
 321.499023438 538.500976562 327.999023438 540.000976562 335.999023438 540.000976562 c 0
 349.33203125 540.000976562 355.999023438 534.333984375 355.999023438 523.000976562 c 0
 355.999023438 509.048828125 347.21484375 501.254882812 338.499023438 491.000976562 c 0
 316.688476562 465.341796875 291.036132812 433.227539062 272.999023438 400.000976562 c 0
 249.18359375 356.129882812 229.282226562 304.797851562 218 250.500976562 c 0
 212.666992188 224.833984375 210 200.666992188 210 178 c 0
EndSplineSet
EndChar

StartChar: w
Encoding: 119 119 88
Width: 850
GlyphClass: 2
Flags: MW
HStem: -10 74<230.79 231.334> -10 85<539.427 542.333> 458 82 479 61<101.668 165.208>
VStem: 22 69 98 95 389 69 522 68 729 87
LayerCount: 2
Fore
SplineSet
525 -10 m 0x5f80
 457.908203125 -10 424.456054688 39.18359375 407.001953125 97 c 1
 377.001953125 62.3330078125 345.668945312 35.8330078125 313.001953125 17.5 c 0
 280.334960938 -0.8330078125 247.66796875 -10 215.000976562 -10 c 0
 137.498046875 -10 98.0009765625 44.8388671875 98.0009765625 125 c 0
 98.0009765625 208.333007812 141.000976562 308 227.000976562 424 c 1
 225.000976562 427 l 1
 176.983398438 427 152.569335938 449.889648438 127.500976562 471 c 0
 121.16796875 476.333007812 114.334960938 479 107.001953125 479 c 0
 96.3349609375 479 91.001953125 473.333007812 91.001953125 462 c 0
 91.001953125 448.555664062 101.352539062 439.69921875 108.501953125 432 c 0
 116.690429688 423.181640625 126.001953125 412.607421875 126.001953125 396 c 0
 126.001953125 370.225585938 102.868164062 355 76.001953125 355 c 0
 39.9296875 355 22.001953125 379.05859375 22.001953125 415.999023438 c 0
 22.001953125 471.750976562 58.8447265625 512.374023438 98.501953125 530 c 0
 113.501953125 536.666992188 129.001953125 540 145.001953125 540 c 0
 185.415039062 540 203.864257812 517.991210938 229.501953125 503.5 c 0
 237.168945312 499.166992188 246.001953125 497 256.001953125 497 c 0
 270.79296875 497 276.615234375 502.612304688 286.002929688 512 c 0
 297.931640625 523.928710938 311.668945312 540 333.001953125 540 c 0x9f80
 347.001953125 540 354.001953125 533.333007812 354.001953125 520 c 0
 354.001953125 506.536132812 343.186523438 498.219726562 335.001953125 488.500976562 c 0
 310.702148438 459.64453125 281.47265625 424.728515625 261.501953125 391 c 0
 234.436523438 345.290039062 213.024414062 294.858398438 201.000976562 238.5 c 0
 195.66796875 213.5 193.000976562 190 193.000976562 168 c 0
 193.000976562 115.604492188 207.578125 64 254.000976562 64 c 0
 272.000976562 64 293.000976562 72.8330078125 317.000976562 90.5 c 0
 341.000976562 108.166992188 366.66796875 133 394.000976562 165 c 1
 391.608398438 190.119140625 389.000976562 221.8125 389.000976562 247.999023438 c 0
 389.000976562 322.876953125 409.072265625 396.772460938 434.000976562 448.499023438 c 0
 447.333984375 476.166015625 462.666992188 498.333007812 480 515 c 0
 497.333007812 531.666992188 515 540 533 540 c 0xaf80
 547.666992188 540 560.833984375 533.666992188 572.500976562 521 c 0
 584.16796875 508.333007812 590.000976562 487 590.000976562 457 c 0
 590.000976562 421 580.333984375 379.333007812 561.000976562 332 c 0
 541.66796875 284.666992188 513.66796875 235 477.000976562 183 c 1
 485.958984375 135.224609375 514.852539062 75 564.001953125 75 c 0
 582.668945312 75 601.668945312 83.6669921875 621.001953125 101 c 0
 662.055664062 137.806640625 694.270507812 196.084960938 713.501953125 257.5 c 0
 723.834960938 290.5 729.001953125 322.666992188 729.001953125 354 c 0
 729.001953125 395.364257812 717.728515625 421.768554688 709.501953125 453.5 c 0
 707.168945312 462.5 706.001953125 472.333007812 706.001953125 483 c 0
 706.001953125 521 723.334960938 540 758.001953125 540 c 0
 808.095703125 540 816.001953125 497.959960938 816.001953125 440 c 0
 816.001953125 322.219726562 771.271484375 210.297851562 722.501953125 134.5 c 0
 694.834960938 91.5 663.66796875 56.6669921875 629.000976562 30 c 0
 594.333984375 3.3330078125 559.666992188 -10 525 -10 c 0x5f80
463.001953125 247 m 1
 492.162109375 295.2265625 522.002929688 350.626953125 522.002929688 420.000976562 c 0
 522.002929688 445.333984375 517.002929688 458.000976562 507.002929688 458.000976562 c 0x2f80
 488.344726562 458.000976562 478.015625 428.661132812 472.501953125 410.000976562 c 0
 463.390625 379.1640625 458.001953125 337.258789062 458.001953125 296.000976562 c 0
 458.001953125 277.229492188 458.973632812 261.771484375 463.001953125 247 c 1
EndSplineSet
EndChar

StartChar: x
Encoding: 120 120 89
Width: 578
GlyphClass: 2
Flags: MW
HStem: -10 58<12.2339 102.983> 481 59<212.241 274.876>
VStem: -51 116.5 465.5 102.5
LayerCount: 2
Fore
SplineSet
568 461 m 0
 568 429.700195312 549.06640625 406.997070312 518.000976562 406.997070312 c 0
 478.41015625 406.997070312 477.959960938 444.446289062 465.500976562 470.497070312 c 0
 461.833984375 478.1640625 455.000976562 481.997070312 445.000976562 481.997070312 c 0
 415.368164062 481.997070312 393.700195312 451.897460938 379.501953125 428.997070312 c 0
 357.02734375 392.747070312 339.046875 344.310546875 328.001953125 293.997070312 c 2
 314.001953125 232.997070312 l 2
 303.334960938 187.6640625 298.001953125 150.331054688 298.001953125 120.998046875 c 0
 298.001953125 69.6650390625 315.668945312 43.998046875 351.001953125 43.998046875 c 0
 373.001953125 43.998046875 396.001953125 53.3310546875 420.001953125 71.998046875 c 0
 444.001953125 90.6650390625 471.668945312 120.33203125 503.001953125 160.999023438 c 1
 533.001953125 142.999023438 l 1
 500.575195312 81.7490234375 449.495117188 26.470703125 383.500976562 0.9990234375 c 0
 364.500976562 -6.333984375 346.000976562 -10.0009765625 328.000976562 -10.0009765625 c 0
 259.563476562 -10.0009765625 224.065429688 43.06640625 217.000976562 108.999023438 c 1
 214.000976562 109.999023438 l 1
 186.297851562 60.1337890625 142.704101562 18.8359375 86.5009765625 -1 c 0
 69.5009765625 -7 53.0009765625 -10 37.0009765625 -10 c 0
 -12.533203125 -10 -50.9990234375 20.5693359375 -50.9990234375 69 c 0
 -50.9990234375 105.641601562 -28.37890625 131 8.0009765625 131 c 0
 53.060546875 131 52.615234375 91.4580078125 65.5009765625 61 c 0
 69.16796875 52.3330078125 76.66796875 48 88.0009765625 48 c 0
 117.96484375 48 139.274414062 75.890625 154.500976562 98.5 c 0
 179.208984375 135.188476562 198.5546875 182.440429688 213 233 c 2
 241 330 l 2
 253 370.666992188 259 403 259 427 c 0
 259 463 248 481 226 481 c 0
 198.482421875 481 171.344726562 459.66015625 152 444 c 0
 123.763671875 421.141601562 94.6591796875 389.98828125 74 359 c 1
 44 377 l 1
 62.4140625 419.495117188 100.744140625 460.0390625 136 488 c 0
 155.333007812 503.333007812 174.833007812 515.833007812 194.5 525.5 c 0
 214.166992188 535.166992188 232 540 248 540 c 0
 301.751953125 540 336 491.6328125 336 436 c 1
 364.946289062 482.913085938 419.458007812 540 485 540 c 0
 530.244140625 540 568 505.701171875 568 461 c 0
EndSplineSet
EndChar

StartChar: y
Encoding: 121 121 90
Width: 515
GlyphClass: 2
Flags: MW
HStem: -260 60<-45.4194 24.3335> 437 103<87.6665 145.333>
VStem: -111 108.5 -9 37<318 328> 395 106<453.333 485.18 453.333 489.622>
LayerCount: 2
Fore
SplineSet
-111 -181 m 0xe8
 -111 -148.916992188 -91.5390625 -125 -60 -125 c 0
 -21.388671875 -125 -16.2548828125 -164.163085938 -2.4990234375 -188.5 c 0xe8
 1.833984375 -196.166992188 8.6669921875 -200 18 -200 c 0
 30.6669921875 -200 46.6669921875 -193 66 -179 c 0
 108.056640625 -148.544921875 147.534179688 -102.930664062 178.5 -58 c 0
 195.5 -33.3330078125 207.666992188 -10.3330078125 215 11 c 1
 161 292 l 2
 150.333007812 346.666992188 139.5 384.5 128.5 405.5 c 0
 117.5 426.5 106 437 94 437 c 0
 81.3330078125 437 69.8330078125 427.5 59.5 408.5 c 0
 49.1669921875 389.5 38.6669921875 359.333007812 28 318 c 1
 -9 328 l 1xd8
 3.51171875 385.553710938 25.966796875 440.258789062 53.5 480.5 c 0
 72.6044921875 508.421875 99.982421875 540 139 540 c 0
 151.666992188 540 162.5 535.333007812 171.5 526 c 0
 180.5 516.666992188 189.666992188 499.333984375 199 474.000976562 c 0
 220.494140625 416.682617188 238.796875 342.841796875 254 269 c 2
 288 108 l 1
 292 108 l 1
 332.362304688 158.983398438 371.510742188 223.810546875 392 294.499023438 c 0
 398.666992188 317.499023438 402 338.999023438 402 358.999023438 c 0
 402 395.318359375 395 434.090820312 395 469.999023438 c 0
 395 509.244140625 416.690429688 539.999023438 451 539.999023438 c 0
 486.958984375 539.999023438 501 503.361328125 501 466.999023438 c 0
 501 439.666015625 493.666992188 404.666015625 479 361.999023438 c 0
 444.866210938 262.700195312 392.837890625 163.755859375 338 74.4990234375 c 0
 275.924804688 -26.5380859375 180.974609375 -153.236328125 100.5 -212.5 c 0
 57.5 -244.166992188 17.3330078125 -260 -20 -260 c 0
 -70.8388671875 -260 -111 -229.267578125 -111 -181 c 0xe8
EndSplineSet
EndChar

StartChar: z
Encoding: 122 122 91
Width: 519
GlyphClass: 2
Flags: MW
HStem: -10 95<271.904 359.666> 0 21G<13 38.5654> 476 64<140.523 242.465>
VStem: -9 75 50 65 439 34
LayerCount: 2
Fore
SplineSet
117 322 m 0x6c
 72.4814453125 322 49.9990234375 353.352539062 49.9990234375 399 c 0
 49.9990234375 467.668945312 94.9248046875 509.626953125 145.999023438 529 c 0
 165.33203125 536.333007812 185.999023438 540 207.999023438 540 c 0
 276.931640625 540 309.577148438 502.81640625 347.999023438 474 c 0
 358.666015625 466 369.999023438 462 381.999023438 462 c 0
 405.630859375 462 414.446289062 479.89453125 422.499023438 496 c 0
 430.564453125 512.131835938 437.357421875 530 460.999023438 530 c 0
 480.33203125 530 489.999023438 519.666992188 489.999023438 499 c 0
 489.999023438 472.870117188 475.268554688 459.26953125 459.499023438 443.5 c 0
 361.0546875 345.944335938 259.665039062 251.333984375 159.999023438 155 c 1
 161.999023438 152 l 1
 196.772460938 152 229.08203125 131.998046875 254.999023438 118.5 c 0
 281.408203125 104.745117188 314.149414062 85 349.999023438 85 c 0
 369.33203125 85 385.999023438 91 399.999023438 103 c 0
 413.999023438 115 426.999023438 137 438.999023438 169 c 1
 472.999023438 156 l 1
 454.279296875 86.7373046875 412.848632812 28.333984375 352.499023438 2 c 0
 334.166015625 -6 315.333007812 -10 296 -10 c 0xac
 247.80859375 -10 215.80859375 13.1591796875 189 35.5 c 0
 175 47.1669921875 161.5 57.6669921875 148.5 67 c 0
 135.5 76.3330078125 121.666992188 81 107 81 c 0
 78.8974609375 81 72.724609375 61.3466796875 66 40.5 c 0
 59.10546875 19.1279296875 53.130859375 0 24 0 c 0
 2 0 -9 10 -9 30 c 0x74
 -9 42.6669921875 -3.6669921875 55.6669921875 7 69 c 0
 17.6669921875 82.3330078125 34.333984375 100 57.0009765625 122 c 2
 333.000976562 389 l 1
 331.000976562 392 l 1
 317.66796875 392 303.500976562 396.333007812 288.500976562 405 c 0
 258.51953125 422.322265625 226.140625 446.049804688 195.5 463 c 0
 179.833007812 471.666992188 165 476 151 476 c 0
 130.045898438 476 115 465.052734375 115 445 c 0
 115 425.540039062 128.646484375 418.610351562 140.5 410.5 c 0
 153.956054688 401.29296875 166 391.43359375 166 368 c 0
 166 337.333007812 149.666992188 322 117 322 c 0x6c
EndSplineSet
EndChar

StartChar: braceleft
Encoding: 123 123 92
Width: 336
GlyphClass: 2
Flags: MW
HStem: -150 22 330 25 807 23<426.001 426.001>
VStem: 25 91 98 92
LayerCount: 2
Fore
SplineSet
120 340 m 1xe8
 164.251953125 330.922851562 190.000976562 313.525390625 190.000976562 266.002929688 c 0xe8
 190.000976562 248.002929688 186.333984375 225.3359375 179.000976562 198.002929688 c 2
 126.000976562 0.0029296875 l 2
 120.512695312 -18.6591796875 116.000976562 -37.06640625 116.000976562 -57.998046875 c 0
 116.000976562 -99.8837890625 140.524414062 -116.944335938 177.000976562 -127.998046875 c 1
 171.000976562 -149.998046875 l 1
 119.000976562 -149.998046875 81.66796875 -144.331054688 59.0009765625 -132.998046875 c 0
 36.333984375 -121.665039062 25.0009765625 -99.998046875 25.0009765625 -67.998046875 c 0xf0
 25.0009765625 -49.3310546875 29.0009765625 -25.3310546875 37.0009765625 4.001953125 c 2
 90.0009765625 200.001953125 l 2
 95.333984375 219.334960938 98.0009765625 237.334960938 98.0009765625 254.001953125 c 0
 98.0009765625 297.439453125 78.87890625 326.326171875 36.0009765625 330.000976562 c 1
 43.0009765625 355.000976562 l 1
 97.9462890625 365.990234375 129.84765625 387.74609375 149.000976562 433.500976562 c 0
 155.000976562 447.833984375 160.66796875 464.666992188 166.000976562 484 c 2
 214.000976562 659 l 2
 236.193359375 740.939453125 261.83203125 800.548828125 342.500976562 821 c 0
 366.16796875 827 396.000976562 830 432.000976562 830 c 1
 426.000976562 807 l 1
 356.655273438 790.357421875 327.079101562 749.729492188 309.000976562 680 c 2
 261.000976562 501 l 2
 239.743164062 418.626953125 207.456054688 362.799804688 121 345 c 1
 120 340 l 1xe8
EndSplineSet
EndChar

StartChar: bar
Encoding: 124 124 93
Width: 350
GlyphClass: 2
Flags: MW
HStem: -250 21G<127 207 127 127>
VStem: 127 80<-250 820 -250 820>
LayerCount: 2
Fore
SplineSet
207 820 m 1
 207 -250 l 1
 127 -250 l 1
 127 820 l 1
 207 820 l 1
EndSplineSet
EndChar

StartChar: braceright
Encoding: 125 125 94
Width: 336
GlyphClass: 2
Flags: MW
HStem: -150 22 330 25 807 23
VStem: 163 87<400.426 429.667 400.426 438.015> 233 91<730.382 754.999>
LayerCount: 2
Fore
SplineSet
250 422 m 0xf0
 250 378.8515625 276.004882812 363.884765625 316 354.997070312 c 1
 309 329.997070312 l 1
 237.25390625 324.478515625 201.536132812 260.631835938 184.999023438 199.997070312 c 2
 131.999023438 3.9970703125 l 2
 111.333984375 -73.49609375 80.185546875 -127.290039062 0.4990234375 -143.002929688 c 0
 -23.16796875 -147.669921875 -51.66796875 -150.002929688 -85.0009765625 -150.002929688 c 1
 -79.0009765625 -128.002929688 l 1
 -7.380859375 -109.083984375 22.3125 -72.0810546875 41 -0.001953125 c 2
 94 197.998046875 l 2
 114.569335938 275.1328125 146.302734375 326.764648438 231 339.999023438 c 1
 232 344.999023438 l 1
 187.442382812 354.138671875 163 376.016601562 163 423.999023438 c 0xf0
 163 452.03125 169.216796875 476.125976562 176 500.999023438 c 2
 224 679.999023438 l 2
 230 701.999023438 233 720.999023438 233 736.999023438 c 0
 233 772.999023438 214.333007812 796.33203125 177 806.999023438 c 1
 183 829.999023438 l 1
 267.102539062 829.999023438 324 819.31640625 324 745.999023438 c 0xe8
 324 714.765625 316.68359375 687.5390625 309 659 c 2
 261 484 l 2
 253.666992188 458 250 437.333007812 250 422 c 0xf0
EndSplineSet
EndChar

StartChar: asciitilde
Encoding: 126 126 95
Width: 533
GlyphClass: 2
Flags: MW
HStem: 241 76<374.666 385.339> 289 74<144.947 148.667>
LayerCount: 2
Fore
SplineSet
146 289 m 0x40
 119.651367188 289 111.477539062 272.501953125 104 249 c 1
 70 249 l 1
 78.771484375 303.823242188 115.89453125 363 173.999023438 363 c 0x40
 217.6171875 363 243.4375 353.533203125 285.999023438 339 c 0
 309.999023438 331 328.999023438 325.333007812 342.999023438 322 c 0
 356.999023438 318.666992188 369.33203125 317 379.999023438 317 c 0
 407.622070312 317 415.46484375 334.244140625 422.999023438 359 c 1
 455.999023438 359 l 1
 450.564453125 304.653320312 411.677734375 241 359 241 c 0x80
 347 241 333.5 242.833007812 318.5 246.5 c 0
 278.669921875 256.236328125 210.138671875 282.395507812 162.5 288 c 0
 156.833007812 288.666992188 151.333007812 289 146 289 c 0x40
EndSplineSet
EndChar

StartChar: exclamdown
Encoding: 161 161 97
Width: 318
GlyphClass: 2
Flags: MW
HStem: -10 21G<82.7007 115.667> 654 126<219.824 253.882>
VStem: 173 126<701.143 735.203> 192 34<563 563>
LayerCount: 2
Fore
SplineSet
104 -10 m 0xd0
 61.4013671875 -10 49 18.37890625 49 65 c 0
 49 119.740234375 65.0419921875 155.504882812 82.5 199.5 c 0
 99.224609375 241.647460938 123.614257812 300.4375 139.5 350 c 0
 160.802734375 416.463867188 181.104492188 489.456054688 192 563 c 1
 226 563 l 1
 179 108 l 2
 174.333007812 65.3330078125 166.5 35 155.5 17 c 0
 144.5 -1 127.333007812 -10 104 -10 c 0xd0
173 718 m 0xe0
 173 752.40625 202.647460938 780 237 780 c 0
 271.099609375 780 299 753.7734375 299 719 c 0
 299 683.286132812 271.764648438 654 236 654 c 0
 200.7578125 654 173 683.106445312 173 718 c 0xe0
EndSplineSet
EndChar

StartChar: cent
Encoding: 162 162 98
Width: 468
GlyphClass: 2
Flags: MW
HStem: -9 58
VStem: 22 105<124.659 172 124.659 200.317> 342 96<472.942 474.508 432.953 483.666>
LayerCount: 2
Fore
SplineSet
127 152 m 0
 127 97.3173828125 146.671875 48.998046875 196.999023438 48.998046875 c 0
 228.567382812 48.998046875 253.850585938 68.8681640625 273.999023438 86.498046875 c 0
 302.319335938 111.278320312 327.272460938 144.791992188 346 180.998046875 c 1
 381 160.998046875 l 1
 354.333007812 107.665039062 323.333007812 66.498046875 288 37.498046875 c 0
 252.666992188 8.498046875 215 -7.001953125 175 -9.001953125 c 1
 131 -147.001953125 l 1
 79 -147.001953125 l 1
 124 -4.001953125 l 1
 59.822265625 13.3798828125 22 71.0849609375 22 152.998046875 c 0
 22 247.635742188 65.46875 334.642578125 108.5 394.998046875 c 0
 151.604492188 455.456054688 216.147460938 518.87109375 294 535.999023438 c 1
 348 697.999023438 l 1
 400 697.999023438 l 1
 348 538.999023438 l 1
 394.376953125 531.864257812 438 500.017578125 438 448.999023438 c 0
 438 416.90625 417.52734375 392.999023438 386 392.999023438 c 0
 356.557617188 392.999023438 334 414.162109375 334 442.999023438 c 0
 334 458.232421875 342 466.885742188 342 478.999023438 c 0
 342 488.33203125 334 492.999023438 318 492.999023438 c 0
 296 492.999023438 273.666992188 482.666015625 251 461.999023438 c 0
 202.544921875 417.819335938 166.09375 347.151367188 144.5 272.5 c 0
 132.833007812 232.166992188 127 192 127 152 c 0
EndSplineSet
EndChar

StartChar: sterling
Encoding: 163 163 99
Width: 682
GlyphClass: 2
Flags: MW
HStem: -10 55 -10 99 109 56<99.001 111.669> 381 50<108.003 228.003 108.003 233.003 94.0029 228.003 347.002 550.002> 729 51<490.335 520.002>
VStem: -18 66 228 119 237 109 574 101
LayerCount: 2
Fore
SplineSet
237 276 m 0xbd80
 237 320.4140625 236.689453125 345.973632812 233.002929688 381 c 1
 94.0029296875 381 l 1
 108.002929688 431 l 1
 228.002929688 431 l 1
 228.002929688 470 l 2
 228.002929688 612.701171875 297.90234375 712.518554688 397.502929688 757 c 0
 431.8359375 772.333007812 469.668945312 780 511.001953125 780 c 0
 593.765625 780 675.001953125 750.040039062 675.001953125 675 c 0
 675.001953125 622.017578125 642.5703125 581 591.001953125 581 c 0
 576.590820312 581 555.924804688 586.077148438 549.001953125 593 c 1
 561.602539062 602.80078125 574.001953125 641.541015625 574.001953125 665 c 0
 574.001953125 707.666992188 547.001953125 729 493.001953125 729 c 0
 388.153320312 729 347.001953125 645.715820312 347.001953125 534 c 2
 347.001953125 431 l 1xbe80
 564.001953125 431 l 1
 550.001953125 381 l 1
 346.001953125 381 l 1
 346.001953125 269.287109375 309.215820312 175.755859375 260.001953125 111.000976562 c 1
 306.5234375 98.078125 364.669921875 89.0009765625 422.001953125 89.0009765625 c 0
 500.334960938 89.0009765625 545.508789062 115.68359375 589.001953125 158.000976562 c 1
 598.001953125 154.000976562 l 1
 568.668945312 44.66796875 504.668945312 -9.9990234375 406.001953125 -9.9990234375 c 0x7d80
 352.719726562 -9.9990234375 316.659179688 6.5478515625 278.500976562 26.0009765625 c 0
 261.500976562 34.66796875 242.000976562 45.66796875 220.000976562 59.0009765625 c 1
 188 23.5712890625 126.375976562 -9.9990234375 63.0009765625 -9.9990234375 c 0
 9.0009765625 -9.9990234375 -17.9990234375 12.66796875 -17.9990234375 58.0009765625 c 0
 -17.9990234375 110.813476562 17.7607421875 143.00390625 58.0009765625 157 c 0
 73.333984375 162.333007812 90.0009765625 165 108.000976562 165 c 0
 143.333984375 165 177.666992188 154 211 132 c 1
 230.822265625 175.891601562 237 211.35546875 237 276 c 0xbd80
101.002929688 109 m 0
 74.1357421875 109 48.0029296875 95.296875 48.0029296875 70 c 0
 48.0029296875 53.3330078125 61.3359375 45 88.0029296875 45 c 0
 120.669921875 45 151.669921875 57.6669921875 181.002929688 83 c 1
 149.002929688 100.333007812 122.3359375 109 101.002929688 109 c 0
EndSplineSet
EndChar

StartChar: currency
Encoding: 164 164 100
Width: 697
GlyphClass: 2
Flags: MW
HStem: 46 50 431 50
VStem: 118 50 503 50
LayerCount: 2
Fore
SplineSet
553 263 m 0
 553 205.362304688 533.602539062 161.602539062 505.999023438 127.998046875 c 1
 576.999023438 56.998046875 l 1
 541.999023438 21.998046875 l 1
 470.999023438 92.998046875 l 1
 432.33203125 61.6650390625 386.999023438 45.998046875 334.999023438 45.998046875 c 0
 282.33203125 45.998046875 236.999023438 61.998046875 198.999023438 93.998046875 c 1
 127.999023438 22.998046875 l 1
 93.9990234375 56.998046875 l 1
 164.999023438 127.998046875 l 1
 137.368164062 161.635742188 117.999023438 205.314453125 117.999023438 262.999023438 c 0
 117.999023438 314.999023438 133.666015625 360.33203125 164.999023438 398.999023438 c 1
 92.9990234375 470.999023438 l 1
 127.999023438 505.999023438 l 1
 199.999023438 433.999023438 l 1
 233.63671875 461.629882812 277.315429688 480.999023438 335 480.999023438 c 0
 393.106445312 480.999023438 435.356445312 461.474609375 470 433.999023438 c 1
 542 505.999023438 l 1
 577 470.999023438 l 1
 505 398.999023438 l 1
 537 359.666015625 553 314.333007812 553 263 c 0
167.999023438 262.998046875 m 0
 167.999023438 185.45703125 214.850585938 132.89453125 270 108.99609375 c 0
 290 100.329101562 311.666992188 95.99609375 335 95.99609375 c 0
 413.137695312 95.99609375 464.758789062 143.014648438 489.500976562 197.99609375 c 0
 498.500976562 217.99609375 503.000976562 239.663085938 503.000976562 262.99609375 c 0
 503.000976562 340.521484375 455.275390625 393.42578125 400.000976562 417.497070312 c 0
 379.333984375 426.497070312 357.666992188 430.997070312 335 430.997070312 c 0
 283.751953125 430.997070312 244.396484375 408.298828125 216.999023438 381.497070312 c 0
 189.888671875 354.9765625 167.999023438 313.501953125 167.999023438 262.998046875 c 0
EndSplineSet
EndChar

StartChar: yen
Encoding: 165 165 101
Width: 765
GlyphClass: 2
Flags: MW
HStem: 0 40<190.999 223.804 501.159 518.999 179.999 223.804> 193 50<184 345 170 358> 336 50<225 361 225 382 211 361> 730 40<150 155.563 400.423 420 581 588.774 794.304 817>
LayerCount: 2
Fore
SplineSet
644 687 m 0
 644 720.369140625 607.548828125 730 570 730 c 1
 581 770 l 1
 828 770 l 1
 817 730 l 1
 771.607421875 730 753.124023438 716.833007812 732.999023438 690 c 0
 724.999023438 679.333007812 714.999023438 665.666015625 702.999023438 648.999023438 c 2
 515.999023438 385.999023438 l 1
 678.999023438 385.999023438 l 1
 664.999023438 335.999023438 l 1
 485.999023438 335.999023438 l 1
 460.999023438 242.999023438 l 1
 637.999023438 242.999023438 l 1
 623.999023438 192.999023438 l 1
 447.999023438 192.999023438 l 1
 441.999023438 167.999023438 l 2
 433.999023438 138.666015625 429.999023438 115.333007812 429.999023438 98 c 0
 429.999023438 45.1796875 471.318359375 40 530.999023438 40 c 1
 518.999023438 0 l 1
 179.999023438 0 l 1
 190.999023438 40 l 1
 256.609375 40 292.46484375 53.931640625 314.499023438 98 c 0
 322.166015625 113.333007812 329.333007812 133.333007812 336 158 c 2
 345 193 l 1
 170 193 l 1
 184 243 l 1
 358 243 l 1
 382 336 l 1
 211 336 l 1
 225 386 l 1
 361 386 l 1
 262 624 l 2
 246.217773438 661.876953125 234.586914062 692.1953125 210 713 c 0
 192.125 728.125 172.126953125 730 139 730 c 1
 150 770 l 1
 431 770 l 1
 420 730 l 1
 380.846679688 730 349 727.712890625 349 695 c 0
 349 681.08203125 351.733398438 670.5859375 357 659 c 2
 464 401 l 1
 603 604 l 2
 617.666992188 624.666992188 628.166992188 640.666992188 634.5 652 c 0
 640.833007812 663.333007812 644 675 644 687 c 0
EndSplineSet
EndChar

StartChar: brokenbar
Encoding: 166 166 102
Width: 338
GlyphClass: 2
Flags: MW
VStem: 122 80<-180 205 -180 205 365 750>
LayerCount: 2
Fore
SplineSet
202 750 m 1
 202 365 l 1
 122 365 l 1
 122 750 l 1
 202 750 l 1
202 205 m 1
 202 -180 l 1
 122 -180 l 1
 122 205 l 1
 202 205 l 1
EndSplineSet
EndChar

StartChar: section
Encoding: 167 167 103
Width: 621
GlyphClass: 2
Flags: MW
HStem: -173 46<150.136 197.367 150.136 222.817> 790 40
VStem: -1 122<-53 -23.7954 -69.4092 -21.2847> 133 100<571.998 583.744> 237 93<-4.89795 19> 299 82<603.664 710.001> 401 101 502 111<678.758 698.671>
LayerCount: 2
Fore
SplineSet
64 28 m 0xf6
 107.139648438 28 121 -0.5908203125 121 -47 c 0
 121 -91.818359375 131.271484375 -127 169 -127 c 0
 225.733398438 -127 237 -63.46875 237 2 c 0
 237 36 231.5 75.6669921875 220.5 121 c 0
 198.5546875 211.442382812 169.990234375 312.16796875 149 404 c 0
 138.333007812 450.666992188 133 492.333984375 133 529.000976562 c 0
 133 638.487304688 174.3515625 714.655273438 235 762.5 c 0
 286.295898438 802.966796875 358.032226562 830 441.999023438 830 c 0
 514.950195312 830 571.0078125 799.951171875 598.5 753.5 c 0
 608.166992188 737.166992188 613 718.666992188 613 698 c 0
 613 659.516601562 593.532226562 628 557 628 c 0
 518.51953125 628 502 653.081054688 502 693 c 0xf9
 502 704.342773438 505 719.997070312 505 732.000976562 c 0
 505 769.654296875 486.556640625 790.000976562 445 790.000976562 c 0
 428.333007812 790.000976562 413.5 782.333984375 400.5 767.000976562 c 0
 387.5 751.66796875 381 727.000976562 381 693.000976562 c 0
 381 654.333984375 387.333007812 611.666992188 400 565 c 0
 425.59375 470.708007812 458.270507812 368.31640625 483.000976562 271.999023438 c 0
 495.66796875 222.666015625 502.000976562 175.999023438 502.000976562 131.999023438 c 0
 502.000976562 20.2783203125 455.779296875 -57.0419921875 392.500976562 -105 c 0
 339.76953125 -144.96484375 264.633789062 -173 181.000976562 -173 c 0
 103.954101562 -173 43.46484375 -147.625976562 14 -99.5 c 0
 4 -83.1669921875 -1 -64 -1 -42 c 0
 -1 -0.5693359375 23.123046875 28 64 28 c 0xf6
263 -122 m 1
 356.793945312 -98.873046875 401 -24.861328125 401 88.9970703125 c 0
 401 124.997070312 395.666992188 166.330078125 385 212.997070312 c 0
 363.918945312 305.228515625 336.176757812 407.510742188 315 499.497070312 c 0
 304.333007812 545.830078125 299 586.330078125 299 620.997070312 c 0xf6
 299 670.091796875 301.557617188 706.987304688 319 737.997070312 c 0
 325 748.6640625 333.333007812 759.6640625 344 770.997070312 c 1
 272.828125 737.220703125 233 687.043945312 233 588.998046875 c 0
 233 554.998046875 238 514.498046875 248 467.498046875 c 0
 268.182617188 372.639648438 295.525390625 267.22265625 315 170.499023438 c 0
 325 120.83203125 330 75.9990234375 330 35.9990234375 c 0
 330 -45.794921875 313.245117188 -85.572265625 263 -122 c 1
EndSplineSet
EndChar

StartChar: dieresis
Encoding: 168 168 104
Width: 323
GlyphClass: 2
Flags: MW
HStem: 651 116<47.9854 105.432>
VStem: 17 120<693.001 737.118 700.501 737.118> 184 120<693.002 737.119 700.502 737.119>
LayerCount: 2
Fore
SplineSet
61 651 m 0
 34.970703125 651 17 667.258789062 17 693.000976562 c 2
 17 700.500976562 l 2
 17 702.833984375 17.6669921875 705.666992188 19 709 c 0
 26.2470703125 739.197265625 56.0634765625 767 92 767 c 0
 118.86328125 767 137 750.235351562 137 724 c 0
 137 689.203125 113.096679688 667.931640625 88.5 657 c 0
 79.5 653 70.3330078125 651 61 651 c 0
228 651.000976562 m 0
 201.970703125 651.000976562 184 667.259765625 184 693.001953125 c 2
 184 700.501953125 l 2
 184 702.834960938 184.666992188 705.66796875 186 709.000976562 c 0
 193.247070312 739.198242188 223.063476562 767.000976562 259 767.000976562 c 0
 285.86328125 767.000976562 304 750.236328125 304 724.000976562 c 0
 304 689.204101562 280.096679688 667.932617188 255.5 657.000976562 c 0
 246.5 653.000976562 237.333007812 651.000976562 228 651.000976562 c 0
EndSplineSet
EndChar

StartChar: copyright
Encoding: 169 169 105
Width: 918
GlyphClass: 2
Flags: MW
HStem: -10 48 157 41 569 40 732 48
VStem: 91 48 260 87 618 33 620 26 817 48<333.332 438.655>
LayerCount: 2
Fore
SplineSet
865 386 m 0xfc80
 865 264.844726562 814.530273438 169.629882812 751 105.5 c 0
 688.037109375 41.943359375 595.362304688 -10 475.999023438 -10 c 0
 357.604492188 -10 265.515625 42.2119140625 203.5 106 c 0
 141.12109375 170.161132812 91 265.544921875 91 385 c 0
 91 504.1015625 141.196289062 599.819335938 203 664 c 0
 264.5859375 727.955078125 356.725585938 780 475 780 c 0
 594.016601562 780 688.041015625 727.958984375 751 665 c 0
 814.359375 601.640625 865 506.10546875 865 386 c 0xfc80
817 386.000976562 m 0
 817 491.30859375 772.01171875 575.991210938 716.501953125 631.500976562 c 0
 661.192382812 686.810546875 579.473632812 732.000976562 475.000976562 732.000976562 c 0
 370.60546875 732.000976562 290.58984375 685.967773438 236.500976562 629.500976562 c 0
 182.346679688 572.965820312 139.000976562 489.563476562 139.000976562 385.000976562 c 0
 139.000976562 279.557617188 181.961914062 196.236328125 237.000976562 140.000976562 c 0
 291.721679688 84.0908203125 371.575195312 38.0009765625 476.000976562 38.0009765625 c 0
 579.428710938 38.0009765625 662.7421875 84.5634765625 717 140.000976562 c 0
 771.950195312 196.145507812 817 280.662109375 817 386.000976562 c 0
347.001953125 379.000976562 m 0
 347.001953125 271.999023438 389.418945312 198.000976562 491.00390625 198.000976562 c 0
 556.336914062 198.000976562 598.669921875 233.66796875 618.002929688 305.000976562 c 1
 651.002929688 305.000976562 l 1xfe80
 632.924804688 219.7734375 580.348632812 157.000976562 478.002929688 157.000976562 c 0
 372.817382812 157.000976562 305.1640625 208.456054688 275.502929688 285.000976562 c 0
 265.169921875 311.66796875 260.002929688 341.66796875 260.002929688 375.000976562 c 0
 260.002929688 484.852539062 314.55078125 559.471679688 393.002929688 592.000976562 c 0
 420.3359375 603.333984375 450.668945312 609.000976562 484.001953125 609.000976562 c 0
 539.194335938 609.000976562 570.7265625 592.688476562 610.001953125 568.000976562 c 1
 620.001953125 603.000976562 l 1
 641.001953125 603.000976562 l 1
 646.001953125 472.000976562 l 1
 620.001953125 472.000976562 l 1xfd80
 605.0234375 528.169921875 557.965820312 569.000976562 489.001953125 569.000976562 c 0
 388.614257812 569.000976562 347.001953125 485.8125 347.001953125 379.000976562 c 0
EndSplineSet
EndChar

StartChar: ordfeminine
Encoding: 170 170 106
Width: 379
GlyphClass: 2
Flags: MW
HStem: 507 40<208.351 211.268> 749 31
VStem: 129 62
LayerCount: 2
Fore
SplineSet
315 718 m 0
 315 736.762695312 309.401367188 749 293.000976562 749 c 0
 263.1484375 749 238.729492188 713.924804688 225 691.5 c 0
 209.276367188 665.818359375 191 625.702148438 191 589 c 0
 191 567.314453125 198.701171875 547 218 547 c 0
 228.666992188 547 239.666992188 553.166992188 251 565.5 c 0
 274.071289062 590.606445312 294.53515625 629.919921875 306 667.5 c 0
 312 687.166992188 315 704 315 718 c 0
191.000976562 507 m 0
 150.775390625 507 129.002929688 538.04296875 129.002929688 581.000976562 c 0
 129.002929688 633.44140625 156.931640625 681.455078125 183.002929688 713.500976562 c 0
 207.633789062 743.776367188 246.98828125 780.000976562 295.002929688 780.000976562 c 0
 316.3359375 780.000976562 331.002929688 769.333984375 339.002929688 748.000976562 c 1
 350.002929688 775.000976562 l 1
 401.002929688 775.000976562 l 1
 373.002929688 699.000976562 l 2
 359.854492188 665.189453125 346.280273438 623.099609375 339.002929688 585.5 c 0
 337.002929688 575.166992188 336.002929688 567.333984375 336.002929688 562.000976562 c 0
 336.002929688 555.438476562 338.310546875 548.000976562 345.002929688 548.000976562 c 0
 350.3359375 548.000976562 357.168945312 552.66796875 365.501953125 562.000976562 c 0
 373.834960938 571.333984375 383.66796875 583.666992188 395.000976562 599 c 1
 408.000976562 584 l 1
 392.66796875 560 376.16796875 541.166992188 358.500976562 527.5 c 0
 340.833984375 513.833007812 324.333984375 507 309.000976562 507 c 0
 291.66796875 507 283.000976562 517.333007812 283.000976562 538 c 0
 283.000976562 546.615234375 283.92578125 557.400390625 285.000976562 566 c 1
 281.000976562 566 l 1
 265.584960938 537.37109375 231.53515625 507 191.000976562 507 c 0
EndSplineSet
EndChar

StartChar: guillemotleft
Encoding: 171 171 107
Width: 478
GlyphClass: 2
Flags: MW
HStem: 104 317<157 242 242 328>
LayerCount: 2
Fore
SplineSet
29 262 m 1
 242 421 l 1
 256 400 l 1
 120 262 l 1
 181 124 l 1
 157 104 l 1
 29 262 l 1
200 262 m 1
 413 421 l 1
 427 400 l 1
 291 262 l 1
 352 124 l 1
 328 104 l 1
 200 262 l 1
EndSplineSet
EndChar

StartChar: logicalnot
Encoding: 172 172 108
Width: 676
GlyphClass: 2
Flags: MW
HStem: 313 50<96 504 96 554>
VStem: 504 50<110 313 313 313>
LayerCount: 2
Fore
SplineSet
504 313 m 1
 96 313 l 1
 96 363 l 1
 554 363 l 1
 554 110 l 1
 504 110 l 1
 504 313 l 1
EndSplineSet
EndChar

StartChar: uni00AD
Encoding: 173 173 109
Width: 488
GlyphClass: 2
Flags: MW
HStem: 248 83<81 390 81 390>
VStem: 81 309<248 331 248 331>
LayerCount: 2
Fore
SplineSet
81 248 m 1
 81 331 l 1
 390 331 l 1
 390 248 l 1
 81 248 l 1
EndSplineSet
EndChar

StartChar: registered
Encoding: 174 174 110
Width: 918
GlyphClass: 2
Flags: MW
HStem: -10 48 183 22 383 33 585 30 732 48
VStem: 91 48 333 70 543 83 817 48<333.332 438.655>
LayerCount: 2
Fore
SplineSet
865 386 m 0
 865 264.844726562 814.530273438 169.629882812 751 105.5 c 0
 688.037109375 41.943359375 595.362304688 -10 475.999023438 -10 c 0
 357.604492188 -10 265.515625 42.2119140625 203.5 106 c 0
 141.12109375 170.161132812 91 265.544921875 91 385 c 0
 91 504.1015625 141.196289062 599.819335938 203 664 c 0
 264.5859375 727.955078125 356.725585938 780 475 780 c 0
 594.016601562 780 688.041015625 727.958984375 751 665 c 0
 814.359375 601.640625 865 506.10546875 865 386 c 0
817 386.000976562 m 0
 817 491.30859375 772.01171875 575.991210938 716.501953125 631.500976562 c 0
 661.192382812 686.810546875 579.473632812 732.000976562 475.000976562 732.000976562 c 0
 370.60546875 732.000976562 290.58984375 685.967773438 236.500976562 629.500976562 c 0
 182.346679688 572.965820312 139.000976562 489.563476562 139.000976562 385.000976562 c 0
 139.000976562 279.557617188 181.961914062 196.236328125 237.000976562 140.000976562 c 0
 291.721679688 84.0908203125 371.575195312 38.0009765625 476.000976562 38.0009765625 c 0
 579.428710938 38.0009765625 662.7421875 84.5634765625 717 140.000976562 c 0
 771.950195312 196.145507812 817 280.662109375 817 386.000976562 c 0
458.001953125 615.000976562 m 2
 547.397460938 615.000976562 626.00390625 587.291015625 626.00390625 506.998046875 c 0
 626.00390625 437.310546875 583.983398438 403.416015625 518.00390625 392.998046875 c 1
 642.00390625 242.998046875 l 2
 660.03125 221.107421875 676.240234375 210.696289062 709.00390625 204.998046875 c 1
 709.00390625 182.998046875 l 1
 601.00390625 182.998046875 l 1
 463.00390625 353.998046875 l 2
 447.572265625 373.837890625 438.319335938 382.998046875 403.002929688 382.998046875 c 1
 403.002929688 270.998046875 l 2
 403.002929688 234.505859375 405.806640625 212.791015625 436.502929688 207.499023438 c 0
 446.169921875 205.83203125 459.002929688 204.999023438 475.002929688 204.999023438 c 1
 475.002929688 182.999023438 l 1
 277.002929688 182.999023438 l 1
 277.002929688 204.999023438 l 1
 325.888671875 206.357421875 333.002929688 217.430664062 333.002929688 268 c 2
 333.002929688 527 l 2
 333.002929688 556.564453125 331.720703125 580.8203125 309.002929688 586.5 c 0
 302.3359375 588.166992188 293.668945312 589.333984375 283.001953125 590.000976562 c 1
 283.001953125 615.000976562 l 1
 458.001953125 615.000976562 l 2
543.00390625 503.998046875 m 0
 543.00390625 564.232421875 518.134765625 584.998046875 458.00390625 584.998046875 c 2
 412.00390625 584.998046875 l 2
 406.00390625 584.998046875 403.00390625 581.998046875 403.00390625 575.998046875 c 2
 403.00390625 415.998046875 l 1
 443.00390625 415.998046875 l 2
 508.896484375 415.998046875 543.00390625 439.279296875 543.00390625 503.998046875 c 0
EndSplineSet
EndChar

StartChar: macron
Encoding: 175 175 111
Width: 310
GlyphClass: 2
Flags: MW
HStem: 702 50<13 296 26 283>
VStem: 13 283<702 752>
LayerCount: 2
Fore
SplineSet
13 702 m 1
 26 752 l 1
 296 752 l 1
 283 702 l 1
 13 702 l 1
EndSplineSet
EndChar

StartChar: degree
Encoding: 176 176 112
Width: 342
GlyphClass: 2
Flags: MW
HStem: 540 30<234.542 267.333> 749 31<250.667 283.471>
VStem: 139 30<651.667 684.471 635.542 687.739> 348 31<635.542 668.333 632.261 684.471>
LayerCount: 2
Fore
SplineSet
139 660 m 0
 139 715.477539062 173.239257812 753.15234375 212.5 770.5 c 0
 226.833007812 776.833007812 242.333007812 780 259 780 c 0
 314.477539062 780 352.15234375 745.760742188 369.5 706.5 c 0
 375.833007812 692.166992188 379 676.666992188 379 660 c 0
 379 604.522460938 344.760742188 566.84765625 305.5 549.5 c 0
 291.166992188 543.166992188 275.666992188 540 259 540 c 0
 203.522460938 540 165.84765625 574.239257812 148.5 613.5 c 0
 142.166992188 627.833007812 139 643.333007812 139 660 c 0
259 749 m 0
 210.083984375 749 169 708.94140625 169 660 c 0
 169 611.083984375 210.084960938 570 259 570 c 0
 307.942382812 570 348 611.084960938 348 660 c 0
 348 708.942382812 307.94140625 749 259 749 c 0
EndSplineSet
EndChar

StartChar: plusminus
Encoding: 177 177 113
Width: 659
GlyphClass: 2
Flags: MW
HStem: 95 50<91 559 91 559> 443 50<91 299 91 299 351 559>
VStem: 299 52<234 443 234 443 493 702>
LayerCount: 2
Fore
SplineSet
299 234 m 1
 299 443 l 1
 91 443 l 1
 91 493 l 1
 299 493 l 1
 299 702 l 1
 351 702 l 1
 351 493 l 1
 559 493 l 1
 559 443 l 1
 351 443 l 1
 351 234 l 1
 299 234 l 1
559 95 m 1
 91 95 l 1
 91 145 l 1
 559 145 l 1
 559 95 l 1
EndSplineSet
EndChar

StartChar: uni00B2
Encoding: 178 178 114
Width: 282
GlyphClass: 2
Flags: MW
HStem: 468 39 645 22 754 27
VStem: 135 45<692.333 716.524> 281 52
LayerCount: 2
Fore
SplineSet
244 781 m 0
 293.962890625 781 333.000976562 754.6328125 333.000976562 706.999023438 c 0
 333.000976562 679.666015625 320.000976562 650.666015625 294.000976562 619.999023438 c 0
 268.000976562 589.33203125 224.333984375 552.999023438 163.000976562 510.999023438 c 1
 163.000976562 506.999023438 l 1
 235.000976562 506.999023438 l 2
 265.352539062 506.999023438 274.859375 516.688476562 288.000976562 536.999023438 c 1
 307.000976562 536.999023438 l 1
 282.000976562 467.999023438 l 1
 97.0009765625 467.999023438 l 1
 100.000976562 488.999023438 l 1
 155.1328125 533.104492188 201.299804688 570.59375 240.5 617.999023438 c 0
 262.420898438 644.5078125 281 669.028320312 281 707.999023438 c 0
 281 735.89453125 263.921875 753.999023438 236 753.999023438 c 0
 207.291992188 753.999023438 180 732.93359375 180 704.999023438 c 0
 180 679.666015625 192.666992188 666.999023438 218 666.999023438 c 1
 212.666992188 652.33203125 201 644.999023438 183 644.999023438 c 0
 153.259765625 644.999023438 135 664.969726562 135 694.999023438 c 0
 135 738.049804688 168.747070312 762.2421875 201.5 774 c 0
 214.5 778.666992188 228.666992188 781 244 781 c 0
EndSplineSet
EndChar

StartChar: uni00B3
Encoding: 179 179 115
Width: 287
GlyphClass: 2
Flags: MW
HStem: 464 26<173.667 194.667> 564 18<137.201 180> 677 15<178.306 217> 755 25<227.555 252>
VStem: 98 45<511.333 532.66 511.333 540.933> 151 41<709.333 729.786 709.333 735.705> 258 52<537.701 571.363> 276 49<699 725>
LayerCount: 2
Fore
SplineSet
189 490 m 0xfe
 229.616210938 490 258 515.643554688 258 556 c 0xfe
 258 586.7265625 242.26171875 618 213 618 c 0
 204.698242188 618 189.984375 615 182 615 c 0
 173.333007812 615 169 617.666992188 169 623 c 0
 169 631.666992188 174.5 637 185.5 639 c 0
 212.03515625 643.82421875 240.327148438 649.974609375 259.5 664.5 c 0
 270.5 672.833007812 276 688 276 710 c 0
 276 740 264 755 240 755 c 0
 215.110351562 755 192 741.572265625 192 718 c 0
 192 700.666992188 200.333007812 692 217 692 c 1
 212.333007812 682 203.333007812 677 190 677 c 0
 166.611328125 677 151 690.90234375 151 714 c 0
 151 757.41015625 196.700195312 780 243 780 c 0
 288.233398438 780 325 760.676757812 325 718 c 0xfd
 325 676.336914062 287.931640625 644.11328125 252 636 c 1
 252 632 l 1
 285.091796875 623.727539062 310 600.770507812 310 562 c 0
 310 513.40234375 272.234375 484.078125 234.5 471.5 c 0
 219.5 466.5 203.333007812 464 186 464 c 0
 140.963867188 464 98 483.943359375 98 526 c 0
 98 555.865234375 122.401367188 582 152 582 c 0
 166.068359375 582 177.247070312 575.013671875 180 564 c 1
 159.180664062 564 143 543.319335938 143 522 c 0
 143 500.666992188 158.333007812 490 189 490 c 0xfe
EndSplineSet
EndChar

StartChar: acute
Encoding: 180 180 116
Width: 275
GlyphClass: 2
Flags: MW
HStem: 651 152<20 228.281>
VStem: 20 235<651 779.319>
LayerCount: 2
Fore
SplineSet
217 803 m 0
 239.5625 803 255 790.639648438 255 767.999023438 c 0
 255 740.579101562 226.922851562 726.505859375 204 716 c 2
 67 651 l 1
 20 651 l 1
 150 770 l 2
 174 792 196.333007812 803 217 803 c 0
EndSplineSet
EndChar

StartChar: mu
Encoding: 181 181 117
Width: 685
GlyphClass: 2
Flags: MW
HStem: -260 21G -10 72 449 91
VStem: 367 85<82.3335 91.2959>
LayerCount: 2
Fore
SplineSet
367 81 m 0
 367 101.591796875 369.3828125 119.698242188 371.997070312 137.999023438 c 1
 368.997070312 140.999023438 l 1
 347.6640625 92.33203125 323.997070312 54.9990234375 297.997070312 28.9990234375 c 0
 271.997070312 2.9990234375 245.330078125 -10.0009765625 217.997070312 -10.0009765625 c 0
 186.6640625 -10.0009765625 165.6640625 1.9990234375 154.997070312 25.9990234375 c 1
 151.997070312 24.9990234375 l 1
 117.997070312 -181.000976562 l 2
 110.366210938 -225.698242188 97.0673828125 -260.000976562 50.998046875 -260.000976562 c 0
 20.998046875 -260.000976562 5.998046875 -243.333984375 5.998046875 -210.000976562 c 0
 5.998046875 -198.66796875 7.998046875 -185.000976562 11.998046875 -169.000976562 c 0
 52.7099609375 -6.1533203125 114.565429688 173.59375 162.998046875 330.999023438 c 0
 171.4765625 358.552734375 177.879882812 380.760742188 181.998046875 406.499023438 c 0
 183.331054688 414.83203125 183.998046875 421.999023438 183.998046875 427.999023438 c 0
 183.998046875 441.999023438 180.331054688 448.999023438 172.998046875 448.999023438 c 0
 156.998046875 448.999023438 125.998046875 420.999023438 79.998046875 364.999023438 c 1
 53.998046875 378.999023438 l 1
 75.2763671875 421.555664062 109.858398438 462.087890625 144.498046875 491.499023438 c 0
 170.598632812 513.66015625 206.943359375 539.999023438 246.998046875 539.999023438 c 0
 279.053710938 539.999023438 296.998046875 517.958984375 296.998046875 484.999023438 c 0
 296.998046875 459.801757812 294.692382812 452.280273438 286.998046875 426.999023438 c 0
 269.895507812 370.8046875 254.778320312 328.270507812 230.998046875 258.998046875 c 0
 219.665039062 226.331054688 210.998046875 196.498046875 204.998046875 169.498046875 c 0
 198.998046875 142.498046875 195.998046875 120.665039062 195.998046875 103.998046875 c 0
 195.998046875 75.998046875 204.998046875 61.998046875 222.998046875 61.998046875 c 0
 235.665039062 61.998046875 250.498046875 69.1650390625 267.498046875 83.498046875 c 0
 308.736328125 118.267578125 342.752929688 172.825195312 371.499023438 227.499023438 c 0
 388.499023438 259.83203125 403.666015625 293.999023438 416.999023438 329.999023438 c 2
 490.999023438 529.999023438 l 1
 583.999023438 529.999023438 l 1
 509.999023438 300.999023438 l 2
 487.508789062 233.528320312 468.137695312 180.690429688 455 115 c 0
 453 105 452 97 452 91 c 0
 452 73.6669921875 457.666992188 65 469 65 c 0
 489.54296875 65 509.95703125 86.2275390625 522.5 100.5 c 0
 542.174804688 122.887695312 561.076171875 151.274414062 574 181 c 1
 604 166 l 1
 584.671875 118.32421875 553.826171875 73.646484375 520.5 41 c 0
 495.6015625 16.6103515625 460.887695312 -10 419 -10 c 0
 373.749023438 -10 367 28.57421875 367 81 c 0
EndSplineSet
EndChar

StartChar: paragraph
Encoding: 182 182 118
Width: 548
GlyphClass: 2
Flags: MW
HStem: -260 60<132.333 138.472> 732 38
VStem: 8 104
LayerCount: 2
Fore
SplineSet
326 336 m 1
 312.110351562 333.474609375 298.784179688 331.998046875 282.999023438 331.998046875 c 0
 202.076171875 331.998046875 144.671875 368.897460938 117.498046875 424.998046875 c 0
 107.165039062 446.331054688 101.998046875 471.6640625 101.998046875 500.997070312 c 0
 101.998046875 593.138671875 142.194335938 657.397460938 196.498046875 699.498046875 c 0
 253.379882812 743.59765625 336.842773438 769.998046875 435.998046875 769.998046875 c 2
 601.998046875 769.998046875 l 1
 591.998046875 731.998046875 l 1
 558.615234375 731.998046875 542.354492188 728.333007812 526.999023438 708.498046875 c 0
 518.999023438 698.165039062 511.499023438 682.33203125 504.499023438 660.999023438 c 0
 497.499023438 639.666015625 489.33203125 610.333007812 479.999023438 573 c 2
 353.999023438 73 l 2
 336.666015625 5 319.333007812 -50.5 302 -93.5 c 0
 284.666992188 -136.5 266 -170.333007812 246 -195 c 0
 211.491210938 -237.560546875 172.944335938 -260 104 -260 c 0
 54.154296875 -260 8 -231.203125 8 -184 c 0
 8 -151.858398438 25.4189453125 -130 57 -130 c 0
 95.1435546875 -130 97.4501953125 -166.135742188 112 -189 c 0
 116.666992188 -196.333007812 125.666992188 -200 139 -200 c 0
 178.544921875 -200 199.596679688 -149.884765625 210 -113 c 2
 326 336 l 1
EndSplineSet
EndChar

StartChar: periodcentered
Encoding: 183 183 119
Width: 275
GlyphClass: 2
Flags: MW
HStem: 209 131<108.143 144.269>
VStem: 61 131<256.144 292.27>
LayerCount: 2
Fore
SplineSet
126 209 m 0
 90.2861328125 209 61 238.287109375 61 274 c 0
 61 310.540039062 89.7578125 340 126 340 c 0
 163.073242188 340 192 311.072265625 192 274 c 0
 192 237.758789062 162.537109375 209 126 209 c 0
EndSplineSet
EndChar

StartChar: cedilla
Encoding: 184 184 120
Width: 232
GlyphClass: 2
Flags: MW
HStem: -260 43<78.2754 106.606 78.2754 108.988> -113 41<82.6582 163.721>
VStem: -11 65.5 155 85
LayerCount: 2
Fore
SplineSet
88 -113 m 0
 77.31640625 -113 61.2099609375 -113.358398438 53.0009765625 -115 c 1
 52.0009765625 -112 l 1
 137.000976562 12 l 1
 190.000976562 12 l 1
 136.000976562 -72 l 1
 191.44140625 -72 240.000976562 -85.7783203125 240.000976562 -135 c 0
 240.000976562 -174.810546875 216.705078125 -203.861328125 192.500976562 -223 c 0
 167.484375 -242.780273438 129.974609375 -260 88.0009765625 -260 c 0
 39.5029296875 -260 -10.9990234375 -240.385742188 -10.9990234375 -197 c 0
 -10.9990234375 -171.471679688 5.5634765625 -148 30.0009765625 -148 c 0
 47.0732421875 -148 50.576171875 -168.485351562 54.5 -182.5 c 0
 59.4208984375 -200.076171875 66.55078125 -217 90 -217 c 0
 123.211914062 -217 155 -188.201171875 155 -154 c 0
 155 -126.666992188 132.666992188 -113 88 -113 c 0
EndSplineSet
EndChar

StartChar: uni00B9
Encoding: 185 185 121
Width: 273
GlyphClass: 2
Flags: MW
HStem: 468 21<114.999 136.833 254.029 262.999 109.999 136.833> 709 22<165 165.667> 760 20G<266.999 286.999 286.999 286.999>
VStem: 110 177
LayerCount: 2
Fore
SplineSet
165 731 m 1
 212.227539062 731 241.55078125 755.763671875 266.999023438 780 c 1
 286.999023438 780 l 1
 235.999023438 580 l 2
 231.67578125 563.7890625 225.999023438 542.227539062 225.999023438 524 c 0
 225.999023438 498.8671875 240.05859375 489 267.999023438 489 c 1
 262.999023438 468 l 1
 109.999023438 468 l 1
 114.999023438 489 l 1
 158.666015625 489 171.467773438 506.875976562 180.999023438 545 c 2
 220.999023438 704 l 2
 221.666015625 705.333007812 221.999023438 707.333007812 221.999023438 710 c 0
 221.999023438 714 219.999023438 716 215.999023438 716 c 0
 211.33203125 716 204.33203125 714.833007812 194.999023438 712.5 c 0
 185.666015625 710.166992188 173.333007812 709 158 709 c 1
 165 731 l 1
EndSplineSet
EndChar

StartChar: ordmasculine
Encoding: 186 186 122
Width: 338
GlyphClass: 2
Flags: MW
HStem: 507 30<219.941 245.347 219.941 247.001> 752 28
VStem: 133 67<578.447 606.704 572.771 631.324> 315 63<685.215 713.447 660.802 720.03>
LayerCount: 2
Fore
SplineSet
286 780 m 0
 341.956054688 780 378 741.89453125 378 684.999023438 c 0
 378 636.60546875 354.483398438 592.877929688 330 564.5 c 0
 306.272460938 536.997070312 270.002929688 507 224 507 c 0
 169.845703125 507 133 549.89453125 133 607 c 0
 133 655.647460938 155.97265625 697.549804688 180.5 725.5 c 0
 204.049804688 752.3359375 240.384765625 780 286 780 c 0
200 586.999023438 m 0
 200 558.543945312 207.8828125 537 232 537 c 0
 258.693359375 537 278.331054688 572.7734375 289 595 c 0
 302.75390625 623.654296875 315 665.431640625 315 704.999023438 c 0
 315 735.061523438 307.194335938 751.999023438 281 751.999023438 c 0
 254.620117188 751.999023438 235.015625 717.8515625 225 695.999023438 c 0
 211.975585938 667.583007812 200 626.409179688 200 586.999023438 c 0
EndSplineSet
EndChar

StartChar: guillemotright
Encoding: 187 187 123
Width: 478
GlyphClass: 2
Flags: MW
HStem: 104 317<38 123 123 209>
LayerCount: 2
Fore
SplineSet
209 104 m 1
 195 124 l 1
 330 262 l 1
 268 400 l 1
 294 421 l 1
 421 262 l 1
 209 104 l 1
38 104 m 1
 24 124 l 1
 159 262 l 1
 97 400 l 1
 123 421 l 1
 250 262 l 1
 38 104 l 1
EndSplineSet
EndChar

StartChar: onequarter
Encoding: 188 188 124
Width: 634
GlyphClass: 3
Flags: MW
HStem: 0 21G<-13 54 -13 -13 416.998 416.998 416.998 458.998> 114 24<369.998 445.998 497.998 540.998> 468 21<113.999 135.833 253.029 261.999 108.999 135.833> 709 22<164 164.667> 750 20G<610 668 668 668>
LayerCount: 2
Fore
SplineSet
54 0 m 1
 -13 0 l 1
 610 770 l 1
 668 770 l 1
 54 0 l 1
164 731 m 1
 211.227539062 731 240.55078125 755.763671875 265.999023438 780 c 1
 285.999023438 780 l 1
 234.999023438 580 l 2
 230.67578125 563.7890625 224.999023438 542.227539062 224.999023438 524 c 0
 224.999023438 498.8671875 239.05859375 489 266.999023438 489 c 1
 261.999023438 468 l 1
 108.999023438 468 l 1
 113.999023438 489 l 1
 157.666015625 489 170.467773438 506.875976562 179.999023438 545 c 2
 219.999023438 704 l 2
 220.666015625 705.333007812 220.999023438 707.333007812 220.999023438 710 c 0
 220.999023438 714 218.999023438 716 214.999023438 716 c 0
 210.33203125 716 203.33203125 714.833007812 193.999023438 712.5 c 0
 184.666015625 710.166992188 172.333007812 709 157 709 c 1
 164 731 l 1
497.998046875 138 m 1
 546.998046875 138 l 1
 540.998046875 114 l 1
 491.998046875 114 l 1
 458.998046875 0 l 1
 416.998046875 0 l 1
 445.998046875 114 l 1
 327.998046875 114 l 1
 332.998046875 134 l 1
 518.998046875 312 l 1
 541.998046875 312 l 1
 497.998046875 138 l 1
452.998046875 138 m 1
 481.998046875 243 l 1
 478.998046875 244 l 1
 369.998046875 138 l 1
 452.998046875 138 l 1
EndSplineSet
Ligature2: "'frac' Diagonal Fractions in Latin lookup 2 subtable" one slash four
Ligature2: "'frac' Diagonal Fractions in Latin lookup 2 subtable" one fraction four
EndChar

StartChar: onehalf
Encoding: 189 189 125
Width: 656
GlyphClass: 3
Flags: MW
HStem: 0 39 177 22 286 27 468 21<114.999 136.833 254.029 262.999 109.999 136.833> 709 22<165 165.667> 750 20G<611 669 669 669>
VStem: 380 45 526 52
LayerCount: 2
Fore
SplineSet
55 0 m 1
 -12 0 l 1
 611 770 l 1
 669 770 l 1
 55 0 l 1
165 731 m 1
 212.227539062 731 241.55078125 755.763671875 266.999023438 780 c 1
 286.999023438 780 l 1
 235.999023438 580 l 2
 231.67578125 563.7890625 225.999023438 542.227539062 225.999023438 524 c 0
 225.999023438 498.8671875 240.05859375 489 267.999023438 489 c 1
 262.999023438 468 l 1
 109.999023438 468 l 1
 114.999023438 489 l 1
 158.666015625 489 171.467773438 506.875976562 180.999023438 545 c 2
 220.999023438 704 l 2
 221.666015625 705.333007812 221.999023438 707.333007812 221.999023438 710 c 0
 221.999023438 714 219.999023438 716 215.999023438 716 c 0
 211.33203125 716 204.33203125 714.833007812 194.999023438 712.5 c 0
 185.666015625 710.166992188 173.333007812 709 158 709 c 1
 165 731 l 1
488.998046875 313 m 0
 538.9609375 313 577.999023438 286.6328125 577.999023438 238.999023438 c 0
 577.999023438 202.528320312 559.322265625 177.38671875 538.999023438 152.999023438 c 0
 504.3125 111.375 458.895507812 78.4052734375 407.999023438 42.9990234375 c 1
 407.999023438 38.9990234375 l 1
 479.999023438 38.9990234375 l 2
 510.350585938 38.9990234375 519.857421875 48.6884765625 532.999023438 68.9990234375 c 1
 551.999023438 68.9990234375 l 1
 526.999023438 -0.0009765625 l 1
 341.999023438 -0.0009765625 l 1
 344.999023438 20.9990234375 l 1
 400.130859375 65.1044921875 446.297851562 102.59375 485.498046875 149.999023438 c 0
 507.418945312 176.5078125 525.998046875 201.028320312 525.998046875 239.999023438 c 0
 525.998046875 267.89453125 508.919921875 285.999023438 480.998046875 285.999023438 c 0
 452.290039062 285.999023438 424.998046875 264.93359375 424.998046875 236.999023438 c 0
 424.998046875 211.666015625 437.665039062 198.999023438 462.998046875 198.999023438 c 1
 457.665039062 184.33203125 445.998046875 176.999023438 427.998046875 176.999023438 c 0
 398.2578125 176.999023438 379.998046875 196.969726562 379.998046875 226.999023438 c 0
 379.998046875 270.049804688 413.745117188 294.2421875 446.498046875 306 c 0
 459.498046875 310.666992188 473.665039062 313 488.998046875 313 c 0
EndSplineSet
Ligature2: "'frac' Diagonal Fractions in Latin lookup 2 subtable" one slash two
Ligature2: "'frac' Diagonal Fractions in Latin lookup 2 subtable" one fraction two
EndChar

StartChar: threequarters
Encoding: 190 190 126
Width: 660
GlyphClass: 3
Flags: MW
HStem: 0 21G<13 80 13 13 443 443 443 485> 114 24<396 472 524 567> 464 26<181.667 202.667> 564 18<145.201 188> 677 15<186.306 225> 750 20G<636 694 694 694> 755 25<235.555 260>
VStem: 106 45<511.333 532.66 511.333 540.933> 159 41<709.333 729.786 709.333 735.705> 266 52<537.701 571.363> 284 49<699 725>
LayerCount: 2
Fore
SplineSet
80 0 m 1xfd80
 13 0 l 1
 636 770 l 1
 694 770 l 1
 80 0 l 1xfd80
524 138 m 1
 573 138 l 1
 567 114 l 1
 518 114 l 1
 485 0 l 1
 443 0 l 1
 472 114 l 1
 354 114 l 1
 359 134 l 1
 545 312 l 1
 568 312 l 1
 524 138 l 1
479 138 m 1
 508 243 l 1
 505 244 l 1
 396 138 l 1
 479 138 l 1
197 490 m 0
 237.616210938 490 266 515.643554688 266 556 c 0xfbc0
 266 586.7265625 250.26171875 618 221 618 c 0
 212.698242188 618 197.984375 615 190 615 c 0
 181.333007812 615 177 617.666992188 177 623 c 0
 177 631.666992188 182.5 637 193.5 639 c 0
 220.03515625 643.82421875 248.327148438 649.974609375 267.5 664.5 c 0
 278.5 672.833007812 284 688 284 710 c 0
 284 740 272 755 248 755 c 0
 223.110351562 755 200 741.572265625 200 718 c 0
 200 700.666992188 208.333007812 692 225 692 c 1
 220.333007812 682 211.333007812 677 198 677 c 0
 174.611328125 677 159 690.90234375 159 714 c 0
 159 757.41015625 204.700195312 780 251 780 c 0
 296.233398438 780 333 760.676757812 333 718 c 0xfba0
 333 676.336914062 295.931640625 644.11328125 260 636 c 1
 260 632 l 1
 293.091796875 623.727539062 318 600.770507812 318 562 c 0xfbc0
 318 513.40234375 280.234375 484.078125 242.5 471.5 c 0
 227.5 466.5 211.333007812 464 194 464 c 0
 148.963867188 464 106 483.943359375 106 526 c 0
 106 555.865234375 130.401367188 582 160 582 c 0
 174.068359375 582 185.247070312 575.013671875 188 564 c 1
 167.180664062 564 151 543.319335938 151 522 c 0
 151 500.666992188 166.333007812 490 197 490 c 0
EndSplineSet
Ligature2: "'frac' Diagonal Fractions in Latin lookup 2 subtable" three slash four
Ligature2: "'frac' Diagonal Fractions in Latin lookup 2 subtable" three fraction four
EndChar

StartChar: questiondown
Encoding: 191 191 127
Width: 470
GlyphClass: 2
Flags: MW
HStem: -10 48 148.5 89.5 537 43<250.667 280.334> 655 126<294.401 328.455>
VStem: 21 64 248 126<701.824 736.203 701.397 736.464> 292 81<113.827 124.066> 311 54
LayerCount: 2
Fore
SplineSet
248 719 m 0xfc
 248 753.928710938 276.801757812 781 312 781 c 0
 346.40625 781 374 753.405273438 374 719 c 0xfc
 374 683.793945312 345.909179688 655 311 655 c 0xf9
 276.620117188 655 248 684.647460938 248 719 c 0xfc
275 580 m 0
 335.578125 580 365 542.759765625 365 480.999023438 c 0xf9
 365 412.508789062 331.004882812 370.00390625 292.5 336.999023438 c 0
 234.168945312 287.000976562 152.36328125 252.435546875 105.5 192.999023438 c 0
 91.8330078125 175.666015625 85 155.666015625 85 132.999023438 c 0
 85 74.328125 132.666015625 37.9990234375 193 37.9990234375 c 0
 242.5390625 37.9990234375 292 63.96484375 292 110.999023438 c 0
 292 137.1328125 275.557617188 142.075195312 257 148.499023438 c 0
 237.422851562 155.275390625 222 160.845703125 222 188.998046875 c 0
 222 221.057617188 244.055664062 237.998046875 277 237.998046875 c 0
 332.333007812 237.998046875 373 192.850585938 373 136.998046875 c 0xfa
 373 90.65625 347.08203125 55.462890625 319 32.998046875 c 0
 288.126953125 8.298828125 241.748046875 -10.001953125 188.000976562 -10.001953125 c 0
 108.163085938 -10.001953125 56.26171875 27.3154296875 33.0009765625 84.498046875 c 0
 25.0009765625 104.165039062 21.0009765625 125.998046875 21.0009765625 149.998046875 c 0
 21.0009765625 222.456054688 56.748046875 269.311523438 96.0009765625 305.498046875 c 0
 153.396484375 358.41015625 236.471679688 392.736328125 289.500976562 446.999023438 c 0
 303.833984375 461.666015625 311.000976562 478.333007812 311.000976562 497 c 0xf9
 311.000976562 523.666992188 295.66796875 537 265.000976562 537 c 0
 234.333984375 537 209.666992188 520 191 486 c 1
 164 502 l 1
 189.333007812 554 226.333007812 580 275 580 c 0
EndSplineSet
EndChar

StartChar: Agrave
Encoding: 192 192 128
Width: 763
GlyphClass: 2
Flags: MW
HStem: 0 40<-98.001 -76.4238 140.406 150.999 -108.001 -76.4238 336.001 366.647 613.667 622.001> 290 50<309.999 482 267 490.999> 760 20G<606 690 690 690> 878 82<528.999 528.999>
LayerCount: 2
Fore
SplineSet
86 74 m 0
 86 41.302734375 119.8125 40 160.999023438 40 c 1
 150.999023438 0 l 1
 -108.000976562 0 l 1
 -98.0009765625 40 l 1
 -54.8466796875 40 -28.3701171875 57.923828125 0.9990234375 81 c 0
 53.71875 122.422851562 95.080078125 171.313476562 145 231 c 2
 606 780 l 1
 690 780 l 1
 551 166 l 2
 543 130.666992188 539 105 539 89 c 0
 539 69.6669921875 545.333007812 56.6669921875 558 50 c 0
 570.666992188 43.3330078125 595.333984375 40 632.000976562 40 c 1
 622.000976562 0 l 1
 326.000976562 0 l 1
 336.000976562 40 l 1
 397.293945312 40 420.499023438 55.1630859375 437 101 c 0
 443 117.666992188 449 139.666992188 455 167 c 2
 482 290 l 1
 267 290 l 1
 204 224 l 2
 161.783203125 179.723632812 133.4453125 151.260742188 104 112 c 0
 92.8984375 97.197265625 86 90.2451171875 86 74 c 0
490.999023438 340 m 1
 572.999023438 650 l 1
 568.999023438 650 l 1
 309.999023438 340 l 1
 490.999023438 340 l 1
465.999023438 919 m 0
 465.999023438 943.299804688 490.512695312 960 513.999023438 960 c 0
 548.860351562 960 567.561523438 945.0625 591.999023438 927 c 2
 701.999023438 850 l 1
 641.999023438 850 l 1
 528.999023438 878 l 2
 503.510742188 884.15234375 465.999023438 894.181640625 465.999023438 919 c 0
EndSplineSet
EndChar

StartChar: Aacute
Encoding: 193 193 129
Width: 763
GlyphClass: 2
Flags: MW
HStem: 0 40<-98.001 -76.4238 140.406 150.999 -108.001 -76.4238 336.001 366.647 613.667 622.001> 290 50<309.999 482 267 490.999> 760 20G<606 690 690 690> 901 59
LayerCount: 2
Fore
SplineSet
86 74 m 0
 86 41.302734375 119.8125 40 160.999023438 40 c 1
 150.999023438 0 l 1
 -108.000976562 0 l 1
 -98.0009765625 40 l 1
 -54.8466796875 40 -28.3701171875 57.923828125 0.9990234375 81 c 0
 53.71875 122.422851562 95.080078125 171.313476562 145 231 c 2
 606 780 l 1
 690 780 l 1
 551 166 l 2
 543 130.666992188 539 105 539 89 c 0
 539 69.6669921875 545.333007812 56.6669921875 558 50 c 0
 570.666992188 43.3330078125 595.333984375 40 632.000976562 40 c 1
 622.000976562 0 l 1
 326.000976562 0 l 1
 336.000976562 40 l 1
 397.293945312 40 420.499023438 55.1630859375 437 101 c 0
 443 117.666992188 449 139.666992188 455 167 c 2
 482 290 l 1
 267 290 l 1
 204 224 l 2
 161.783203125 179.723632812 133.4453125 151.260742188 104 112 c 0
 92.8984375 97.197265625 86 90.2451171875 86 74 c 0
490.999023438 340 m 1
 572.999023438 650 l 1
 568.999023438 650 l 1
 309.999023438 340 l 1
 490.999023438 340 l 1
624.999023438 850 m 1
 774.999023438 927 l 2
 796.33203125 938.333007812 814.33203125 946.666015625 828.999023438 951.999023438 c 0
 843.666015625 957.33203125 857.666015625 959.999023438 870.999023438 959.999023438 c 0
 890.999023438 959.999023438 900.999023438 951.666015625 900.999023438 934.999023438 c 0
 900.999023438 921.666015625 893.33203125 910.333007812 877.999023438 901 c 0
 862.666015625 891.666992188 840.666015625 884 811.999023438 878 c 2
 684.999023438 850 l 1
 624.999023438 850 l 1
EndSplineSet
EndChar

StartChar: Acircumflex
Encoding: 194 194 130
Width: 763
GlyphClass: 2
Flags: MW
HStem: 0 40<-98.001 -76.4238 140.406 150.999 -108.001 -76.4238 336.001 366.647 613.667 622.001> 290 50<309.999 482 267 490.999> 760 20G<606 690 690 690>
LayerCount: 2
Fore
SplineSet
86 74 m 0
 86 41.302734375 119.8125 40 160.999023438 40 c 1
 150.999023438 0 l 1
 -108.000976562 0 l 1
 -98.0009765625 40 l 1
 -54.8466796875 40 -28.3701171875 57.923828125 0.9990234375 81 c 0
 53.71875 122.422851562 95.080078125 171.313476562 145 231 c 2
 606 780 l 1
 690 780 l 1
 551 166 l 2
 543 130.666992188 539 105 539 89 c 0
 539 69.6669921875 545.333007812 56.6669921875 558 50 c 0
 570.666992188 43.3330078125 595.333984375 40 632.000976562 40 c 1
 622.000976562 0 l 1
 326.000976562 0 l 1
 336.000976562 40 l 1
 397.293945312 40 420.499023438 55.1630859375 437 101 c 0
 443 117.666992188 449 139.666992188 455 167 c 2
 482 290 l 1
 267 290 l 1
 204 224 l 2
 161.783203125 179.723632812 133.4453125 151.260742188 104 112 c 0
 92.8984375 97.197265625 86 90.2451171875 86 74 c 0
490.999023438 340 m 1
 572.999023438 650 l 1
 568.999023438 650 l 1
 309.999023438 340 l 1
 490.999023438 340 l 1
756.999023438 960 m 1
 836.999023438 851 l 1
 791.999023438 851 l 1
 686.999023438 905 l 1
 553.999023438 851 l 1
 508.999023438 851 l 1
 646.999023438 960 l 1
 756.999023438 960 l 1
EndSplineSet
EndChar

StartChar: Atilde
Encoding: 195 195 131
Width: 763
GlyphClass: 2
Flags: MW
HStem: 0 40<-98.001 -76.4238 140.406 150.999 -108.001 -76.4238 336.001 366.647 613.667 622.001> 290 50<309.999 482 267 490.999> 760 20G<606 690 690 690> 838 76 886 74
LayerCount: 2
Fore
SplineSet
86 74 m 0xe0
 86 41.302734375 119.8125 40 160.999023438 40 c 1
 150.999023438 0 l 1
 -108.000976562 0 l 1
 -98.0009765625 40 l 1
 -54.8466796875 40 -28.3701171875 57.923828125 0.9990234375 81 c 0
 53.71875 122.422851562 95.080078125 171.313476562 145 231 c 2
 606 780 l 1
 690 780 l 1
 551 166 l 2
 543 130.666992188 539 105 539 89 c 0
 539 69.6669921875 545.333007812 56.6669921875 558 50 c 0
 570.666992188 43.3330078125 595.333984375 40 632.000976562 40 c 1
 622.000976562 0 l 1
 326.000976562 0 l 1
 336.000976562 40 l 1
 397.293945312 40 420.499023438 55.1630859375 437 101 c 0
 443 117.666992188 449 139.666992188 455 167 c 2
 482 290 l 1
 267 290 l 1
 204 224 l 2
 161.783203125 179.723632812 133.4453125 151.260742188 104 112 c 0
 92.8984375 97.197265625 86 90.2451171875 86 74 c 0xe0
490.999023438 340 m 1
 572.999023438 650 l 1
 568.999023438 650 l 1
 309.999023438 340 l 1
 490.999023438 340 l 1
588.999023438 886 m 0xe8
 561.700195312 886 554.6171875 869.940429688 546.999023438 845.999023438 c 1
 512.999023438 845.999023438 l 1
 521.833984375 902.319335938 558.467773438 959.999023438 617.999023438 959.999023438 c 0xe8
 666.6328125 959.999023438 703.798828125 934.885742188 740.498046875 920.999023438 c 0
 752.831054688 916.33203125 764.998046875 913.999023438 776.998046875 913.999023438 c 0
 804.745117188 913.999023438 813.450195312 931.197265625 820.998046875 955.999023438 c 1
 853.998046875 955.999023438 l 1
 847.736328125 907.9921875 826.291015625 868.171875 791.998046875 848 c 0
 780.665039062 841.333007812 768.33203125 838 754.999023438 838 c 0xf0
 722.176757812 838 691.487304688 851.540039062 666.499023438 862 c 0
 644.100585938 871.375976562 616.051757812 886 588.999023438 886 c 0xe8
EndSplineSet
EndChar

StartChar: Adieresis
Encoding: 196 196 132
Width: 763
GlyphClass: 2
Flags: MW
HStem: 0 40<-98.001 -76.4238 140.406 150.999 -108.001 -76.4238 336.001 366.647 613.667 622.001> 290 50<309.999 482 267 490.999> 760 20G<606 690 690 690> 859 101<596.71 604.513 779.317 787.246>
VStem: 549 105 731 105
LayerCount: 2
Fore
SplineSet
86 74 m 0
 86 41.302734375 119.8125 40 160.999023438 40 c 1
 150.999023438 0 l 1
 -108.000976562 0 l 1
 -98.0009765625 40 l 1
 -54.8466796875 40 -28.3701171875 57.923828125 0.9990234375 81 c 0
 53.71875 122.422851562 95.080078125 171.313476562 145 231 c 2
 606 780 l 1
 690 780 l 1
 551 166 l 2
 543 130.666992188 539 105 539 89 c 0
 539 69.6669921875 545.333007812 56.6669921875 558 50 c 0
 570.666992188 43.3330078125 595.333984375 40 632.000976562 40 c 1
 622.000976562 0 l 1
 326.000976562 0 l 1
 336.000976562 40 l 1
 397.293945312 40 420.499023438 55.1630859375 437 101 c 0
 443 117.666992188 449 139.666992188 455 167 c 2
 482 290 l 1
 267 290 l 1
 204 224 l 2
 161.783203125 179.723632812 133.4453125 151.260742188 104 112 c 0
 92.8984375 97.197265625 86 90.2451171875 86 74 c 0
490.999023438 340 m 1
 572.999023438 650 l 1
 568.999023438 650 l 1
 309.999023438 340 l 1
 490.999023438 340 l 1
548.999023438 895 m 0
 548.999023438 930.419921875 579.421875 960 613.999023438 960 c 0
 636.811523438 960 653.999023438 945.22265625 653.999023438 923 c 0
 653.999023438 887.54296875 622.02734375 859 586.999023438 859 c 0
 564.973632812 859 548.999023438 873.2578125 548.999023438 895 c 0
730.999023438 895 m 0
 730.999023438 930.958007812 761.634765625 960 796.999023438 960 c 0
 818.99609375 960 835.999023438 944.71875 835.999023438 923 c 0
 835.999023438 888.049804688 804.493164062 859 769.999023438 859 c 0
 747.15625 859 730.999023438 872.7578125 730.999023438 895 c 0
EndSplineSet
EndChar

StartChar: Aring
Encoding: 197 197 133
Width: 763
GlyphClass: 2
Flags: MW
HStem: 0 40<-98.001 -76.4238 140.406 150.999 -108.001 -76.4238 336.001 366.647 613.667 622.001> 290 50<309.999 482 267 490.999> 760 20G<606 690 690 690> 830 31 928 32
VStem: 616 32 718 33
LayerCount: 2
Fore
SplineSet
86 74 m 0
 86 41.302734375 119.8125 40 160.999023438 40 c 1
 150.999023438 0 l 1
 -108.000976562 0 l 1
 -98.0009765625 40 l 1
 -54.8466796875 40 -28.3701171875 57.923828125 0.9990234375 81 c 0
 53.71875 122.422851562 95.080078125 171.313476562 145 231 c 2
 606 780 l 1
 690 780 l 1
 551 166 l 2
 543 130.666992188 539 105 539 89 c 0
 539 69.6669921875 545.333007812 56.6669921875 558 50 c 0
 570.666992188 43.3330078125 595.333984375 40 632.000976562 40 c 1
 622.000976562 0 l 1
 326.000976562 0 l 1
 336.000976562 40 l 1
 397.293945312 40 420.499023438 55.1630859375 437 101 c 0
 443 117.666992188 449 139.666992188 455 167 c 2
 482 290 l 1
 267 290 l 1
 204 224 l 2
 161.783203125 179.723632812 133.4453125 151.260742188 104 112 c 0
 92.8984375 97.197265625 86 90.2451171875 86 74 c 0
490.999023438 340 m 1
 572.999023438 650 l 1
 568.999023438 650 l 1
 309.999023438 340 l 1
 490.999023438 340 l 1
664.999023438 830 m 0
 634.93359375 830 615.998046875 848.254882812 615.998046875 878.001953125 c 0
 615.998046875 915.358398438 642.783203125 940.767578125 668.998046875 953.000976562 c 0
 678.998046875 957.66796875 689.665039062 960.000976562 700.998046875 960.000976562 c 0
 731.560546875 960.000976562 750.998046875 941.588867188 750.998046875 911.000976562 c 0
 750.998046875 874.2890625 723.15234375 847.677734375 696.499023438 836.5 c 0
 686.166015625 832.166992188 675.666015625 830 664.999023438 830 c 0
672.998046875 861.001953125 m 0
 695.377929688 861.001953125 717.998046875 880.544921875 717.998046875 903.001953125 c 0
 717.998046875 919.668945312 709.331054688 928.001953125 691.998046875 928.001953125 c 0
 669.591796875 928.001953125 647.998046875 907.43359375 647.998046875 885.001953125 c 0
 647.998046875 869.001953125 656.331054688 861.001953125 672.998046875 861.001953125 c 0
EndSplineSet
EndChar

StartChar: AE
Encoding: 198 198 134
Width: 1071
GlyphClass: 2
Flags: MW
HStem: 0 40 290 50 385 44<633 685 623 686> 726 44<701 831 701 701>
VStem: 762 40<247 247> 999 38<568 770>
LayerCount: 2
Fore
SplineSet
562 89 m 0
 562 44.4287109375 624.915039062 42.9921875 675.70703125 42.9921875 c 0
 679.204101562 42.9921875 682.643554688 42.9990234375 686.000976562 42.9990234375 c 0
 796.846679688 42.9990234375 867.7578125 68.3486328125 914.500976562 131.999023438 c 0
 930.16796875 153.33203125 945.000976562 179.665039062 959.000976562 210.998046875 c 1
 1006.00097656 210.998046875 l 1
 928.000976562 -0.001953125 l 1
 349.000976562 -0.001953125 l 1
 359.000976562 39.998046875 l 1
 420.293945312 39.998046875 443.499023438 55.1611328125 460 100.998046875 c 0
 466 117.665039062 472 139.665039062 478 166.998046875 c 2
 505 289.998046875 l 1
 290 289.998046875 l 1
 227 223.998046875 l 2
 184.783203125 179.721679688 156.4453125 151.258789062 127 111.998046875 c 0
 115.8984375 97.1953125 109 90.2431640625 109 73.998046875 c 0
 109 41.30078125 142.813476562 39.998046875 184 39.998046875 c 1
 174 -0.001953125 l 1
 -85 -0.001953125 l 1
 -75 39.998046875 l 1
 -31.845703125 39.998046875 -5.369140625 57.921875 24 80.998046875 c 0
 76.7197265625 122.420898438 118.081054688 171.311523438 168.000976562 230.998046875 c 2
 542.000976562 676.998046875 l 2
 552.66796875 689.665039062 558.000976562 699.33203125 558.000976562 705.999023438 c 0
 558.000976562 714.666015625 549.66796875 720.833007812 533.000976562 724.5 c 0
 516.333984375 728.166992188 488.666992188 730 450 730 c 1
 461 770 l 1
 1037 770 l 1
 1037 568 l 1
 999 568 l 1
 974.528320312 658.356445312 941.28515625 726 831 726 c 2
 701 726 l 1
 633 429 l 1
 686 429 l 2
 774.532226562 429 796.08984375 479.758789062 825 543 c 1
 862 543 l 1
 802 247 l 1
 762 247 l 1
 764 267 765 284.333007812 765 299 c 0
 765 359.62890625 746.170898438 385 685 385 c 2
 623 385 l 1
 574 166 l 2
 566 130.666992188 562 105 562 89 c 0
514.000976562 339.999023438 m 1
 596.000976562 649.999023438 l 1
 592.000976562 649.999023438 l 1
 333.000976562 339.999023438 l 1
 514.000976562 339.999023438 l 1
EndSplineSet
EndChar

